<svg width="190" height="180" viewBox="0 0 190 180" fill="none" xmlns="http://www.w3.org/2000/svg">
<g clip-path="url(#clip0_1676_83642)">
<path d="M80.8891 107.043H55.9739V131.959H80.8891V107.043Z" fill="#DDDDDD"/>
<path d="M83.5564 107.043H58.6411V131.959H83.5564V107.043Z" fill="#F9F9F9"/>
<path d="M92.6919 131.292H44.1711C42.6313 131.292 41.3831 132.54 41.3831 134.08V134.08C41.3831 135.62 42.6313 136.868 44.1711 136.868H92.6919C94.2317 136.868 95.4799 135.62 95.4799 134.08V134.08C95.4799 132.54 94.2317 131.292 92.6919 131.292Z" fill="#DDDDDD"/>
<path d="M95.3594 131.292H46.8385C45.2988 131.292 44.0505 132.54 44.0505 134.08V134.08C44.0505 135.62 45.2988 136.868 46.8385 136.868H95.3594C96.8991 136.868 98.1474 135.62 98.1474 134.08V134.08C98.1474 132.54 96.8991 131.292 95.3594 131.292Z" fill="#F9F9F9"/>
<path d="M132.862 24.5451H4.00095C1.79129 24.5451 0 26.3364 0 28.5461V117.785C0 119.994 1.79129 121.786 4.00095 121.786H132.862C135.072 121.786 136.863 119.994 136.863 117.785V28.5461C136.863 26.3364 135.072 24.5451 132.862 24.5451Z" fill="#DDDDDD"/>
<path d="M135.529 24.5451H6.66818C4.45852 24.5451 2.66724 26.3364 2.66724 28.5461V117.785C2.66724 119.994 4.45852 121.786 6.66818 121.786H135.529C137.739 121.786 139.53 119.994 139.53 117.785V28.5461C139.53 26.3364 137.739 24.5451 135.529 24.5451Z" fill="#F9F9F9"/>
<path d="M134.459 29.9491H7.73853V116.382H134.459V29.9491Z" fill="#AED1FC"/>
<path d="M51.0914 6.10352e-05C44.6212 6.10352e-05 39.3752 5.2453 39.3752 11.7162V45.5669H70.2366V6.10352e-05H51.0907H51.0914Z" fill="#DDDDDD"/>
<path d="M142.362 73.6288L142.313 11.7154C142.313 5.24524 137.068 -0.000671387 130.597 -0.000671387H51.0913C57.5615 -0.000671387 62.8074 5.24457 62.8074 11.7154L62.8568 84.1199C62.8568 90.5901 68.102 95.836 74.5729 95.836C81.0437 95.836 86.2916 90.5908 86.2916 84.1199V73.5261L142.363 73.6281L142.362 73.6288Z" fill="#EEEEEE"/>
<path d="M109.724 73.5694V73.5267C109.724 67.0565 104.479 61.8106 98.0077 61.8106C91.5368 61.8106 86.2916 67.0559 86.2916 73.5267V73.5281V84.1206C86.2916 90.5908 81.0437 95.836 74.5735 95.8367H109.73L109.724 73.5701V73.5694Z" fill="#DDDDDD"/>
<path d="M132.57 18.4324H72.8431C72.475 18.4324 72.1763 18.1336 72.1763 17.7655C72.1763 17.3975 72.475 17.0987 72.8431 17.0987H132.57C132.938 17.0987 133.237 17.3975 133.237 17.7655C133.237 18.1336 132.938 18.4324 132.57 18.4324Z" fill="#CCCCCC"/>
<path d="M132.57 24.8666H72.8431C72.475 24.8666 72.1763 24.5678 72.1763 24.1998C72.1763 23.8317 72.475 23.5329 72.8431 23.5329H132.57C132.938 23.5329 133.237 23.8317 133.237 24.1998C133.237 24.5678 132.938 24.8666 132.57 24.8666Z" fill="#CCCCCC"/>
<path d="M95.4532 31.3008H72.8438C72.4757 31.3008 72.177 31.002 72.177 30.6339C72.177 30.2658 72.4757 29.9671 72.8438 29.9671H95.4532C95.8213 29.9671 96.12 30.2658 96.12 30.6339C96.12 31.002 95.8213 31.3008 95.4532 31.3008Z" fill="#CCCCCC"/>
<path d="M132.57 44.4332H72.8431C72.475 44.4332 72.1763 44.1345 72.1763 43.7664C72.1763 43.3983 72.475 43.0995 72.8431 43.0995H132.57C132.938 43.0995 133.237 43.3983 133.237 43.7664C133.237 44.1345 132.938 44.4332 132.57 44.4332Z" fill="#CCCCCC"/>
<path d="M120.498 50.8674H72.8431C72.475 50.8674 72.1763 50.5687 72.1763 50.2006C72.1763 49.8325 72.475 49.5338 72.8431 49.5338H120.498C120.866 49.5338 121.165 49.8325 121.165 50.2006C121.165 50.5687 120.866 50.8674 120.498 50.8674Z" fill="#CCCCCC"/>
<path d="M111.392 57.3016H72.8431C72.475 57.3016 72.1763 57.0028 72.1763 56.6348C72.1763 56.2667 72.475 55.9679 72.8431 55.9679H111.392C111.76 55.9679 112.059 56.2667 112.059 56.6348C112.059 57.0028 111.76 57.3016 111.392 57.3016Z" fill="#CCCCCC"/>
<path d="M188.988 154.976L186.157 152.145L183.327 154.976L180.496 152.145L177.665 154.976L174.835 152.145L172.004 154.976L169.173 152.145L166.343 154.976L163.512 152.145L160.681 154.976L157.851 152.145L155.02 154.976L152.189 152.145L149.359 154.976L146.528 152.145L143.697 154.976L140.867 152.145L138.036 154.976L135.205 152.145L132.375 154.976L129.544 152.145L126.713 154.976L123.883 152.145L121.052 154.976L118.221 152.145L115.391 154.976L112.56 152.145L109.729 154.976L109.773 150.516L109.723 73.5267C109.723 67.0565 104.478 61.8106 98.0071 61.8106H177.513C183.983 61.8106 189.229 67.0559 189.229 73.5267L189.278 150.516L188.987 154.976H188.988Z" fill="#F9F9F9"/>
<path d="M165.748 76.6915H120.498C120.13 76.6915 119.831 76.3928 119.831 76.0247C119.831 75.6566 120.13 75.3578 120.498 75.3578H165.748C166.116 75.3578 166.415 75.6566 166.415 76.0247C166.415 76.3928 166.116 76.6915 165.748 76.6915Z" fill="#CCCCCC"/>
<path d="M180.225 83.1257H120.498C120.13 83.1257 119.831 82.8269 119.831 82.4588C119.831 82.0908 120.13 81.792 120.498 81.792H180.225C180.593 81.792 180.892 82.0908 180.892 82.4588C180.892 82.8269 180.593 83.1257 180.225 83.1257Z" fill="#CCCCCC"/>
<path d="M161.193 89.5599H120.498C120.13 89.5599 119.831 89.2611 119.831 88.8931C119.831 88.525 120.13 88.2262 120.498 88.2262H161.193C161.561 88.2262 161.86 88.525 161.86 88.8931C161.86 89.2611 161.561 89.5599 161.193 89.5599Z" fill="#CCCCCC"/>
<path d="M180.225 100.199H120.498C120.13 100.199 119.831 99.9003 119.831 99.5322C119.831 99.1642 120.13 98.8654 120.498 98.8654H180.225C180.593 98.8654 180.892 99.1642 180.892 99.5322C180.892 99.9003 180.593 100.199 180.225 100.199Z" fill="#CCCCCC"/>
<path d="M169.477 106.633H120.498C120.13 106.633 119.831 106.335 119.831 105.966C119.831 105.598 120.13 105.3 120.498 105.3H169.477C169.846 105.3 170.144 105.598 170.144 105.966C170.144 106.335 169.846 106.633 169.477 106.633Z" fill="#CCCCCC"/>
<path d="M174.838 113.067H120.498C120.13 113.067 119.831 112.769 119.831 112.401C119.831 112.033 120.13 111.734 120.498 111.734H174.838C175.206 111.734 175.505 112.033 175.505 112.401C175.505 112.769 175.206 113.067 174.838 113.067Z" fill="#CCCCCC"/>
<path d="M151.531 123.707H120.498C120.13 123.707 119.831 123.408 119.831 123.04C119.831 122.672 120.13 122.373 120.498 122.373H151.531C151.899 122.373 152.198 122.672 152.198 123.04C152.198 123.408 151.899 123.707 151.531 123.707Z" fill="#CCCCCC"/>
<path d="M180.225 130.141H120.498C120.13 130.141 119.831 129.842 119.831 129.474C119.831 129.106 120.13 128.807 120.498 128.807H180.225C180.593 128.807 180.892 129.106 180.892 129.474C180.892 129.842 180.593 130.141 180.225 130.141Z" fill="#CCCCCC"/>
<path d="M143.107 136.575H120.498C120.13 136.575 119.831 136.276 119.831 135.908C119.831 135.54 120.13 135.241 120.498 135.241H143.107C143.475 135.241 143.774 135.54 143.774 135.908C143.774 136.276 143.475 136.575 143.107 136.575Z" fill="#CCCCCC"/>
<path d="M17.9352 168.092L20.3317 170.174L22.7737 171.737C23.3958 172.033 23.7339 172.716 23.5919 173.39L23.5492 173.592C23.4898 173.873 23.2138 174.052 22.9324 173.994L15.0365 172.329C14.461 172.207 14.0929 171.643 14.2143 171.067L14.9731 167.468L17.9345 168.092L17.9352 168.092Z" fill="#002744"/>
<path d="M25.4002 127.247L24.4453 149.654L19.6869 168.6L14.1909 167.68L18.65 149.654L15.6946 127.247H25.4002Z" fill="#1C3D88"/>
<path d="M29.8595 169.261L32.7648 170.804L35.4768 171.83C36.1463 171.991 36.6184 172.59 36.6184 173.279V173.485C36.6184 173.772 36.3857 174.005 36.0983 174.005H28.029C27.4409 174.005 26.9641 173.528 26.9641 172.94V169.261H29.8601H29.8595Z" fill="#002744"/>
<path d="M28.7346 127.247L31.6319 149.654L31.1118 169.46H26.3574L25.8366 149.654L15.6948 127.247H28.7346Z" fill="#1C3D88"/>
<path d="M18.728 99.9582V91.6323C19.0074 89.8145 19.6923 89.7292 20.9305 90.1559C21.7727 84.0678 26.7173 85.3955 26.7173 85.3955C28.4357 86.2703 28.0922 89.8612 28.0922 89.8612L29.8687 92.1437H28.0922C28.0922 92.1437 28.6777 96.7328 26.0804 96.8122H24.126V99.9582H18.728Z" fill="white"/>
<path d="M53.0701 69.2536L51.4468 68.3164L45.0996 79.31L46.7229 80.2472L53.0701 69.2536Z" fill="#417BC0"/>
<path d="M58.8556 42.3706C50.5784 42.3706 43.8674 49.0809 43.8674 57.3588C43.8674 65.6368 50.5777 72.347 58.8556 72.347C67.1336 72.347 73.8439 65.6368 73.8439 57.3588C73.8439 49.0809 67.1336 42.3706 58.8556 42.3706ZM58.8556 69.349C52.2334 69.349 46.8655 63.9804 46.8655 57.3588C46.8655 50.7373 52.2341 45.3687 58.8556 45.3687C65.4772 45.3687 70.8458 50.7373 70.8458 57.3588C70.8458 63.9804 65.4772 69.349 58.8556 69.349Z" fill="#417BC0"/>
<path d="M48.1804 77.723L46.1779 79.092C46.0472 79.1813 45.8685 79.096 45.8552 78.938L45.8372 78.7152L46.1519 77.4876L45.133 78.1558C45.017 78.2318 44.9403 78.3551 44.9236 78.4925L44.5709 81.3472L43.3433 83.0549L45.1597 84.3579L46.3873 82.6502L48.1431 81.0525C48.3551 80.8597 48.5012 80.6057 48.5612 80.3256L48.7605 79.3954C48.8146 79.1433 48.7792 78.8799 48.6605 78.6505L48.1797 77.723H48.1804Z" fill="white"/>
<path d="M46.3873 84.7953L42.8712 82.4334L34.5259 94.3209C34.5259 94.3209 31.6318 98.786 23.9514 99.4435H19.9991C17.5672 99.4435 14.9372 104.181 14.5358 109.018L12.3086 130.395H32.192L29.8694 107.438C29.8694 107.438 36.0255 101.399 39.219 96.8702C42.4124 92.3411 46.388 84.7953 46.388 84.7953H46.3873Z" fill="#E7F2FF"/>
<path d="M15.2379 86.3024C17.1544 82.8182 18.6408 82.3001 22.9464 82.3001H24.3468C26.1032 82.3001 27.5269 83.7238 27.5269 85.4802V86.2083C27.5269 86.2083 24.3914 90.292 21.3381 91.3089C21.3381 91.3089 21.2494 90.0239 20.0731 90.7194C19.2356 91.2142 19.8997 92.8939 21.3381 93.0633C21.3381 93.0633 23.1338 95.5352 21.6828 97.277C20.2311 99.0187 20.2551 101.335 20.4052 103.084C20.7533 107.148 16.689 110.051 14.8312 109.587C12.9734 109.122 10.8829 106.336 12.6247 103.432C14.3664 100.529 15.8761 97.3937 14.7732 95.0711C13.6702 92.7486 14.6618 87.3506 15.2379 86.303V86.3024Z" fill="#1C3D88"/>
<path d="M27.2308 90.3813C27.3645 90.3813 27.4729 90.2144 27.4729 90.0086C27.4729 89.8027 27.3645 89.6358 27.2308 89.6358C27.0971 89.6358 26.9888 89.8027 26.9888 90.0086C26.9888 90.2144 27.0971 90.3813 27.2308 90.3813Z" fill="#003760"/>
<path d="M99.8826 77.5303L98.891 79.4528L98.3189 81.7L95.9296 81.0945L96.5018 78.8473L95.8396 76.266L96.087 74.2115C96.131 74.0282 96.3177 73.9181 96.4991 73.9682C96.6451 74.0088 96.7458 74.1429 96.7432 74.2942L96.7125 76.034L98.0261 72.0964C98.0708 71.967 98.2048 71.891 98.3389 71.9203C98.4876 71.953 98.5803 72.1017 98.5436 72.2497L97.9608 74.895C97.9608 74.895 98.5156 74.855 98.6749 75.2131C98.9263 75.1231 99.4158 75.3038 99.5025 75.5552C99.8332 75.5239 100.154 75.7499 100.207 75.93C100.261 76.1093 99.8839 77.529 99.8839 77.529L99.8826 77.5303Z" fill="white"/>
<path d="M86.9602 172.503H84.3423V176.01H86.9602V172.503Z" fill="white"/>
<path d="M78.9324 172.503H76.3145V176.01H78.9324V172.503Z" fill="white"/>
<path d="M76.3143 176.01L75.5408 178.633C75.3394 179.316 75.8515 180.001 76.563 180.001H78.6829C79.395 180.001 79.9065 179.316 79.7051 178.633L78.9316 176.01H76.3136H76.3143Z" fill="#002744"/>
<path d="M84.3424 176.01L83.5689 178.633C83.3675 179.316 83.8796 180.001 84.5911 180.001H86.7109C87.4231 180.001 87.9346 179.316 87.7332 178.633L86.9597 176.01H84.3417H84.3424Z" fill="#002744"/>
<path d="M90.0143 133.55L88.3925 157.853L87.7511 175.431H83.502L82.5605 157.853L82.1737 145.378L80.7641 157.853L79.8225 175.431H75.5735L74.932 157.853L73.3103 133.55H90.0143Z" fill="#1C3D88"/>
<path d="M84.3744 97.7958H79.0251V101.614H84.3744V97.7958Z" fill="white"/>
<path d="M82.6578 86.9946H80.7407C78.741 86.9946 77.1199 88.6157 77.1199 90.6154V95.2552C77.1199 97.2549 78.741 98.8761 80.7407 98.8761H82.6578C84.6576 98.8761 86.2787 97.2549 86.2787 95.2552V90.6154C86.2787 88.6157 84.6576 86.9946 82.6578 86.9946Z" fill="white"/>
<path d="M77.3361 92.4405H76.9046C76.4542 92.4405 76.0891 92.8056 76.0891 93.256V94.1002C76.0891 94.5507 76.4542 94.9158 76.9046 94.9158H77.3361C77.7865 94.9158 78.1516 94.5507 78.1516 94.1002V93.256C78.1516 92.8056 77.7865 92.4405 77.3361 92.4405Z" fill="white"/>
<path d="M86.4943 92.4405H86.0628C85.6124 92.4405 85.2473 92.8056 85.2473 93.256V94.1002C85.2473 94.5507 85.6124 94.9158 86.0628 94.9158H86.4943C86.9447 94.9158 87.3098 94.5507 87.3098 94.1002V93.256C87.3098 92.8056 86.9447 92.4405 86.4943 92.4405Z" fill="white"/>
<path d="M87.4551 88.5263C87.1357 87.5174 86.4088 87.0592 85.7794 86.8505C84.4304 84.9687 82.3299 84.8441 80.9236 84.8441C79.1785 84.8441 76.1204 86.3471 76.0077 89.4371C75.663 98.876 79.0258 99.4375 79.0258 99.4375H84.375C86.6309 99.4375 87.7492 92.4405 87.4558 88.5269L87.4551 88.5263Z" fill="#003760"/>
<path d="M92.1828 133.55C92.1828 133.55 91.5673 115.053 91.0392 108.306C90.4697 101.029 84.8664 101.029 84.8664 101.029H78.5322C78.5322 101.029 72.9289 101.029 72.3594 108.306C71.8313 115.053 71.2158 133.55 71.2158 133.55H92.1821H92.1828Z" fill="#64A9FF"/>
<path d="M87.3704 102.232L91.7767 94.405L95.3483 79.2801L99.6886 80.6524L96.4072 97.0596L89.5569 114.671L87.3704 102.232Z" fill="#64A9FF"/>
<path d="M71.8847 132.64L74.5433 129.095C74.5433 129.095 71.1365 123.057 70.6731 120.498C70.2096 117.939 74.8347 114.181 74.8347 114.181L73.0423 105.168C73.0423 105.168 65.2131 116.744 65.7252 120.754C66.2374 124.764 71.8847 132.64 71.8847 132.64Z" fill="#64A9FF"/>
<rect x="127" y="13" width="40" height="40" rx="8" fill="#DDDDDD"/>
<rect x="130" y="13" width="40" height="40" rx="8" fill="#F9F9F9"/>
<path d="M160.86 24.435V41.01H150V24.435H160.86ZM160.86 23.295H150C149.37 23.295 148.86 23.805 148.86 24.435V41.01C148.86 41.64 149.37 42.15 150 42.15H160.86C161.49 42.15 162 41.64 162 41.01V24.435C162 23.805 161.49 23.295 160.86 23.295Z" fill="#247045"/>
<path d="M159.15 26.145H155.145V27.855H159.15V26.145Z" fill="#247045"/>
<path d="M159.15 28.995H155.145V30.705H159.15V28.995Z" fill="#247045"/>
<path d="M159.15 31.86H155.145V33.57H159.15V31.86Z" fill="#247045"/>
<path d="M159.15 34.71H155.145V36.42H159.15V34.71Z" fill="#247045"/>
<path d="M159.15 37.575H155.145V39.285H159.15V37.575Z" fill="#247045"/>
<path d="M154.005 26.145H150V27.855H154.005V26.145Z" fill="#247045"/>
<path d="M154.005 28.995H150V30.705H154.005V28.995Z" fill="#247045"/>
<path d="M154.005 31.86H150V33.57H154.005V31.86Z" fill="#247045"/>
<path d="M154.005 34.71H150V36.42H154.005V34.71Z" fill="#247045"/>
<path d="M154.005 37.575H150V39.285H154.005V37.575Z" fill="#247045"/>
<path d="M138 23.505V42.495L152.28 45V21L138 23.505ZM146.1 37.44L144.78 34.335L144.75 34.245L144.72 34.11L144.675 33.93L144.63 33.72V33.84L144.585 33.99L144.54 34.17L144.48 34.365L143.22 37.275L141.345 37.155L143.61 32.715L141.555 28.275L143.475 28.155L144.525 30.87L144.585 31.035L144.645 31.23L144.69 31.425C144.69 31.425 144.735 31.56 144.735 31.635L144.78 31.485L144.825 31.29L144.885 31.095L144.96 30.84L146.175 27.99L148.17 27.87L145.8 32.685L148.26 37.575L146.07 37.44H146.1Z" fill="#247045"/>
</g>
<defs>
<clipPath id="clip0_1676_83642">
<rect width="189.279" height="180" fill="white"/>
</clipPath>
</defs>
</svg>
