<svg width="151" height="26" viewBox="0 0 151 26" fill="none" xmlns="http://www.w3.org/2000/svg">
<g clip-path="url(#clip0_664_138926)">
<g clip-path="url(#clip1_664_138926)">
<mask id="mask0_664_138926" style="mask-type:luminance" maskUnits="userSpaceOnUse" x="0" y="0" width="31" height="26">
<path d="M15.275 4.0235L26.65 6.929V22.1H3.9V6.929L15.275 4.0235ZM15.275 0L0 3.9V26H30.55V3.9L15.275 0Z" fill="white"/>
</mask>
<g mask="url(#mask0_664_138926)">
<path d="M30.55 0H0V26H30.55V0Z" fill="#648EE2"/>
<path d="M15.275 0H0V11.05H15.275V0Z" fill="#F09926"/>
</g>
</g>
<path d="M48.7082 10.6664V12.1606H43.5227V16.643H41.677V12.1606H36.55V10.6664H48.7082ZM47.6242 4.01602V5.48087H43.7424C43.9255 6.78458 45.3977 8.09561 48.1369 8.4252L47.4631 9.89005C45.1193 9.5751 43.4421 8.57169 42.6438 7.19473C41.8234 8.57169 40.1608 9.5751 37.8391 9.89005L37.1506 8.4252C39.8459 8.09561 41.3327 6.78458 41.5451 5.48087H37.6486V4.01602H47.6242Z" fill="black"/>
<path d="M61.116 13.5522V15.0463H48.9139V13.5522H54.0115V10.5346H55.8719V13.5522H61.116ZM55.9305 5.02676C55.9305 6.93106 57.6443 8.9379 60.6912 9.40665L59.9002 10.9594C57.5564 10.5346 55.8133 9.28214 54.9344 7.61954C54.0555 9.27481 52.327 10.5419 49.9979 10.9594L49.2068 9.40665C52.2244 8.9379 53.9236 6.91641 53.9383 5.02676V4.07462H55.9305V5.02676Z" fill="black"/>
<path d="M72.5131 3.3129V11.2231H70.6527V8.07364H68.5727V6.56485H70.6527V3.3129H72.5131ZM67.9574 11.516C70.7992 11.5307 72.5424 12.4682 72.557 14.0941C72.5424 15.7055 70.7992 16.6576 67.9574 16.6576C65.1156 16.6576 63.3725 15.7055 63.3725 14.0941C63.3725 12.4682 65.1156 11.5307 67.9574 11.516ZM67.9574 12.9516C66.185 12.9516 65.2328 13.3178 65.2328 14.0941C65.2328 14.8559 66.185 15.2367 67.9574 15.2367C69.7299 15.2367 70.6967 14.8559 70.6967 14.0941C70.6967 13.3178 69.7299 12.9516 67.9574 12.9516ZM68.9682 4.11856V5.6127H66.3168C66.3607 7.16544 67.2982 8.73282 69.3783 9.4213L68.4555 10.8861C66.9833 10.4101 65.9726 9.44327 65.3939 8.23477C64.8007 9.59708 63.7387 10.6957 62.1566 11.2377L61.1898 9.75821C63.3798 9.02579 64.3612 7.28262 64.4125 5.6127H61.7318V4.11856H68.9682Z" fill="black"/>
<path d="M85.8438 13.5668V15.0902H73.6416V13.5668H78.7832V11.1059H74.9307V4.16251H76.8057V6.22794H82.6211V4.16251H84.4814V11.1059H80.6436V13.5668H85.8438ZM76.8057 9.61172H82.6211V7.72208H76.8057V9.61172Z" fill="black"/>
<path d="M93.4762 4.27969V5.11465C93.4762 6.03751 93.4762 7.37051 93.1686 9.02579L91.3375 8.85001C91.5719 7.56827 91.6305 6.60147 91.6451 5.80313H86.6207V4.27969H93.4762ZM90.1656 7.35587V9.90469C91.4913 9.85342 92.8536 9.75089 94.1061 9.56778L94.2086 10.9154C91.44 11.4281 88.3053 11.4721 85.9908 11.4867L85.8297 9.99258C86.5768 9.99258 87.419 9.99258 88.3053 9.96329V7.35587H90.1656ZM96.7428 3.3129V7.37051H98.3541V8.9379H96.7428V13.2885H94.8238V3.3129H96.7428ZM97.1529 14.9145V16.4086H87.7926V12.3949H89.6676V14.9145H97.1529Z" fill="black"/>
<path d="M109.546 3.3129V16.6723H107.686V3.3129H109.546ZM105.415 4.42618V9.56778H101.021V12.0141C103.05 12.0067 104.778 11.8896 106.734 11.5746L106.895 13.0834C104.697 13.4643 102.72 13.5522 100.288 13.5522H99.0871V8.08829H103.511V5.93497H99.0725V4.42618H105.415Z" fill="black"/>
<path d="M118.776 6.33047C118.776 8.77676 119.889 11.2377 122.145 12.1898L121.046 13.684C119.523 12.9955 118.468 11.6698 117.868 10.0219C117.26 11.8163 116.168 13.2665 114.542 14.0063L113.414 12.4535C115.744 11.4721 116.871 8.92325 116.886 6.33047V4.33829H118.776V6.33047ZM124.752 3.3129V16.6723H122.863V3.3129H124.752Z" fill="black"/>
<path d="M132.971 5.07071C132.971 7.01895 134.699 9.11368 137.717 9.62637L136.896 11.1791C134.575 10.7177 132.846 9.41397 131.989 7.69278C131.103 9.39932 129.375 10.7104 127.067 11.1791L126.262 9.62637C129.221 9.09903 130.964 7.0043 130.979 5.07071V4.10391H132.971V5.07071ZM138.156 13.4643V15.0023H125.954V13.4643H138.156Z" fill="black"/>
<path d="M143.928 4.10391V5.6127H140.632V6.66739H143.43V8.10294H140.632V9.26016C142.09 9.23819 143.152 9.1796 144.382 8.98184L144.573 10.432C143.035 10.6957 141.76 10.7397 139.754 10.7397H138.845V4.10391H143.928ZM149.773 3.3129V11.267H148.001V3.3129H149.773ZM147.122 3.51797V11.1791H145.349V8.01505H144.002V6.5209H145.349V3.51797H147.122ZM149.773 11.7943V16.4965H140.676V11.7943H149.773ZM142.537 13.2592V15.0023H147.927V13.2592H142.537Z" fill="black"/>
<path d="M36.55 24.4461V18.9313H37.2355V21.6582H37.3041L39.7568 18.9313H40.6557L38.3477 21.4221L40.6557 24.4461H39.8178L37.9211 21.8943L37.2355 22.6713V24.4461H36.55Z" fill="#999999"/>
<path d="M42.5411 24.5299C41.4137 24.5299 40.652 23.6844 40.652 22.3971C40.652 21.1098 41.4137 20.2566 42.5411 20.2566C43.6608 20.2566 44.4149 21.1098 44.4149 22.3971C44.4149 23.6844 43.6608 24.5299 42.5411 24.5299ZM42.5411 23.951C43.3713 23.951 43.7598 23.2197 43.7598 22.3971C43.7598 21.5744 43.3713 20.8356 42.5411 20.8356C41.6956 20.8356 41.3071 21.5744 41.3071 22.3971C41.3071 23.2197 41.6956 23.951 42.5411 23.951Z" fill="#999999"/>
<path d="M45.1196 24.4461V20.31H45.7519V20.9422H45.7976C45.9499 20.5232 46.3765 20.2414 46.864 20.2414C46.963 20.2414 47.1306 20.249 47.2068 20.2566V20.9193C47.1611 20.9041 46.9782 20.8736 46.8107 20.8736C46.2165 20.8736 45.7747 21.285 45.7747 21.841V24.4461H45.1196Z" fill="#999999"/>
<path d="M49.2902 24.5299C48.0943 24.5299 47.3554 23.6844 47.3554 22.4123C47.3554 21.1402 48.1019 20.2566 49.2293 20.2566C50.0976 20.2566 51.0117 20.7898 51.0117 22.3209V22.5951H48.0105C48.041 23.4711 48.5513 23.951 49.2902 23.951C49.7853 23.951 50.0976 23.7377 50.25 23.4787H50.9508C50.7527 24.1033 50.1433 24.5299 49.2902 24.5299ZM48.0181 22.0391H50.349C50.349 21.3459 49.9072 20.8356 49.2293 20.8356C48.5133 20.8356 48.0562 21.3992 48.0181 22.0391Z" fill="#999999"/>
<path d="M51.5108 23.2731C51.5108 22.3209 52.3487 22.1076 53.0647 22.0543C53.3275 22.0353 53.9978 22.001 54.1844 21.9934V21.6582C54.1844 21.1326 53.8721 20.8279 53.2475 20.8279C52.7219 20.8279 52.4096 21.0717 52.3182 21.384H51.6326C51.7164 20.7213 52.3639 20.2566 53.278 20.2566C53.8188 20.2566 54.8319 20.4166 54.8319 21.7191V24.4461H54.1844V23.8824H54.1539C54.0168 24.1643 53.636 24.5451 52.9199 24.5451C52.1354 24.5451 51.5108 24.0805 51.5108 23.2731ZM52.1658 23.3035C52.1658 23.7377 52.5315 23.9586 53.0342 23.9586C53.7731 23.9586 54.1844 23.4635 54.1844 22.9455V22.5266C53.9902 22.5418 53.3389 22.5913 53.1408 22.6027C52.5467 22.6408 52.1658 22.8541 52.1658 23.3035Z" fill="#999999"/>
<path d="M57.8562 24.4461H57.1402L59.1587 18.9313H59.8824L61.9009 24.4461H61.1773L60.6288 22.8922H58.4122L57.8562 24.4461ZM58.6179 22.2904H60.4156L59.5396 19.8225H59.4939L58.6179 22.2904Z" fill="#999999"/>
<path d="M63.9615 24.5299C62.9332 24.5299 62.202 23.6996 62.202 22.3895C62.202 21.0793 62.9332 20.2566 63.9691 20.2566C64.7689 20.2566 65.0279 20.7441 65.165 20.965H65.2107V18.9313H65.8734V24.4461H65.2336V23.8139H65.165C65.0203 24.0424 64.7537 24.5299 63.9615 24.5299ZM64.0529 23.9434C64.807 23.9434 65.2336 23.3035 65.2336 22.3742C65.2336 21.4602 64.8223 20.8432 64.0529 20.8432C63.2607 20.8432 62.8646 21.5135 62.8646 22.3742C62.8646 23.2578 63.2684 23.9434 64.0529 23.9434Z" fill="#999999"/>
<path d="M68.4139 24.5299C67.3856 24.5299 66.6543 23.6996 66.6543 22.3895C66.6543 21.0793 67.3856 20.2566 68.4215 20.2566C69.2213 20.2566 69.4803 20.7441 69.6174 20.965H69.6631V18.9313H70.3258V24.4461H69.686V23.8139H69.6174C69.4727 24.0424 69.2061 24.5299 68.4139 24.5299ZM68.5053 23.9434C69.2594 23.9434 69.686 23.3035 69.686 22.3742C69.686 21.4602 69.2747 20.8432 68.5053 20.8432C67.7131 20.8432 67.317 21.5135 67.317 22.3742C67.317 23.2578 67.7208 23.9434 68.5053 23.9434Z" fill="#999999"/>
<path d="M71.3048 24.4461V20.31H71.937V20.9422H71.9827C72.1351 20.5232 72.5616 20.2414 73.0491 20.2414C73.1481 20.2414 73.3157 20.249 73.3919 20.2566V20.9193C73.3462 20.9041 73.1634 20.8736 72.9958 20.8736C72.4017 20.8736 71.9599 21.285 71.9599 21.841V24.4461H71.3048Z" fill="#999999"/>
<path d="M75.4754 24.5299C74.2795 24.5299 73.5406 23.6844 73.5406 22.4123C73.5406 21.1402 74.2871 20.2566 75.4144 20.2566C76.2828 20.2566 77.1968 20.7898 77.1968 22.3209V22.5951H74.1957C74.2261 23.4711 74.7365 23.951 75.4754 23.951C75.9705 23.951 76.2828 23.7377 76.4351 23.4787H77.1359C76.9379 24.1033 76.3285 24.5299 75.4754 24.5299ZM74.2033 22.0391H76.5341C76.5341 21.3459 76.0923 20.8356 75.4144 20.8356C74.6984 20.8356 74.2414 21.3992 74.2033 22.0391Z" fill="#999999"/>
<path d="M80.1944 21.384C80.1029 21.0412 79.844 20.8127 79.3565 20.8127C78.8461 20.8127 78.4805 21.0869 78.4805 21.4373C78.4805 21.7115 78.7014 21.902 79.1889 22.0162L79.8059 22.1686C80.5447 22.3438 80.9104 22.7094 80.9104 23.2883C80.9104 24.0043 80.3238 24.5299 79.2879 24.5299C78.3586 24.5299 77.8026 24.1186 77.6959 23.3645H78.3815C78.4576 23.7682 78.7547 23.9586 79.2727 23.9586C79.8592 23.9586 80.2324 23.7148 80.2324 23.3264C80.2324 23.0369 80.0268 22.8389 79.5545 22.7322L78.9299 22.5875C78.2063 22.4199 77.8254 22.0238 77.8254 21.4754C77.8254 20.767 78.4424 20.2566 79.3565 20.2566C80.2096 20.2566 80.7504 20.7137 80.8342 21.384H80.1944Z" fill="#999999"/>
<path d="M83.9079 21.384C83.8165 21.0412 83.5575 20.8127 83.07 20.8127C82.5596 20.8127 82.194 21.0869 82.194 21.4373C82.194 21.7115 82.4149 21.902 82.9024 22.0162L83.5194 22.1686C84.2583 22.3438 84.6239 22.7094 84.6239 23.2883C84.6239 24.0043 84.0374 24.5299 83.0014 24.5299C82.0721 24.5299 81.5161 24.1186 81.4094 23.3645H82.095C82.1712 23.7682 82.4682 23.9586 82.9862 23.9586C83.5727 23.9586 83.946 23.7148 83.946 23.3264C83.946 23.0369 83.7403 22.8389 83.268 22.7322L82.6434 22.5875C81.9198 22.4199 81.5389 22.0238 81.5389 21.4754C81.5389 20.767 82.1559 20.2566 83.07 20.2566C83.9231 20.2566 84.4639 20.7137 84.5477 21.384H83.9079Z" fill="#999999"/>
<path d="M87.1226 24.4461V20.31H87.7777V24.4461H87.1226ZM87.4502 19.6244C87.1988 19.6244 86.9932 19.434 86.9932 19.1902C86.9932 18.9465 87.1988 18.7561 87.4502 18.7561C87.7015 18.7561 87.9148 18.9465 87.9148 19.1902C87.9148 19.434 87.7015 19.6244 87.4502 19.6244Z" fill="#999999"/>
<path d="M89.3204 21.9629V24.4461H88.6653V20.31H89.2975V20.9574H89.3508C89.5489 20.5385 89.9297 20.2566 90.562 20.2566C91.3998 20.2566 91.9559 20.767 91.9559 21.8182V24.4461H91.3008V21.8639C91.3008 21.224 90.9504 20.8432 90.3639 20.8432C89.7622 20.8432 89.3204 21.2469 89.3204 21.9629Z" fill="#999999"/>
<path d="M94.7021 20.31V20.8584H93.788V24.4461H93.1253V20.8584H92.4626V20.31H93.1253V19.7463C93.1253 19.076 93.5747 18.6723 94.306 18.6723C94.4659 18.6723 94.6563 18.6951 94.7935 18.718V19.3045C94.6563 19.2816 94.5345 19.274 94.4507 19.274C93.9937 19.274 93.788 19.4645 93.788 19.891V20.31H94.7021Z" fill="#999999"/>
<path d="M96.8388 24.5299C95.7115 24.5299 94.9498 23.6844 94.9498 22.3971C94.9498 21.1098 95.7115 20.2566 96.8388 20.2566C97.9586 20.2566 98.7127 21.1098 98.7127 22.3971C98.7127 23.6844 97.9586 24.5299 96.8388 24.5299ZM96.8388 23.951C97.6691 23.951 98.0576 23.2197 98.0576 22.3971C98.0576 21.5744 97.6691 20.8356 96.8388 20.8356C95.9933 20.8356 95.6048 21.5744 95.6048 22.3971C95.6048 23.2197 95.9933 23.951 96.8388 23.951Z" fill="#999999"/>
<path d="M99.4174 24.4461V20.31H100.05V20.9422H100.095C100.248 20.5232 100.674 20.2414 101.162 20.2414C101.261 20.2414 101.428 20.249 101.505 20.2566V20.9193C101.459 20.9041 101.276 20.8736 101.108 20.8736C100.514 20.8736 100.072 21.285 100.072 21.841V24.4461H99.4174Z" fill="#999999"/>
<path d="M101.988 24.4461V20.31H102.621V20.9574H102.674C102.849 20.5156 103.245 20.2566 103.786 20.2566C104.327 20.2566 104.692 20.5156 104.89 20.9574H104.936C105.149 20.5309 105.584 20.2566 106.178 20.2566C106.917 20.2566 107.442 20.7061 107.442 21.6811V24.4461H106.787V21.6887C106.787 21.0793 106.399 20.8432 105.949 20.8432C105.37 20.8432 105.043 21.2316 105.043 21.7572V24.4461H104.38V21.6201C104.38 21.1555 104.045 20.8432 103.573 20.8432C103.078 20.8432 102.643 21.2621 102.643 21.8639V24.4461H101.988Z" fill="#999999"/>
<path d="M108.139 23.2731C108.139 22.3209 108.977 22.1076 109.693 22.0543C109.956 22.0353 110.626 22.001 110.813 21.9934V21.6582C110.813 21.1326 110.501 20.8279 109.876 20.8279C109.351 20.8279 109.038 21.0717 108.947 21.384H108.261C108.345 20.7213 108.993 20.2566 109.907 20.2566C110.447 20.2566 111.46 20.4166 111.46 21.7191V24.4461H110.813V23.8824H110.783C110.645 24.1643 110.265 24.5451 109.549 24.5451C108.764 24.5451 108.139 24.0805 108.139 23.2731ZM108.794 23.3035C108.794 23.7377 109.16 23.9586 109.663 23.9586C110.402 23.9586 110.813 23.4635 110.813 22.9455V22.5266C110.619 22.5418 109.968 22.5913 109.769 22.6027C109.175 22.6408 108.794 22.8541 108.794 23.3035Z" fill="#999999"/>
<path d="M114.161 20.31V20.8584H113.293V23.2578C113.293 23.791 113.552 23.8748 113.833 23.8748C113.955 23.8748 114.123 23.8672 114.222 23.8596V24.469C114.123 24.4842 113.955 24.4994 113.765 24.4994C113.216 24.4994 112.63 24.1566 112.63 23.4254V20.8584H112.005V20.31H112.63V19.3197H113.293V20.31H114.161Z" fill="#999999"/>
<path d="M114.85 24.4461V20.31H115.506V24.4461H114.85ZM115.178 19.6244C114.927 19.6244 114.721 19.434 114.721 19.1902C114.721 18.9465 114.927 18.7561 115.178 18.7561C115.429 18.7561 115.643 18.9465 115.643 19.1902C115.643 19.434 115.429 19.6244 115.178 19.6244Z" fill="#999999"/>
<path d="M118.084 24.5299C116.957 24.5299 116.195 23.6844 116.195 22.3971C116.195 21.1098 116.957 20.2566 118.084 20.2566C119.204 20.2566 119.958 21.1098 119.958 22.3971C119.958 23.6844 119.204 24.5299 118.084 24.5299ZM118.084 23.951C118.914 23.951 119.303 23.2197 119.303 22.3971C119.303 21.5744 118.914 20.8356 118.084 20.8356C117.239 20.8356 116.85 21.5744 116.85 22.3971C116.85 23.2197 117.239 23.951 118.084 23.951Z" fill="#999999"/>
<path d="M121.318 21.9629V24.4461H120.663V20.31H121.295V20.9574H121.348C121.546 20.5385 121.927 20.2566 122.559 20.2566C123.397 20.2566 123.953 20.767 123.953 21.8182V24.4461H123.298V21.8639C123.298 21.224 122.948 20.8432 122.361 20.8432C121.76 20.8432 121.318 21.2469 121.318 21.9629Z" fill="#999999"/>
<path d="M128.95 21.384C128.859 21.0412 128.6 20.8127 128.113 20.8127C127.602 20.8127 127.237 21.0869 127.237 21.4373C127.237 21.7115 127.457 21.902 127.945 22.0162L128.562 22.1686C129.301 22.3438 129.666 22.7094 129.666 23.2883C129.666 24.0043 129.08 24.5299 128.044 24.5299C127.115 24.5299 126.559 24.1186 126.452 23.3645H127.138C127.214 23.7682 127.511 23.9586 128.029 23.9586C128.615 23.9586 128.989 23.7148 128.989 23.3264C128.989 23.0369 128.783 22.8389 128.311 22.7322L127.686 22.5875C126.962 22.4199 126.582 22.0238 126.582 21.4754C126.582 20.767 127.198 20.2566 128.113 20.2566C128.966 20.2566 129.507 20.7137 129.59 21.384H128.95Z" fill="#999999"/>
<path d="M130.783 26C130.638 26 130.501 25.9924 130.417 25.9848V25.3982C130.485 25.4059 130.638 25.4135 130.737 25.4135C131.003 25.4135 131.224 25.3906 131.445 24.7889L131.567 24.4766L130.036 20.31H130.752L131.879 23.593H131.925L133.052 20.31H133.768L132.017 25.0402C131.773 25.6877 131.369 26 130.783 26Z" fill="#999999"/>
<path d="M136.636 21.384C136.545 21.0412 136.286 20.8127 135.799 20.8127C135.288 20.8127 134.923 21.0869 134.923 21.4373C134.923 21.7115 135.144 21.902 135.631 22.0162L136.248 22.1686C136.987 22.3438 137.353 22.7094 137.353 23.2883C137.353 24.0043 136.766 24.5299 135.73 24.5299C134.801 24.5299 134.245 24.1186 134.138 23.3645H134.824C134.9 23.7682 135.197 23.9586 135.715 23.9586C136.301 23.9586 136.675 23.7148 136.675 23.3264C136.675 23.0369 136.469 22.8389 135.997 22.7322L135.372 22.5875C134.648 22.4199 134.268 22.0238 134.268 21.4754C134.268 20.767 134.885 20.2566 135.799 20.2566C136.652 20.2566 137.193 20.7137 137.276 21.384H136.636Z" fill="#999999"/>
<path d="M139.855 20.31V20.8584H138.987V23.2578C138.987 23.791 139.246 23.8748 139.527 23.8748C139.649 23.8748 139.817 23.8672 139.916 23.8596V24.469C139.817 24.4842 139.649 24.4994 139.459 24.4994C138.91 24.4994 138.324 24.1566 138.324 23.4254V20.8584H137.699V20.31H138.324V19.3197H138.987V20.31H139.855Z" fill="#999999"/>
<path d="M142.235 24.5299C141.04 24.5299 140.301 23.6844 140.301 22.4123C140.301 21.1402 141.047 20.2566 142.174 20.2566C143.043 20.2566 143.957 20.7898 143.957 22.3209V22.5951H140.956C140.986 23.4711 141.497 23.951 142.235 23.951C142.731 23.951 143.043 23.7377 143.195 23.4787H143.896C143.698 24.1033 143.089 24.5299 142.235 24.5299ZM140.963 22.0391H143.294C143.294 21.3459 142.852 20.8356 142.174 20.8356C141.458 20.8356 141.001 21.3992 140.963 22.0391Z" fill="#999999"/>
<path d="M144.654 24.4461V20.31H145.286V20.9574H145.34C145.515 20.5156 145.911 20.2566 146.452 20.2566C146.993 20.2566 147.358 20.5156 147.556 20.9574H147.602C147.815 20.5309 148.249 20.2566 148.843 20.2566C149.582 20.2566 150.108 20.7061 150.108 21.6811V24.4461H149.453V21.6887C149.453 21.0793 149.064 20.8432 148.615 20.8432C148.036 20.8432 147.709 21.2316 147.709 21.7572V24.4461H147.046V21.6201C147.046 21.1555 146.711 20.8432 146.238 20.8432C145.743 20.8432 145.309 21.2621 145.309 21.8639V24.4461H144.654Z" fill="#999999"/>
</g>
<defs>
<clipPath id="clip0_664_138926">
<rect width="151" height="26" fill="white"/>
</clipPath>
<clipPath id="clip1_664_138926">
<rect width="30.55" height="26" fill="white"/>
</clipPath>
</defs>
</svg>
