<svg width="106" height="30" viewBox="0 0 106 30" fill="none" xmlns="http://www.w3.org/2000/svg">
<path d="M30 15C30 23.2829 23.2829 30 15 30C6.7171 30 0 23.2829 0 15C0 6.71709 6.71709 0 15.005 0C23.2929 0 30.005 6.71709 30.005 15" fill="white"/>
<path d="M22.0363 13.9528C19.6526 12.3321 16.6007 12.9904 14.995 15.4289C13.6586 17.4634 11.639 17.7178 10.861 17.7178C8.30786 17.7178 6.5675 15.9225 6.04889 14.0675C6.04889 14.0675 6.03891 14.0326 6.03393 14.0126C6.02894 13.9927 6.02395 13.9727 6.01897 13.9478C5.81451 13.1699 5.76464 12.8059 5.76464 11.983C5.76464 7.54987 10.3175 2.60805 16.87 2.60805C23.4226 2.60805 27.4269 7.71942 28.4192 10.5618C28.3993 10.507 28.3843 10.4621 28.3694 10.4122C26.4644 4.85705 21.1935 0.862701 14.99 0.862701C7.18585 0.862701 0.857727 7.19083 0.857727 15C0.857727 21.9814 5.88931 27.9505 12.8757 27.9505C18.4408 27.9505 22.1858 24.8288 23.9013 20.5253C24.8438 18.1715 24.1756 15.4039 22.0412 13.9528" fill="#003668"/>
<path d="M28.509 10.8361C27.6812 8.0635 23.8115 2.60805 16.875 2.60805C10.3224 2.60805 5.76959 7.54987 5.76959 11.983C5.76959 12.8059 5.81946 13.1749 6.02392 13.9478C5.93915 13.6087 5.89426 13.2696 5.89426 12.9405C5.89426 8.31782 10.5169 5.12135 15.2742 5.12135C21.7121 5.12135 26.9332 10.3374 26.9332 16.7753C26.9332 21.8218 24.0309 26.1902 19.8121 28.2896C25.2526 26.3248 29.1323 21.1137 29.1323 14.995C29.1323 13.5489 28.9378 12.2723 28.5139 10.8361" fill="#E6002D"/>
<path d="M39.6792 9.01097V7.88397H41.4545V9.01097H43.9229V10.3973H36.9415V9.01097H39.6842H39.6792ZM43.6237 13.5588C43.6237 13.9478 43.5389 14.3118 43.3793 14.6559C43.2148 14.995 42.9954 15.2942 42.7161 15.5485C42.4369 15.8078 42.1177 16.0073 41.7537 16.1569C41.3897 16.3065 40.9957 16.3813 40.5768 16.3813C40.1579 16.3813 39.764 16.3065 39.4 16.1569C39.0359 16.0073 38.7118 15.8029 38.4375 15.5485C38.1583 15.2942 37.9389 14.995 37.7743 14.6559C37.6097 14.3168 37.53 13.9528 37.53 13.5588C37.53 13.1649 37.6097 12.8009 37.7743 12.4568C37.9389 12.1127 38.1583 11.8135 38.4375 11.5542C38.7168 11.2949 39.0359 11.0954 39.4 10.9458C39.764 10.7962 40.1579 10.7214 40.5768 10.7214C40.9957 10.7214 41.3897 10.7962 41.7537 10.9458C42.1177 11.0954 42.4369 11.2999 42.7161 11.5542C42.9954 11.8085 43.2148 12.1127 43.3793 12.4568C43.5439 12.8009 43.6237 13.1699 43.6237 13.5588ZM42.0679 13.5439C42.0679 13.1449 41.9232 12.7959 41.629 12.5017C41.3348 12.2074 40.9857 12.0628 40.5718 12.0628C40.158 12.0628 39.8089 12.2074 39.5246 12.5017C39.2354 12.7959 39.0908 13.14 39.0908 13.5439C39.0908 13.9478 39.2354 14.2869 39.5246 14.5761C39.8139 14.8654 40.1629 15.01 40.5718 15.01C40.9808 15.01 41.3348 14.8654 41.629 14.5761C41.9232 14.2869 42.0679 13.9428 42.0679 13.5439ZM47.9572 18.9844C47.9572 19.3933 47.8674 19.7822 47.6929 20.1463C47.5183 20.5103 47.2889 20.8344 46.9997 21.1087C46.7005 21.388 46.3564 21.6074 45.9674 21.7719C45.5785 21.9365 45.1596 22.0213 44.7208 22.0213C44.2819 22.0213 43.8581 21.9415 43.4641 21.7719C43.0702 21.6074 42.7211 21.388 42.4219 21.1087C42.1327 20.8295 41.9033 20.5103 41.7287 20.1463C41.5542 19.7822 41.4645 19.3933 41.4645 18.9844C41.4645 18.5755 41.5492 18.1815 41.7287 17.8125C41.9033 17.4435 42.1327 17.1193 42.4219 16.8401C42.7211 16.5608 43.0652 16.3414 43.4641 16.1769C43.8581 16.0123 44.277 15.9275 44.7208 15.9275C45.1646 15.9275 45.5785 16.0073 45.9674 16.1769C46.3564 16.3414 46.7005 16.5608 46.9997 16.8401C47.2889 17.1193 47.5183 17.4435 47.6929 17.8125C47.8674 18.1815 47.9572 18.5755 47.9572 18.9844ZM46.3215 18.9694C46.3215 18.5356 46.1619 18.1616 45.8428 17.8424C45.5236 17.5233 45.1447 17.3637 44.7008 17.3637C44.257 17.3637 43.883 17.5233 43.5688 17.8424C43.2547 18.1616 43.1001 18.5356 43.1001 18.9694C43.1001 19.4033 43.2547 19.7723 43.5688 20.0864C43.883 20.4006 44.262 20.5552 44.7008 20.5552C45.1397 20.5552 45.5236 20.4006 45.8428 20.0864C46.1619 19.7723 46.3215 19.3983 46.3215 18.9694ZM46.2916 15.5186H44.7507V8.18317H46.2916V11.0954H47.6629V8.16821H49.2637V15.7081H47.6629V12.6114H46.2916V15.5236V15.5186Z" fill="#595757"/>
<path d="M51.2085 9.97838V8.54221H58.9179V9.97838H55.6366L59.0575 14.1572L57.8857 15.1147L55.143 11.6938L52.4152 15.3491L51.1985 14.3617L54.6044 9.98337H51.2134L51.2085 9.97838ZM61.875 18.735C61.875 19.1888 61.7803 19.6127 61.5958 20.0066C61.4113 20.4006 61.1619 20.7497 60.8577 21.0489C60.5386 21.3481 60.1646 21.5824 59.7407 21.757C59.3168 21.9315 58.863 22.0213 58.3943 22.0213C57.9255 22.0213 57.4718 21.9315 57.0379 21.757C56.6041 21.5824 56.2301 21.3431 55.9109 21.0489C55.6017 20.7497 55.3574 20.4056 55.1729 20.0066C54.9884 19.6127 54.8936 19.1888 54.8936 18.735C54.8936 18.2812 54.9884 17.8574 55.1729 17.4534C55.3574 17.0545 55.6067 16.7054 55.9109 16.4062C56.2301 16.107 56.6041 15.8727 57.0379 15.6981C57.4718 15.5236 57.9206 15.4338 58.3943 15.4338C58.868 15.4338 59.3168 15.5186 59.7407 15.6981C60.1646 15.8777 60.5386 16.107 60.8577 16.4062C61.1669 16.7054 61.4113 17.0545 61.5958 17.4534C61.7803 17.8524 61.875 18.2812 61.875 18.735ZM60.2394 18.7201C60.2394 18.2164 60.0549 17.7826 59.6858 17.4185C59.3168 17.0545 58.878 16.87 58.3743 16.87C57.8707 16.87 57.4368 17.0545 57.0728 17.4185C56.7088 17.7826 56.5243 18.2164 56.5243 18.7201C56.5243 19.2237 56.7088 19.6576 57.0728 20.0166C57.4368 20.3757 57.8707 20.5552 58.3743 20.5552C58.878 20.5552 59.3168 20.3757 59.6858 20.0166C60.0549 19.6576 60.2394 19.2237 60.2394 18.7201ZM61.3514 15.2842V12.372H58.8531V10.9358H61.3514V8.16322H63.017V15.2842H61.3514Z" fill="#595757"/>
<path d="M72.6014 11.9232C72.6014 12.4269 72.5017 12.9006 72.3022 13.3394C72.1027 13.7832 71.8285 14.1722 71.4794 14.5113C71.1303 14.8404 70.7264 15.1047 70.2676 15.2992C69.8088 15.4937 69.3201 15.5934 68.7965 15.5934C68.2729 15.5934 67.7793 15.4937 67.3255 15.2992C66.8667 15.1047 66.4628 14.8404 66.1137 14.5113C65.7646 14.1722 65.4904 13.7832 65.2909 13.3394C65.0914 12.8956 64.9917 12.4219 64.9917 11.9232C64.9917 11.4245 65.0914 10.9458 65.2909 10.507C65.4904 10.0632 65.7646 9.67419 66.1137 9.33509C66.4628 9.00597 66.8667 8.74168 67.3255 8.5472C67.7842 8.35271 68.2729 8.25298 68.7965 8.25298C69.3201 8.25298 69.8088 8.35271 70.2676 8.5472C70.7264 8.74168 71.1303 9.00597 71.4794 9.33509C71.8285 9.67419 72.1027 10.0632 72.3022 10.507C72.5017 10.9508 72.6014 11.4245 72.6014 11.9232ZM67.5 16.8401V19.8471H76.5309V21.3281H65.8345V16.8401H67.5ZM71.0007 11.9382C71.0007 11.639 70.9408 11.3547 70.8212 11.0904C70.7015 10.8211 70.5469 10.5868 70.3524 10.3823C70.1479 10.1878 69.9136 10.0282 69.6493 9.91355C69.385 9.79387 69.1057 9.73403 68.8115 9.73403C68.5173 9.73403 68.2331 9.79387 67.9638 9.91355C67.6945 10.0332 67.4601 10.1878 67.2557 10.3823C67.0612 10.5868 66.9016 10.8261 66.7869 11.0904C66.6672 11.3597 66.6074 11.639 66.6074 11.9382C66.6074 12.2374 66.6672 12.5166 66.7869 12.7759C66.9066 13.0402 67.0612 13.2746 67.2557 13.479C67.4601 13.6735 67.6995 13.8331 67.9638 13.9478C68.2331 14.0675 68.5123 14.1273 68.8115 14.1273C69.1107 14.1273 69.39 14.0675 69.6493 13.9478C69.9086 13.8281 70.143 13.6735 70.3524 13.479C70.5469 13.2746 70.7065 13.0402 70.8212 12.7759C70.9408 12.5116 71.0007 12.2324 71.0007 11.9382ZM76.1968 16.7603H74.5312V8.15823H76.1968V11.0854H78.1217V12.736H76.1968V16.7603Z" fill="#595757"/>
<path d="M79.3235 9.97839V8.54222H87.033V9.97839H83.7667L87.1726 15.005L85.906 15.8527L83.2531 11.8135L80.6001 15.9624L79.3036 15.0997L82.6946 9.98338H79.3185L79.3235 9.97839ZM80.2461 21.3231V16.8351H81.9116V19.8421H91.2517V21.3231H80.2461ZM89.4665 16.7603V12.7959H86.9681V11.3148H89.4665V8.15326H91.132V16.7553H89.4665V16.7603Z" fill="#595757"/>
<path d="M93.4259 16.6556H105.758V18.1366H100.422V21.5874H98.7417V18.1366H93.4259V16.6556ZM96.0639 10.0881H103.125V8.39261H104.776V14.8504H94.4183V8.39261H96.0689V10.0881H96.0639ZM103.125 11.5392H96.0639V13.3893H103.125V11.5392Z" fill="#595757"/>
</svg>
