<?xml version="1.0" encoding="UTF-8"?>
<svg xmlns="http://www.w3.org/2000/svg" version="1.1" id="ic_agency_01" width="20px" height="20px" viewBox="0 0 20 20">
  <!-- Generator: Adobe Illustrator 28.7.2, SVG Export Plug-In . SVG Version: 1.2.0 Build 154)  -->
  <g>
    <g id="_레이어_1" data-name="레이어_1">
      <g id="_레이어_1-2" data-name="_레이어_1">
        <g id="_레이어_1-2">
          <g id="_레이어_1-2-2" data-name="_레이어_1-2">
            <g id="_x30_1_x5F_경찰서">
              <path d="M19.634,5.014l-7.95,3.288-.964-5.369s-.827-1.218-1.84.124c0,0-2.297.313-2.589,1.441,0,0,2.505-.232,2.546.354l-.665,3.315c-.481-.23-1.665-.636-2.415-.958-.753-.322-5.402-2.234-5.402-2.234,0,0-.431,2.33,1.242,2.455,0,0-.376.836.669,1.171,0,0-.084.92,1.129,1.087,0,0,.208.877,1.255,1.044,0,0,.777.674,1.895.746-.277.115-.7.336-.82.7-.184.556.395,1.275.395,1.275-.165.941.405,1.186.55,1.199-.118.108-.417.635.246,1.295,0,0-.056.921.417,1.267.471.348,1.334.024,1.334.024.877.466,1.305-.062,1.333-.171.028.109.455.637,1.334.171,0,0,.862.326,1.333-.024.471-.347.417-1.267.417-1.267.663-.661.363-1.187.245-1.295.146-.013.716-.258.552-1.199,0,0,.577-.719.395-1.275-.117-.349-.516-.572-.793-.689,1.302-.16,1.87-.714,1.87-.714,1.044-.167,1.255-1.045,1.255-1.045,1.212-.167,1.128-1.086,1.128-1.086,1.046-.334.67-1.171.67-1.171,1.672-.126,1.23-2.459,1.23-2.459h-.004s.003,0,.003,0ZM10,15.193c-.874,0-1.584-.709-1.584-1.584s.709-1.584,1.584-1.584,1.584.709,1.584,1.584-.709,1.584-1.584,1.584Z" fill="#315fd3"/>
            </g>
          </g>
        </g>
      </g>
    </g>
  </g>
</svg>