<?xml version="1.0" encoding="UTF-8"?>
<svg xmlns="http://www.w3.org/2000/svg" version="1.1" id="ic_agency_circle_02" width="20px" height="20px" viewBox="0 0 20 20">
  <!-- Generator: Adobe Illustrator 28.7.2, SVG Export Plug-In . SVG Version: 1.2.0 Build 154)  -->
  <g>
    <g id="_레이어_1" data-name="레이어_1">
      <g id="_x30_2_x5F_학교">
        <circle cx="10" cy="10" r="10" fill="#315fd3"/>
        <g id="_초중고">
          <path d="M14.715,10.227c-.002-.159-.085-.309-.221-.394l-4.11-2.566v-.652l3.084-1.056c.202-.09.294-.325.204-.528-.013-.03-.034-.053-.055-.077-.028-.058-.067-.111-.124-.15l-3.203-1.732c-.083-.057-.18-.074-.273-.063-.012,0-.022-.007-.035-.007-.221,0-.401.179-.401.401v3.887l-4.076,2.545c-.135.085-.219.235-.221.394l-.028,4.641c-.002.26.206.471.465.473.013,0,.024-.006.038-.006.012,0,.023.006.036.006h2.705v-2.489c0-.828.672-1.5,1.5-1.5s1.5.672,1.5,1.5v2.489h2.721c.009,0,.018-.004.026-.006.01.002.017.006.027.006h.003c.26-.002.469-.213.466-.473v-.053l-.028-4.588v-.002Z" fill="#fff"/>
        </g>
      </g>
    </g>
  </g>
</svg>