<?xml version="1.0" encoding="UTF-8"?>
<svg xmlns="http://www.w3.org/2000/svg" version="1.1" id="ic_agency_circle_06" width="20px" height="20px" viewBox="0 0 20 20">
  <!-- Generator: Adobe Illustrator 28.7.2, SVG Export Plug-In . SVG Version: 1.2.0 Build 154)  -->
  <g>
    <g id="_레이어_1" data-name="레이어_1">
      <g id="_x30_6_x5F_법원_x2F_병무">
        <circle cx="10" cy="10" r="10" fill="#315fd3"/>
        <path d="M15.459,13.055v-5.147c0-.458-.373-.832-.831-.832h-1.219c-.119-1.984-1.592-3.557-3.409-3.557s-3.29,1.573-3.409,3.557h-1.218c-.458,0-.832.373-.832.832v5.147h-1.291v1.199h13.5v-1.199h-1.291ZM7.118,13.055h-1.377v-4.778h1.377v4.778ZM9.45,13.055h-1.332v-4.778h1.332v4.778ZM11.886,13.055h-1.336v-4.778h1.336v4.778ZM14.26,13.055h-1.374v-4.778h1.374v4.778Z" fill="#fff"/>
      </g>
    </g>
  </g>
</svg>