<?xml version="1.0" encoding="UTF-8"?>
<svg xmlns="http://www.w3.org/2000/svg" version="1.1" id="ic_agency_04" width="20px" height="20px" viewBox="0 0 20 20">
  <!-- Generator: Adobe Illustrator 28.7.2, SVG Export Plug-In . SVG Version: 1.2.0 Build 154)  -->
  <g>
    <g id="_레이어_1" data-name="레이어_1">
      <path d="M16.329,14.542h-1.393v-6.493h1.474c.556,0,1.008-.451,1.008-1.008,0-.365-.198-.702-.518-.88l-6.899-3.834-6.9,3.834c-.319.178-.517.515-.517.88,0,.557.451,1.008,1.007,1.008h1.475v6.493h-1.394c-.601-.001-1.089.486-1.089,1.087v.008c0,.601.489,1.09,1.09,1.09h12.657c.6,0,1.089-.487,1.089-1.089v-.008c0-.6-.487-1.089-1.089-1.089ZM13.319,14.542h-2.512v-6.493h2.512v6.493ZM6.681,8.049h2.51v6.493h-2.51v-6.493Z" fill="#315fd3"/>
    </g>
  </g>
</svg>