<?xml version="1.0" encoding="UTF-8"?>
<svg xmlns="http://www.w3.org/2000/svg" version="1.1" id="ic_agency_07" width="20px" height="20px" viewBox="0 0 20 20">
  <!-- Generator: Adobe Illustrator 28.7.2, SVG Export Plug-In . SVG Version: 1.2.0 Build 154)  -->
  <g>
    <g id="_레이어_1" data-name="레이어_1">
      <g id="_레이어_1-2" data-name="_레이어_1">
        <path d="M15.57,8.623h-.931l.464-1.298c.188-.526-.085-1.104-.612-1.293-.526-.188-1.104.085-1.293.612l-1.329,3.717-.891-3.46c-.115-.447-.518-.759-.98-.759s-.865.312-.98.759l-.891,3.461-1.329-3.717c-.188-.526-.767-.8-1.293-.612s-.8.766-.612,1.293l.464,1.298h-.931c-.558,0-1.011.453-1.011,1.011s.453,1.011,1.011,1.011h1.654l1.252,3.5c.149.419.549.69.998.67.444-.021.822-.328.933-.758l.733-2.848.733,2.848c.111.43.489.738.933.758.016,0,.031,0,.046,0,.425,0,.808-.267.952-.671l1.252-3.5h1.655c.558,0,1.011-.453,1.011-1.011s-.453-1.011-1.011-1.011h.003,0Z" display="none" fill="#fff"/>
        <path d="M12.249,15.6c-.504-.024-.905-.35-1.023-.811l-.972-3.776c-.029-.116-.134-.196-.252-.196s-.223.081-.252.196l-.972,3.776c-.119.462-.52.789-.997.81h-.004c-.508,0-.907-.28-1.063-.714l-1.659-4.641c-.037-.103-.136-.173-.246-.173h-2.194c-.595,0-1.08-.484-1.08-1.08s.484-1.079,1.08-1.079h1.235c.084,0,.164-.041.213-.111s.061-.158.032-.238l-.615-1.72c-.2-.56.092-1.18.652-1.379.118-.042.24-.063.363-.063.454,0,.865.289,1.018.717l1.762,4.927c.037.103.137.173.246.173h.012c.113-.005.212-.084.24-.195l1.181-4.588c.123-.477.553-.81,1.046-.81s.923.334,1.046.81l1.181,4.588c.028.111.126.19.24.195h.011c.11,0,.208-.07.246-.173l1.762-4.927c.152-.428.563-.717,1.018-.717.123,0,.246.022.363.063.561.2.855.819.653,1.379l-.616,1.72c-.028.08-.017.168.032.238.049.07.127.111.212.111h1.235c.595,0,1.08.484,1.08,1.079s-.484,1.08-1.08,1.08h-2.193c-.111,0-.208.07-.246.173l-1.659,4.641c-.153.428-.563.716-1.017.716h-.024.006Z" fill="#315fd3"/>
      </g>
    </g>
  </g>
</svg>