<?xml version="1.0" encoding="UTF-8"?>
<svg xmlns="http://www.w3.org/2000/svg" version="1.1" id="ic_agency_circle_03" width="20px" height="20px" viewBox="0 0 20 20">
  <!-- Generator: Adobe Illustrator 28.7.2, SVG Export Plug-In . SVG Version: 1.2.0 Build 154)  -->
  <g>
    <g id="_레이어_1" data-name="레이어_1">
      <g id="_x30_3_x5F_우체국">
        <circle cx="10" cy="10" r="10" fill="#315fd3"/>
        <g>
          <path d="M2.608,9.691c-.033.015-.033.045-.003.065h0l2.747,1.814.787-3.703-3.531,1.823h0Z" fill="#fff"/>
          <path d="M17.389,7.867h-4.841l-.788,3.704h4.84c.036,0,.042-.016.013-.035l-2.753-1.814,3.537-1.824c.03-.017.027-.03-.008-.03h0Z" fill="#fff"/>
          <path d="M17.174,5.442H5.779c-.636,0-1.083.401-1.187.895-.058.271.045.515.255.68l4.094,2.702v-.002l.003.002,8.238-4.245c.03-.017.027-.031-.009-.031h.001Z" fill="#fff"/>
          <path d="M15.366,13.961h0l-6.421-4.242h-.002l-5.245,2.703c-.28.166-.485.407-.542.681-.105.493.169.893.805.893h11.397c.036,0,.039-.016.01-.034h-.002Z" fill="#fff"/>
        </g>
      </g>
    </g>
  </g>
</svg>