<?xml version="1.0" encoding="UTF-8"?>
<svg xmlns="http://www.w3.org/2000/svg" version="1.1" id="ic_agency_05" width="20px" height="20px" viewBox="0 0 20 20">
  <!-- Generator: Adobe Illustrator 28.7.2, SVG Export Plug-In . SVG Version: 1.2.0 Build 154)  -->
  <g>
    <g id="_레이어_1" data-name="레이어_1">
      <g id="_x30_5_x5F_보건소">
        <path d="M15.913,2.25H4.087c-1.014,0-1.837.822-1.837,1.837v11.827c0,1.014.822,1.837,1.837,1.837h11.827c1.014,0,1.837-.822,1.837-1.837V4.087c0-1.014-.822-1.837-1.837-1.837ZM15.071,11.135c0,.352-.285.637-.637.637h-2.228c-.24,0-.435.195-.435.435v2.229c0,.351-.285.636-.636.636h-2.28c-.35,0-.636-.286-.636-.636v-2.229c0-.24-.195-.435-.435-.435h-2.221c-.351,0-.636-.285-.636-.636v-2.28c0-.351.285-.636.636-.636h2.221c.24,0,.435-.195.435-.435v-2.222c0-.351.285-.636.636-.636h2.28c.352,0,.637.285.637.637v2.221c0,.24.195.435.435.435h2.228c.351,0,.636.285.636.636v2.279Z" fill="#315fd3"/>
      </g>
    </g>
  </g>
</svg>