<?xml version="1.0" encoding="UTF-8"?>
<svg xmlns="http://www.w3.org/2000/svg" version="1.1" id="ic_agency_03" width="20px" height="20px" viewBox="0 0 20.9 12.1">
  <!-- Generator: Adobe Illustrator 28.7.2, SVG Export Plug-In . SVG Version: 1.2.0 Build 154)  -->
  <g>
    <g id="_아이콘">
      <g id="_x31_6_x5F_우체통">
        <g>
          <path d="M.662,6.001h0l3.603,2.435,1.071-4.87L.662,6.001h0Z" fill="#315fd3"/>
          <path d="M20.238,3.664h-6.428l-1.071,4.87h6.428l-3.603-2.435,4.675-2.435h0Z" fill="#315fd3"/>
          <path d="M19.946.45H4.85c-.877,0-1.461.487-1.558,1.169,0,.39,0,.682.292.877l5.454,3.603h0L19.946.45h0Z" fill="#315fd3"/>
          <path d="M17.511,11.65h0l-8.473-5.649h0l-6.915,3.603c-.39.195-.682.584-.682.877-.097.682.195,1.169,1.071,1.169h15.096-.097Z" fill="#315fd3"/>
        </g>
      </g>
    </g>
  </g>
</svg>