<?xml version="1.0" encoding="UTF-8"?>
<svg xmlns="http://www.w3.org/2000/svg" version="1.1" id="ic_agency_circle_07" width="20px" height="20px" viewBox="0 0 20 20">
  <!-- Generator: Adobe Illustrator 28.7.2, SVG Export Plug-In . SVG Version: 1.2.0 Build 154)  -->
  <g>
    <g id="_레이어_1" data-name="레이어_1">
      <g id="_x30_7_x5F_관세_x2F_국세">
        <circle cx="10" cy="10" r="10" fill="#315fd3"/>
        <path d="M15.67,8.598h-.948l.472-1.321c.191-.535-.087-1.124-.623-1.316-.535-.191-1.124.087-1.316.623l-1.353,3.783-.907-3.522c-.117-.455-.527-.773-.997-.773s-.88.318-.997.773l-.907,3.523-1.353-3.783c-.191-.535-.781-.814-1.316-.623s-.814.78-.623,1.316l.472,1.321h-.948c-.568,0-1.029.461-1.029,1.029s.461,1.029,1.029,1.029h1.684l1.274,3.562c.152.426.559.702,1.016.682.452-.021.837-.334.95-.772l.746-2.899.746,2.899c.113.438.498.751.95.772.016,0,.032.001.047.001.433,0,.822-.272.969-.683l1.274-3.562h1.685c.568,0,1.029-.461,1.029-1.029s-.461-1.029-1.029-1.029h.003Z" display="none" fill="#fff"/>
        <path d="M11.846,15.001c-.414-.019-.743-.287-.84-.666l-.798-3.101c-.024-.095-.11-.161-.207-.161s-.183.066-.207.161l-.798,3.101c-.098.379-.427.648-.819.665h-.003c-.417,0-.745-.23-.873-.587l-1.363-3.812c-.031-.085-.111-.142-.202-.142h-1.802c-.489,0-.887-.398-.887-.887s.398-.886.887-.886h1.014c.069,0,.135-.034.175-.091.04-.057.05-.13.027-.195l-.505-1.413c-.165-.46.076-.969.536-1.133.097-.035.197-.052.298-.052.373,0,.71.237.836.589l1.447,4.047c.031.085.112.142.202.142h.01c.093-.004.174-.069.197-.16l.97-3.768c.101-.392.454-.665.859-.665s.758.274.859.665l.97,3.768c.023.091.103.156.197.16h.009c.09,0,.171-.057.202-.142l1.447-4.047c.125-.352.462-.589.836-.589.101,0,.202.018.298.052.461.165.702.673.537,1.133l-.506,1.413c-.023.065-.014.138.027.195.04.057.104.091.174.091h1.014c.489,0,.887.398.887.886s-.398.887-.887.887h-1.801c-.091,0-.171.057-.202.142l-1.363,3.812c-.126.352-.462.588-.835.588h-.019.002Z" fill="#fff"/>
      </g>
    </g>
  </g>
</svg>