<?xml version="1.0" encoding="UTF-8"?>
<svg xmlns="http://www.w3.org/2000/svg" version="1.1" id="ic_agency_02" width="20px" height="20px" viewBox="0 0 20 20">
  <!-- Generator: Adobe Illustrator 28.7.2, SVG Export Plug-In . SVG Version: 1.2.0 Build 154)  -->
  <g>
    <g id="_레이어_1" data-name="레이어_1">
      <g id="_레이어_1-2" data-name="_레이어_1">
        <g id="_x30_2_x5F_학교">
          <g id="_초중고">
            <path d="M16.114,11.367c-.003-.206-.11-.401-.287-.511l-5.329-3.327v-.845l3.998-1.369c.262-.117.381-.421.264-.685-.017-.039-.044-.069-.071-.1-.036-.075-.087-.144-.161-.194l-4.153-2.246c-.108-.074-.233-.096-.354-.082-.016,0-.029-.009-.045-.009-.287,0-.52.232-.52.52v5.039l-5.284,3.3c-.175.11-.284.305-.287.511l-.036,6.017c-.003.337.267.611.603.613.017,0,.031-.008.049-.008.016,0,.03.008.047.008h3.507v-3.227c0-1.073.871-1.945,1.945-1.945s1.945.871,1.945,1.945v3.227h3.528c.012,0,.023-.005.034-.008.013.003.022.008.035.008h.004c.337-.003.608-.276.604-.613v-.069l-.036-5.948s0-.003,0-.003Z" fill="#315fd3"/>
          </g>
        </g>
      </g>
    </g>
  </g>
</svg>