<?xml version="1.0" encoding="UTF-8"?>
<svg xmlns="http://www.w3.org/2000/svg" version="1.1" id="ic_agency_circle_04" width="20px" height="20px" viewBox="0 0 20 20">
  <!-- Generator: Adobe Illustrator 28.7.2, SVG Export Plug-In . SVG Version: 1.2.0 Build 154)  -->
  <g>
    <g id="_레이어_1" data-name="레이어_1">
      <g id="_x30_4_x5F_관공서">
        <circle cx="10" cy="10" r="10" fill="#315fd3"/>
        <g>
          <path d="M15.723,7.609h0c0,.43-.349.778-.778.778H5.054c-.429,0-.777-.348-.777-.778h0c0-.282.153-.542.399-.679l5.324-2.958,5.323,2.958c.247.137.4.397.4.679Z" fill="#fff"/>
          <path d="M5.116,13.397h9.767c.464,0,.84.377.84.84v.006c0,.464-.377.84-.84.84H5.117c-.464,0-.841-.377-.841-.841v-.006c0-.464.376-.84.84-.84h0Z" fill="#fff"/>
          <g>
            <path d="M6.816,14.102c-.345,0-.624-.278-.624-.623v-5.371c0-.345.279-.624.624-.624s.623.279.623.624v5.371c0,.345-.279.623-.623.623Z" fill="#fff"/>
            <path d="M10,14.102c-.345,0-.624-.278-.624-.623v-5.371c0-.345.279-.624.624-.624s.623.279.623.624v5.371c0,.345-.279.623-.623.623Z" fill="#fff"/>
            <path d="M13.185,14.102c-.345,0-.624-.278-.624-.623v-5.371c0-.345.279-.624.624-.624s.623.279.623.624v5.371c0,.345-.279.623-.623.623Z" fill="#fff"/>
          </g>
        </g>
      </g>
    </g>
  </g>
</svg>