<?xml version="1.0" encoding="UTF-8"?>
<svg xmlns="http://www.w3.org/2000/svg" version="1.1" id="ic_agency_circle_01" width="20px" height="20px" viewBox="0 0 20 20">
  <!-- Generator: Adobe Illustrator 28.7.2, SVG Export Plug-In . SVG Version: 1.2.0 Build 154)  -->
  <g>
    <g id="_레이어_1" data-name="레이어_1">
      <g id="_x30_1_x5F_경찰서">
        <circle cx="10" cy="10" r="10" fill="#315fd3"/>
        <path d="M17.495,6.104l-6.185,2.558-.75-4.177s-.653-1.158-1.431.097c0,0-1.787.243-2.014,1.121,0,0,1.949-.181,1.981.275l-.518,2.579c-.374-.179-1.295-.495-1.879-.745-.586-.251-4.203-1.738-4.203-1.738,0,0-.335,1.813.966,1.91,0,0-.293.65.52.911,0,0-.065.716.879.846,0,0,.162.683.976.812,0,0,.604.524,1.475.58-.216.089-.544.262-.638.544-.143.433.308.992.308.992-.128.732.315.923.428.933-.092.084-.324.494.192,1.008,0,0-.043.717.324.986.367.271,1.038.018,1.038.018.683.363,1.015-.048,1.037-.133.022.085.354.496,1.038.133,0,0,.671.253,1.037-.018.367-.27.324-.986.324-.986.516-.514.283-.924.191-1.008.113-.01.557-.201.429-.933,0,0,.449-.559.308-.992-.091-.272-.402-.445-.617-.536,1.013-.124,1.455-.555,1.455-.555.812-.13.976-.813.976-.813.943-.13.878-.845.878-.845.814-.26.521-.911.521-.911,1.301-.098.957-1.913.957-1.913h-.003ZM10,14.442c-.911,0-1.65-.739-1.65-1.65s.739-1.65,1.65-1.65,1.65.739,1.65,1.65-.739,1.65-1.65,1.65Z" fill="#fff"/>
      </g>
    </g>
  </g>
</svg>