<?xml version="1.0" encoding="UTF-8"?>
<svg xmlns="http://www.w3.org/2000/svg" version="1.1" id="ic_agency_circle_05" width="20px" height="20px" viewBox="0 0 20 20">
  <!-- Generator: Adobe Illustrator 28.7.2, SVG Export Plug-In . SVG Version: 1.2.0 Build 154)  -->
  <g>
    <g id="_레이어_1" data-name="레이어_1">
      <g id="_레이어_1-2" data-name="_레이어_1">
        <g id="_x30_5_x5F_보건소">
          <circle cx="10" cy="10" r="10" fill="#315fd3"/>
          <path d="M14.505,4.5H5.495c-.549,0-.995.445-.995.995v9.01c0,.549.445.995.995.995h9.01c.549,0,.995-.445.995-.995V5.495c0-.549-.445-.995-.995-.995ZM13.599,11.114c0,.08-.065.144-.144.144h-2.198v2.199c0,.079-.064.143-.143.143h-2.235c-.078,0-.143-.065-.143-.144v-2.198h-2.193c-.079,0-.143-.064-.143-.143v-2.235c0-.079.064-.143.143-.143h2.193v-2.194c0-.079.064-.143.143-.143h2.235c.08,0,.144.065.144.144v2.193h2.198c.079,0,.143.064.143.143v2.234Z" fill="#fff"/>
        </g>
      </g>
    </g>
  </g>
</svg>