<svg width="14" height="14" viewBox="0 0 14 14" fill="none" xmlns="http://www.w3.org/2000/svg">
<path d="M2.28585 2.71429C2.05853 2.71429 1.84051 2.8046 1.67976 2.96535C1.51902 3.12609 1.42871 3.34411 1.42871 3.57144V11.7143C1.42871 11.9416 1.51902 12.1596 1.67976 12.3204C1.84051 12.4811 2.05853 12.5714 2.28585 12.5714H11.7144C11.9418 12.5714 12.1598 12.4811 12.3205 12.3204C12.4813 12.1596 12.5716 11.9416 12.5716 11.7143V3.57144C12.5716 3.34411 12.4813 3.12609 12.3205 2.96535C12.1598 2.8046 11.9418 2.71429 11.7144 2.71429H10.0001" stroke="#111111" stroke-linecap="round" stroke-linejoin="round"/>
<path d="M1.42871 5.71429H12.5716" stroke="#111111" stroke-linecap="round" stroke-linejoin="round"/>
<path d="M4 1.42856V3.99999" stroke="#111111" stroke-linecap="round" stroke-linejoin="round"/>
<path d="M10 1.42856V3.99999" stroke="#111111" stroke-linecap="round" stroke-linejoin="round"/>
<path d="M4 2.71429H8.28571" stroke="#111111" stroke-linecap="round" stroke-linejoin="round"/>
</svg>
