<?xml version="1.0" encoding="UTF-8"?>
<svg id="_레이어_1" data-name="레이어_1" xmlns="http://www.w3.org/2000/svg" version="1.1" xmlns:xlink="http://www.w3.org/1999/xlink" viewBox="0 0 32.9 31.842">
  <!-- Generator: Adobe Illustrator 29.1.0, SVG Export Plug-In . SVG Version: 2.1.0 Build 142)  -->
  <defs>
    <style>
      .st0 {
        fill: #fff;
      }

      .st1 {
        fill: none;
      }

      .st2 {
        fill: #bbccf9;
      }

      .st3 {
        fill: url(#_무제_그라디언트_2);
      }

      .st4 {
        fill: url(#_무제_그라디언트_4);
      }

      .st5 {
        clip-path: url(#clippath);
      }

      .st6 {
        fill: #7196ff;
      }
    </style>
    <linearGradient id="_무제_그라디언트_4" data-name="무제 그라디언트 4" x1="6.736" y1="10.841" x2="22.25" y2="10.841" gradientUnits="userSpaceOnUse">
      <stop offset=".163" stop-color="#3948ad"/>
      <stop offset="1" stop-color="#3b73e0"/>
    </linearGradient>
    <clipPath id="clippath">
      <path class="st1" d="M22.226,25.093c-1.516-1.516-1.516-3.983,0-5.499.758-.759,1.754-1.138,2.75-1.138s1.991.379,2.749,1.138c1.516,1.516,1.516,3.983,0,5.499-.758.758-1.754,1.137-2.749,1.137s-1.992-.379-2.75-1.137M20.538,17.906c-2.447,2.447-2.447,6.428,0,8.874,1.223,1.224,2.83,1.836,4.438,1.836,1.19,0,2.378-.34,3.412-1.011l2.663,2.663,1.849-1.85-2.663-2.662c1.578-2.431,1.305-5.721-.824-7.85-1.224-1.224-2.831-1.836-4.438-1.836s-3.213.612-4.437,1.836"/>
    </clipPath>
    <linearGradient id="_무제_그라디언트_2" data-name="무제 그라디언트 2" x1=".209" y1="31.953" x2="1.209" y2="31.953" gradientTransform="translate(15.733 476.821) scale(14.197 -14.197)" gradientUnits="userSpaceOnUse">
      <stop offset="0" stop-color="#3948ad"/>
      <stop offset=".098" stop-color="#3948ad"/>
      <stop offset="1" stop-color="#3b73e0"/>
    </linearGradient>
  </defs>
  <g>
    <path class="st6" d="M13.809,31.684L.873,25.355c-1.164-.569-1.164-2.228,0-2.798l12.936-6.329c.432-.211.937-.211,1.369,0l12.936,6.329c1.164.569,1.164,2.228,0,2.798l-12.936,6.329c-.432.211-.937.211-1.369,0Z"/>
    <path class="st2" d="M13.809,26.961L.873,20.632c-1.164-.569-1.164-2.228,0-2.798l12.936-6.329c.432-.211.937-.211,1.369,0l12.936,6.329c1.164.569,1.164,2.228,0,2.798l-12.936,6.329c-.432.211-.937.211-1.369,0Z"/>
    <g>
      <g>
        <path class="st4" d="M13.813,20.05c-.181-.168-4.455-4.156-6.244-7.799-.09-.179-.179-.371-.259-.567-.392-.991-.574-1.95-.574-2.928,0-4.277,3.479-7.757,7.757-7.757s7.757,3.479,7.757,7.757c0,.981-.183,1.941-.544,2.852l-.039.097c-.07.175-.159.369-.257.56-1.781,3.629-6.056,7.617-6.237,7.785l-.68.631-.68-.631Z"/>
        <path class="st0" d="M14.493,2c3.732,0,6.757,3.025,6.757,6.757,0,.877-.169,1.715-.473,2.484h.002c-.009.022-.019.044-.028.066-.07.171-.147.339-.23.503-1.728,3.518-6.027,7.507-6.027,7.507,0,0-4.299-3.988-6.027-7.507-.083-.164-.16-.332-.23-.503-.009-.022-.019-.044-.028-.066h.002c-.304-.769-.473-1.607-.473-2.484,0-3.732,3.025-6.757,6.757-6.757M14.493,0C9.665,0,5.737,3.928,5.737,8.757c0,.162.004.323.013.484h-.532l1.143,2.765.005.013.022.052c.088.215.188.433.296.646,1.858,3.783,6.263,7.894,6.45,8.067l1.36,1.262,1.36-1.262c.187-.173,4.592-4.284,6.461-8.091.096-.189.196-.407.287-.629l.025-.058,1.142-2.764h-.532c.009-.161.013-.322.013-.484C23.25,3.928,19.322,0,14.493,0h0Z"/>
      </g>
      <circle class="st0" cx="14.493" cy="8.757" r="2.636"/>
    </g>
  </g>
  <circle class="st0" cx="25.003" cy="22.451" r="4.114"/>
  <g class="st5">
    <rect class="st3" x="18.091" y="16.07" width="14.809" height="14.198"/>
  </g>
</svg>