<?xml version="1.0" encoding="UTF-8"?>
<svg xmlns="http://www.w3.org/2000/svg" version="1.1" xmlns:xlink="http://www.w3.org/1999/xlink" viewBox="0 0 23.83 24.16">
  <defs>
    <style>
      .cls-1 {
        fill: #ccdeff;
      }

      .cls-2 {
        fill: url(#_무제_그라디언트_2);
      }
    </style>
    <linearGradient id="_무제_그라디언트_2" data-name="무제 그라디언트 2" x1="0" y1="12.03" x2="23.83" y2="12.03" gradientUnits="userSpaceOnUse">
      <stop offset=".02" stop-color="#3948ad"/>
      <stop offset=".91" stop-color="#3b73e0"/>
    </linearGradient>
  </defs>
  <!-- Generator: Adobe Illustrator 28.7.2, SVG Export Plug-In . SVG Version: 1.2.0 Build 154)  -->
  <g>
    <g id="conts">
      <path class="cls-2" d="M22.7,0H1.14C.51,0,0,.51,0,1.14v16.89c0,.63.51,1.14,1.14,1.14h7.61c.33,0,.65.14.86.4l3.53,4.11c.69.8,2,.31,2-.74v-2.63c0-.63.51-1.14,1.14-1.14h6.42c.63,0,1.14-.51,1.14-1.14V1.14c0-.63-.51-1.14-1.14-1.14Z"/>
      <g>
        <circle class="cls-1" cx="6.37" cy="9.63" r="1.86"/>
        <circle class="cls-1" cx="11.92" cy="9.63" r="1.86"/>
        <circle class="cls-1" cx="17.47" cy="9.63" r="1.86"/>
      </g>
    </g>
  </g>
</svg>