<?xml version="1.0" encoding="UTF-8"?>
<svg xmlns="http://www.w3.org/2000/svg" version="1.1" xmlns:xlink="http://www.w3.org/1999/xlink" viewBox="0 0 24.67 24">
  <defs>
    <style>
      .cls-1 {
        fill: #fff;
      }

      .cls-2 {
        fill: #aec3f1;
      }

      .cls-3 {
        display: none;
      }

      .cls-4 {
        fill: url(#_무제_그라디언트_20);
      }
    </style>
    <linearGradient id="_무제_그라디언트_20" data-name="무제 그라디언트 20" x1="18.47" y1="12" x2=".87" y2="12" gradientUnits="userSpaceOnUse">
      <stop offset=".05" stop-color="#3b73e0"/>
      <stop offset=".38" stop-color="#3a66d1"/>
      <stop offset=".99" stop-color="#3948ad"/>
    </linearGradient>
  </defs>
  <!-- Generator: Adobe Illustrator 28.7.2, SVG Export Plug-In . SVG Version: 1.2.0 Build 154)  -->
  <g>
    <g id="conts">
      <g>
        <circle class="cls-2" cx="19.68" cy="12" r="5"/>
        <path class="cls-4" d="M4.84,7.76H1.36c-.75,0-1.36.61-1.36,1.36v5.76c0,.75.61,1.36,1.36,1.36h3.48c.27,0,.53.08.75.22l11.13,7.31c.91.59,2.11-.05,2.11-1.14V1.36c0-1.08-1.2-1.73-2.11-1.14L5.59,7.53c-.22.15-.48.22-.75.22Z"/>
        <g class="cls-3">
          <rect class="cls-1" x="13.83" y="8.76" width="2.12" height="5.91"/>
          <rect class="cls-1" x="13.83" y="16.09" width="2.12" height="2.29"/>
        </g>
      </g>
    </g>
  </g>
</svg>