<?xml version="1.0" encoding="UTF-8"?>
<svg xmlns="http://www.w3.org/2000/svg" version="1.1" xmlns:xlink="http://www.w3.org/1999/xlink" viewBox="0 0 26.83 26">
  <defs>
    <style>
      .cls-1 {
        fill: #fff;
      }

      .cls-2 {
        fill: url(#_무제_그라디언트_4-2);
      }

      .cls-3 {
        fill: #bbccf9;
      }

      .cls-4 {
        fill: url(#_무제_그라디언트_4);
      }

      .cls-5 {
        fill: #7196ff;
      }
    </style>
    <linearGradient id="_무제_그라디언트_4" data-name="무제 그라디언트 4" x1="0" y1="1.92" x2="26.83" y2="1.92" gradientUnits="userSpaceOnUse">
      <stop offset=".1" stop-color="#3948ad"/>
      <stop offset="1" stop-color="#3b73e0"/>
    </linearGradient>
    <linearGradient id="_무제_그라디언트_4-2" data-name="무제 그라디언트 4" x1="7.21" y1="12.03" x2="19.21" y2="12.03" xlink:href="#_무제_그라디언트_4"/>
  </defs>
  <!-- Generator: Adobe Illustrator 28.7.2, SVG Export Plug-In . SVG Version: 1.2.0 Build 154)  -->
  <g>
    <g id="conts">
      <g>
        <rect class="cls-3" x="1.76" y="1.92" width="23.3" height="24.08" rx="1.98" ry="1.98"/>
        <rect class="cls-4" x="0" y="0" width="26.83" height="3.85" rx="1.92" ry="1.92"/>
        <g>
          <g>
            <circle class="cls-2" cx="13.21" cy="12.03" r="6"/>
            <path class="cls-1" d="M13.21,6.03v6l2.93,5.23c1.83-1.03,3.07-2.99,3.07-5.23,0-3.31-2.69-6-6-6Z"/>
            <path class="cls-5" d="M13.21,6.03v6l5.72,1.81c.18-.57.28-1.18.28-1.81,0-3.31-2.69-6-6-6Z"/>
          </g>
          <g>
            <rect class="cls-5" x="11.58" y="20.78" width="8.31" height="1.75"/>
            <rect class="cls-5" x="6.94" y="20.78" width="2.94" height="1.75"/>
          </g>
        </g>
      </g>
    </g>
  </g>
</svg>