<?xml version="1.0" encoding="UTF-8"?>
<svg xmlns="http://www.w3.org/2000/svg" version="1.1" xmlns:xlink="http://www.w3.org/1999/xlink" viewBox="0 0 26.46 25.42">
  <defs>
    <style>
      .cls-1 {
        fill: #bbccf9;
      }

      .cls-2 {
        fill: url(#_무제_그라디언트_4);
      }

      .cls-3 {
        fill: #7196ff;
      }
    </style>
    <linearGradient id="_무제_그라디언트_4" data-name="무제 그라디언트 4" x1="2.45" y1="13.73" x2="24.02" y2="13.73" gradientUnits="userSpaceOnUse">
      <stop offset=".1" stop-color="#3948ad"/>
      <stop offset="1" stop-color="#3b73e0"/>
    </linearGradient>
  </defs>
  <!-- Generator: Adobe Illustrator 28.7.2, SVG Export Plug-In . SVG Version: 1.2.0 Build 154)  -->
  <g>
    <g id="conts">
      <g>
        <g>
          <rect class="cls-3" x="19.56" y="1.16" width="4.28" height="10.3" rx="2.14" ry="2.14"/>
          <path class="cls-2" d="M23.61,10.83L14.04,2.34c-.46-.41-1.15-.41-1.61,0L2.86,10.83c-.26.23-.41.56-.41.91v12.47c0,.67.54,1.22,1.22,1.22h5.45c.17,0,.31-.14.31-.31v-5.98c0-2.1,1.7-3.81,3.81-3.81h0c2.1,0,3.81,1.7,3.81,3.81v5.98c0,.17.14.31.31.31h5.45c.67,0,1.22-.54,1.22-1.22v-12.47c0-.35-.15-.68-.41-.91Z"/>
        </g>
        <path class="cls-1" d="M23.62,12.78L14.36,4.56c-.65-.57-1.62-.57-2.27,0L2.84,12.78c-.71.63-1.78.56-2.41-.14h0c-.63-.71-.56-1.78.14-2.41L11.61.43c.31-.28.72-.43,1.13-.43h.97c.42,0,.82.15,1.13.43l11.04,9.8c.71.63.77,1.7.14,2.41h0c-.63.71-1.7.77-2.41.14Z"/>
      </g>
    </g>
  </g>
</svg>