<?xml version="1.0" encoding="UTF-8"?>
<svg xmlns="http://www.w3.org/2000/svg" version="1.1" xmlns:xlink="http://www.w3.org/1999/xlink" viewBox="0 0 27.71 26.55">
  <defs>
    <style>
      .cls-1 {
        fill: #fff;
      }

      .cls-2 {
        fill: url(#_무제_그라디언트_4-2);
      }

      .cls-3 {
        fill: #bbccf9;
      }

      .cls-4 {
        fill: url(#_무제_그라디언트_4);
      }
    </style>
    <linearGradient id="_무제_그라디언트_4" data-name="무제 그라디언트 4" x1="0" y1="3.34" x2="24.11" y2="3.34" gradientUnits="userSpaceOnUse">
      <stop offset=".1" stop-color="#3948ad"/>
      <stop offset="1" stop-color="#3b73e0"/>
    </linearGradient>
    <linearGradient id="_무제_그라디언트_4-2" data-name="무제 그라디언트 4" x1="13.51" y1="19.46" x2="27.71" y2="19.46" xlink:href="#_무제_그라디언트_4"/>
  </defs>
  <!-- Generator: Adobe Illustrator 28.7.2, SVG Export Plug-In . SVG Version: 1.2.0 Build 154)  -->
  <g>
    <g id="conts">
      <g>
        <g>
          <rect class="cls-3" width="24.11" height="24" rx="1.88" ry="1.88"/>
          <rect class="cls-4" width="24.11" height="6.69" rx=".67" ry=".67"/>
          <g>
            <path class="cls-1" d="M17.52,12.93H4.98c-.73,0-1.32-.54-1.32-1.21h0c0-.67.59-1.21,1.32-1.21h12.55c.73,0,1.32.54,1.32,1.21h0c0,.67-.59,1.21-1.32,1.21Z"/>
            <path class="cls-1" d="M11,17.51h-6.06c-.7,0-1.28-.54-1.28-1.21h0c0-.67.57-1.21,1.28-1.21h6.06c.7,0,1.28.54,1.28,1.21h0c0,.67-.57,1.21-1.28,1.21Z"/>
          </g>
        </g>
        <g>
          <circle class="cls-1" cx="19.48" cy="18.63" r="4.76"/>
          <path class="cls-2" d="M27.71,24.7l-2.66-2.66c1.58-2.43,1.3-5.72-.82-7.85-2.45-2.45-6.43-2.45-8.88,0-2.45,2.45-2.45,6.43,0,8.88,1.22,1.22,2.83,1.84,4.44,1.84,1.19,0,2.38-.34,3.41-1.01l2.66,2.66,1.85-1.85ZM17.04,21.38c-1.52-1.52-1.52-3.98,0-5.5.76-.76,1.75-1.14,2.75-1.14s1.99.38,2.75,1.14c1.52,1.52,1.52,3.98,0,5.5-1.52,1.52-3.98,1.52-5.5,0Z"/>
        </g>
      </g>
    </g>
  </g>
</svg>