<?xml version="1.0" encoding="UTF-8"?>
<svg id="_레이어_1" xmlns="http://www.w3.org/2000/svg" version="1.1" xmlns:xlink="http://www.w3.org/1999/xlink" viewBox="0 0 28 30.8">
  <!-- Generator: Adobe Illustrator 29.1.0, SVG Export Plug-In . SVG Version: 2.1.0 Build 142)  -->
  <defs>
    <style>
      .st0 {
        fill: url(#_무제_그라디언트);
      }

      .st1 {
        fill: #fff;
      }

      .st2 {
        fill: url(#_무제_그라디언트1);
      }

      .st3 {
        fill: url(#_무제_그라디언트_2);
      }

      .st4 {
        fill: #7196ff;
        isolation: isolate;
        opacity: .6;
      }
    </style>
    <linearGradient id="_무제_그라디언트_2" data-name="무제 그라디언트 2" x1="6.5" y1="21.6" x2="21.5" y2="21.6" gradientTransform="translate(0 32) scale(1 -1)" gradientUnits="userSpaceOnUse">
      <stop offset=".2" stop-color="#3948ad"/>
      <stop offset="1" stop-color="#3b73e0"/>
    </linearGradient>
    <linearGradient id="_무제_그라디언트" data-name="무제 그라디언트" x1="0" y1="6.1" x2="28" y2="6.1" gradientTransform="translate(0 32) scale(1 -1)" gradientUnits="userSpaceOnUse">
      <stop offset=".1" stop-color="#3948ad"/>
      <stop offset="1" stop-color="#3b73e0"/>
    </linearGradient>
    <linearGradient id="_무제_그라디언트1" data-name="무제 그라디언트" x1="0" y1="10.2" x2="28" y2="10.2" xlink:href="#_무제_그라디언트"/>
  </defs>
  <path class="st3" d="M14,2c-3.6,0-6.5,2.9-6.5,6.5s.2,1.7.5,2.4h0s0,0,0,0c0,.2.1.3.2.5,1.7,3.4,5.8,7.2,5.8,7.2,0,0,4.2-3.9,5.8-7.2,0-.2.2-.3.2-.5,0,0,0,0,0,0h0c.3-.7.5-1.6.5-2.4,0-3.6-2.9-6.5-6.5-6.5ZM14,11.1c-1.4,0-2.5-1.1-2.5-2.5s1.1-2.5,2.5-2.5,2.5,1.1,2.5,2.5-1.1,2.5-2.5,2.5Z"/>
  <g>
    <path class="st0" d="M27.2,21.9l-1.9-.9-10.6,5.2c-.4.2-.9.2-1.3,0h0s-10.6-5.2-10.6-5.2l-1.9.9c-1.1.5-1.1,2.2,0,2.7l12.5,6.1c.4.2.9.2,1.3,0l12.5-6.1c1.1-.5,1.1-2.2,0-2.7Z"/>
    <path class="st4" d="M7.4,14.1l-6.5,3.2c-1.1.5-1.1,2.2,0,2.7l1.9.9,7.2-3.5c-.9-1-1.8-2.1-2.6-3.3Z"/>
    <path class="st4" d="M25.2,20.9l1.9-.9c1.1-.5,1.1-2.2,0-2.7l-6.5-3.2c-.8,1.2-1.7,2.3-2.6,3.3l7.2,3.5Z"/>
    <path class="st2" d="M13.3,26.1c.4.2.9.2,1.3,0l10.6-5.2-7.2-3.5c-1.4,1.6-2.6,2.7-2.7,2.8l-1.4,1.3-1.4-1.3c0,0-1.3-1.2-2.7-2.8l-7.2,3.5,10.6,5.2h0Z"/>
    <path class="st4" d="M13.3,26.1c.4.2.9.2,1.3,0l10.6-5.2-7.2-3.5c-1.4,1.6-2.6,2.7-2.7,2.8l-1.4,1.3-1.4-1.3c0,0-1.3-1.2-2.7-2.8l-7.2,3.5,10.6,5.2h0Z"/>
  </g>
  <path class="st1" d="M14,6c-1.4,0-2.5,1.1-2.5,2.5s1.1,2.5,2.5,2.5,2.5-1.1,2.5-2.5-1.1-2.5-2.5-2.5Z"/>
</svg>