<?xml version="1.0" encoding="UTF-8"?>
<svg xmlns="http://www.w3.org/2000/svg" version="1.1" xmlns:xlink="http://www.w3.org/1999/xlink" viewBox="0 0 32.85 27.5">
  <defs>
    <style>
      .cls-1 {
        fill: #bbccf9;
      }

      .cls-2 {
        fill: url(#_무제_그라디언트_2);
      }

      .cls-3 {
        fill: url(#_무제_그라디언트_2-2);
      }

      .cls-4 {
        fill: #7196ff;
      }
    </style>
    <linearGradient id="_무제_그라디언트_2" data-name="무제 그라디언트 2" x1="6.93" y1="11.55" x2="25.48" y2="11.55" gradientUnits="userSpaceOnUse">
      <stop offset=".14" stop-color="#3948ad"/>
      <stop offset="1" stop-color="#3b73e0"/>
    </linearGradient>
    <linearGradient id="_무제_그라디언트_2-2" data-name="무제 그라디언트 2" x1="5.02" y1="22.79" x2="27.46" y2="22.79" xlink:href="#_무제_그라디언트_2"/>
  </defs>
  <!-- Generator: Adobe Illustrator 28.7.2, SVG Export Plug-In . SVG Version: 1.2.0 Build 154)  -->
  <g>
    <g id="icon">
      <g>
        <path class="cls-2" d="M16.83.19s-.02-.01-.04-.02c0,0-.01-.01-.02-.02-.02-.01-.04-.01-.05-.02-.09-.05-.18-.08-.27-.11-.03,0-.06-.02-.1-.02-.12-.02-.23-.02-.35,0-.01,0-.02.01-.04.01-.08.02-.15.04-.22.08-.02.01-.04.03-.06.05-.03.02-.05.04-.08.06-.09.07-.16.14-.22.23,0,.01-.02.02-.03.03L7.09,13.4c-.17.26-.21.59-.11.88.1.3.33.53.62.64l7.07,2.58v4.05c0,.85.69,1.54,1.54,1.54s1.54-.69,1.54-1.54v-4.32l6.39,1.93c.1.03.2.04.3.04.21,0,.43-.07.6-.2.26-.19.42-.49.42-.81.06-3.29-2.42-13.47-8.65-18.01ZM17.77,15.09V3.87c3.29,3.81,5.14,9.63,5.56,12.9l-5.56-1.68Z"/>
        <path class="cls-3" d="M27.3,19.76c-.19-.3-.52-.48-.87-.48H6.05c-.36,0-.69.18-.87.49-.19.3-.2.68-.04,1l2.41,4.8c.25.51.87.71,1.38.46.36-.18.55-.54.56-.91l13.49.15c0,.38.2.75.57.93.15.07.3.11.45.11.38,0,.74-.21.92-.57l2.45-4.97c.16-.32.14-.7-.05-1Z"/>
        <path class="cls-4" d="M24.71,27.5c-1.08,0-2.15-.3-3.09-.86-.69-.41-1.51-.41-2.19,0-1.88,1.12-4.3,1.12-6.19,0-.68-.41-1.5-.41-2.19,0-1.88,1.12-4.3,1.12-6.19,0-.69-.41-1.51-.42-2.17-.01-.3.18-.61.33-.93.46-.66.26-1.41-.07-1.66-.73-.26-.66.07-1.41.73-1.66.19-.08.37-.17.55-.27,1.47-.88,3.31-.88,4.8.01,1.1.66,2.46.66,3.56,0,1.49-.88,3.33-.88,4.82,0,1.11.66,2.46.66,3.56,0,1.49-.88,3.33-.88,4.82,0,1.12.67,2.49.66,3.61-.02,1.44-.89,3.27-.88,4.76.01.22.13.45.24.69.32.67.23,1.03.96.8,1.63-.23.67-.96,1.03-1.63.8-.41-.14-.81-.33-1.18-.55-.67-.41-1.46-.41-2.09-.03-.96.59-2.06.9-3.17.9Z"/>
      </g>
      <path class="cls-1" d="M17.77,15.09V3.87c3.29,3.81,5.14,9.63,5.56,12.9l-5.56-1.68Z"/>
    </g>
  </g>
</svg>