<?xml version="1.0" encoding="UTF-8"?>
<svg id="icon" xmlns="http://www.w3.org/2000/svg" version="1.1" xmlns:xlink="http://www.w3.org/1999/xlink" viewBox="0 0 32.9 27.5">
  <!-- Generator: Adobe Illustrator 29.1.0, SVG Export Plug-In . SVG Version: 2.1.0 Build 142)  -->
  <defs>
    <style>
      .st0 {
        fill: url(#_무제_그라디언트);
      }

      .st1 {
        fill: url(#_무제_그라디언트_81);
      }

      .st2 {
        fill: #bbccf9;
      }

      .st3 {
        fill: url(#_무제_그라디언트_8);
      }

      .st4 {
        fill: url(#_무제_그라디언트_2);
      }

      .st5 {
        fill: #7896d2;
      }

      .st6 {
        fill: url(#_무제_그라디언트_82);
      }

      .st7 {
        display: none;
      }

      .st8 {
        fill: url(#_무제_그라디언트_9);
      }

      .st9 {
        fill: #7196ff;
      }
    </style>
    <linearGradient id="_무제_그라디언트" data-name="무제 그라디언트" x1="7.2" y1="16.2" x2="27" y2="16.2" gradientTransform="translate(0 30) scale(1 -1)" gradientUnits="userSpaceOnUse">
      <stop offset="0" stop-color="#3948ad"/>
      <stop offset="1" stop-color="#3b73e0"/>
    </linearGradient>
    <linearGradient id="_무제_그라디언트_2" data-name="무제 그라디언트 2" x1="5.6" y1="17.6" x2="30.5" y2="17.6" gradientTransform="translate(0 30) scale(1 -1)" gradientUnits="userSpaceOnUse">
      <stop offset="0" stop-color="#3948ad"/>
      <stop offset="1" stop-color="#3b73e0"/>
    </linearGradient>
    <linearGradient id="_무제_그라디언트_8" data-name="무제 그라디언트 8" x1="16" y1="7.6" x2="18.1" y2="7.6" gradientUnits="userSpaceOnUse">
      <stop offset="0" stop-color="#3948ad"/>
      <stop offset="1" stop-color="#3b73e0"/>
    </linearGradient>
    <linearGradient id="_무제_그라디언트_81" data-name="무제 그라디언트 8" y1="13.7" y2="13.7" xlink:href="#_무제_그라디언트_8"/>
    <linearGradient id="_무제_그라디언트_82" data-name="무제 그라디언트 8" y1="19.9" y2="19.9" xlink:href="#_무제_그라디언트_8"/>
    <linearGradient id="_무제_그라디언트_9" data-name="무제 그라디언트 9" x1="25.2" y1="17.7" x2="31.5" y2="11.2" gradientTransform="translate(0 30) scale(1 -1)" gradientUnits="userSpaceOnUse">
      <stop offset="0" stop-color="#3948ad"/>
      <stop offset=".1" stop-color="#3951b8"/>
      <stop offset=".4" stop-color="#3a64ce"/>
      <stop offset=".7" stop-color="#3a6fdb"/>
      <stop offset=".9" stop-color="#3b73e0"/>
    </linearGradient>
  </defs>
  <g>
    <path class="st9" d="M1.1,8.4c.1,0,.3,0,.4,0l.7-.3c.4-.1.7-.2,1.1-.2.6,0,1.2.2,1.7.5.9.6,1.9.9,2.9.9s.6,0,.9,0c.3,0,.5-.1.8-.2l1.1-.4c.3,0,.5-.3.6-.5.1-.3.1-.6,0-.8-.1-.4-.6-.7-1-.7s-.2,0-.3,0l-1.1.4c-.3.1-.7.2-1,.2-.6,0-1.2-.2-1.7-.5-.9-.6-1.9-.9-2.9-.9h0c-.6,0-1.3.1-1.9.3l-.7.3c-.3.1-.5.3-.6.6s-.1.6,0,.8c.2.4.6.7,1,.7Z"/>
    <path class="st9" d="M1.2,12.6c.1,0,.3,0,.4,0l.7-.3c.4-.1.7-.2,1.1-.2.6,0,1.2.2,1.7.5.9.6,1.9.9,2.9.9s.6,0,.9,0c.3,0,.5-.1.8-.2l1.1-.4c.3,0,.5-.3.6-.5.1-.3.1-.6,0-.8-.1-.4-.6-.7-1-.7s-.2,0-.3,0l-1.1.4c-.3.1-.7.2-1,.2-.6,0-1.2-.2-1.7-.5-.9-.6-1.9-.9-2.9-.9h0c-.6,0-1.3.1-1.9.3l-.7.3c-.3.1-.5.3-.6.6s-.1.6,0,.8c.2.4.6.7,1,.7Z"/>
    <path class="st9" d="M11.7,15.8c-.1-.4-.6-.7-1-.7s-.2,0-.3,0l-1.1.4c-.3.1-.7.2-1,.2-.6,0-1.2-.2-1.7-.5-.9-.6-1.9-.9-2.9-.9h0c-.6,0-1.3.1-1.9.3l-.7.3c-.3.1-.5.3-.6.6s-.1.6,0,.8c.2.4.6.7,1,.7s.3,0,.4,0l.7-.3c.4-.1.7-.2,1.1-.2.6,0,1.2.2,1.7.5.9.6,1.9.9,2.9.9s.6,0,.9,0c.3,0,.5-.1.8-.2l1.1-.4c.3,0,.5-.3.6-.5.1-.3.1-.6,0-.8Z"/>
  </g>
  <g>
    <g>
      <path class="st2" d="M24.4,26.2h-14.6c-1.6,0-2.8-1.4-2.6-2.9L9.2,3.6c.2-1.3,1.3-2.3,2.6-2.3h10.5c1.3,0,2.4,1,2.6,2.3l2.1,19.6c.2,1.6-1,2.9-2.6,2.9Z"/>
      <path class="st0" d="M22.3,3.3c.3,0,.6.2.6.5l2.1,19.7c0,.2,0,.4-.2.5,0,0-.2.2-.5.2h-14.6c-.2,0-.4-.1-.5-.2,0,0-.2-.2-.1-.5L11.2,3.9c0-.3.3-.5.6-.5h10.5M22.3,1.3h-10.5c-1.3,0-2.4,1-2.6,2.3l-2.1,19.6c-.2,1.6,1,2.9,2.6,2.9h14.6c1.6,0,2.8-1.4,2.6-2.9l-2.1-19.6c-.2-1.3-1.3-2.3-2.6-2.3h0Z"/>
    </g>
    <g class="st7">
      <path class="st2" d="M27.9,4.2C27.5,1.7,25.3-.1,22.8-.1h-9.4c-2.5,0-4.7,1.8-5.1,4.3l-2.5,14.3c-.3,1.7.1,3.5,1.3,4.7,1,1.1,2.4,1.6,3.8,1.6h14.3c2.2,0,4.2-1.2,5.1-3.1.4-.9.5-2,.3-2.9l-2.6-14.6h0Z"/>
      <path class="st4" d="M13.3,1.9h9.5c1.6,0,2.9,1.1,3.1,2.6l2.6,14.6c.1.6,0,1.2-.2,1.8-.5,1.2-1.8,1.9-3.2,1.9h-14.3c-.9,0-1.7-.4-2.3-1-.7-.7-1-1.8-.8-3l2.5-14.3c.3-1.5,1.6-2.6,3.1-2.6M13.3-.1c-2.5,0-4.7,1.8-5.1,4.3l-2.5,14.3c-.3,1.7.1,3.5,1.3,4.7,1,1.1,2.4,1.6,3.8,1.6h14.3c2.2,0,4.2-1.2,5.1-3.1.4-.9.5-2,.3-2.9l-2.6-14.6C27.5,1.7,25.3-.1,22.8-.1h-9.5,0Z"/>
    </g>
    <g>
      <path class="st3" d="M17.1,5.5c-.6,0-1,.5-1,1.2v2c0,.6.5,1.2,1,1.2s1-.5,1-1.2v-2c0-.6-.5-1.2-1-1.2Z"/>
      <path class="st1" d="M17.1,11.6c-.6,0-1,.5-1,1.2v2c0,.6.5,1.2,1,1.2s1-.5,1-1.2v-2c0-.6-.5-1.2-1-1.2Z"/>
      <path class="st6" d="M17.1,17.7c-.6,0-1,.5-1,1.2v2c0,.6.5,1.2,1,1.2s1-.5,1-1.2v-2c0-.6-.5-1.2-1-1.2Z"/>
    </g>
  </g>
  <g class="st7">
    <path class="st9" d="M-30.3,19.6c-1,0-2-.3-2.9-.8-.7-.4-1.4-.4-2.1,0-1.8,1.1-4.1,1.1-5.9,0-.7-.4-1.4-.4-2.1,0-1.8,1.1-4.1,1.1-5.9,0-.7-.4-1.4-.4-2.1,0-.3.2-.6.3-.9.4-.6.2-1.3,0-1.6-.7-.2-.6,0-1.3.7-1.6.2,0,.4-.2.5-.3,1.4-.8,3.1-.8,4.6,0,1,.6,2.3.6,3.4,0,1.4-.8,3.2-.8,4.6,0,1.1.6,2.3.6,3.4,0,1.4-.8,3.2-.8,4.6,0,1.1.6,2.4.6,3.4,0,1.4-.8,3.1-.8,4.5,0,.2.1.4.2.7.3.6.2,1,.9.8,1.5-.2.6-.9,1-1.5.8-.4-.1-.8-.3-1.1-.5-.6-.4-1.4-.4-2,0-.9.6-2,.9-3,.9h0Z"/>
  </g>
  <g class="st7">
    <path class="st9" d="M-30.3,24.8c-1,0-2-.3-2.9-.8-.7-.4-1.4-.4-2.1,0-1.8,1.1-4.1,1.1-5.9,0-.7-.4-1.4-.4-2.1,0-1.8,1.1-4.1,1.1-5.9,0-.7-.4-1.4-.4-2.1,0-.3.2-.6.3-.9.4-.6.2-1.3,0-1.6-.7-.2-.6,0-1.3.7-1.6.2,0,.4-.2.5-.3,1.4-.8,3.1-.8,4.6,0,1,.6,2.3.6,3.4,0,1.4-.8,3.2-.8,4.6,0,1.1.6,2.3.6,3.4,0,1.4-.8,3.2-.8,4.6,0,1.1.6,2.4.6,3.4,0,1.4-.8,3.1-.8,4.5,0,.2.1.4.2.7.3.6.2,1,.9.8,1.5-.2.6-.9,1-1.5.8-.4-.1-.8-.3-1.1-.5-.6-.4-1.4-.4-2,0-.9.6-2,.9-3,.9h0Z"/>
  </g>
  <g>
    <path class="st5" d="M28.4,26.2c-.6,0-1-.5-1-1v-5c0-.6.5-1,1-1s1,.5,1,1v5c0,.6-.5,1-1,1Z"/>
    <path class="st8" d="M23.8,16.2c0,3.7,2,5.9,4.5,5.9s4.5-2.2,4.5-5.9-2-7.8-4.5-7.8-4.5,4.1-4.5,7.8Z"/>
  </g>
</svg>