<?xml version="1.0" encoding="UTF-8"?>
<svg xmlns="http://www.w3.org/2000/svg" version="1.1" xmlns:xlink="http://www.w3.org/1999/xlink" viewBox="0 0 28.03 27.54">
  <defs>
    <style>
      .cls-1 {
        fill: #fff;
      }

      .cls-2 {
        fill: #bbccf9;
      }

      .cls-3 {
        fill: url(#_무제_그라디언트_2);
      }

      .cls-4 {
        fill: url(#_무제_그라디언트_4);
      }
    </style>
    <linearGradient id="_무제_그라디언트_2" data-name="무제 그라디언트 2" x1="23.98" y1="12.5" x2=".67" y2="12.5" gradientUnits="userSpaceOnUse">
      <stop offset="0" stop-color="#3b73e0"/>
      <stop offset=".62" stop-color="#3955bd"/>
      <stop offset="1" stop-color="#3948ad"/>
    </linearGradient>
    <linearGradient id="_무제_그라디언트_4" data-name="무제 그라디언트 4" x1="13.83" y1="20.44" x2="28.03" y2="20.44" gradientUnits="userSpaceOnUse">
      <stop offset=".1" stop-color="#3948ad"/>
      <stop offset="1" stop-color="#3b73e0"/>
    </linearGradient>
  </defs>
  <!-- Generator: Adobe Illustrator 28.7.2, SVG Export Plug-In . SVG Version: 1.2.0 Build 154)  -->
  <g>
    <g id="_레이어_1" data-name="레이어_1">
      <g>
        <g>
          <path class="cls-3" d="M22.61,25H2.44c-1.35,0-2.44-1.09-2.44-2.44V2.44C0,1.09,1.09,0,2.44,0h20.11c1.35,0,2.44,1.09,2.44,2.44v20.17c0,1.32-1.07,2.39-2.39,2.39"/>
          <path class="cls-1" d="M2.25,12.1v8.87c0,.85.69,1.54,1.55,1.54h17.41c.85,0,1.55-.69,1.55-1.54v-8.87"/>
          <rect class="cls-2" x="2.25" y="12.1" width="20.5" height="4.81"/>
          <g>
            <polygon class="cls-1" points="3.22 3.17 3.12 3.17 3.12 3.27 3.12 4.39 3.12 4.49 3.22 4.49 4.63 4.49 4.63 9.64 4.63 9.74 4.73 9.74 6.06 9.74 6.16 9.74 6.16 9.64 6.16 3.27 6.16 3.17 6.06 3.17 3.22 3.17"/>
            <path class="cls-1" d="M9.49,8.43l1.29-1.33c.26-.26.47-.51.64-.74.17-.23.29-.46.38-.69.08-.23.13-.47.13-.71,0-.38-.09-.71-.28-1-.19-.28-.45-.5-.79-.66-.33-.15-.72-.23-1.16-.23-.35,0-.69.07-1.01.21-.32.14-.6.34-.82.6-.23.26-.38.56-.45.91l-.02.09.09.03,1.15.38.1.03.03-.1c.08-.25.2-.44.36-.56.17-.12.35-.18.56-.18s.37.06.5.18c.13.11.19.27.19.47,0,.11-.03.24-.09.36-.06.13-.18.29-.34.49-.17.2-.43.48-.76.82l-1.71,1.76-.03.03v1.17h4.52v-1.32h-2.49ZM10.04,6.03c-.17.2-.43.48-.77.82.34-.35.59-.62.77-.82Z"/>
            <path class="cls-1" d="M17.39,6.5c-.17-.29-.4-.53-.7-.69-.14-.08-.29-.13-.45-.17l1.12-1.27.03-.03v-1.17h-4.18v1.32h2.36l-1.47,1.61-.05.05.03.06.31.64.05.09.09-.05c.09-.05.2-.08.32-.11.12-.03.24-.04.35-.04.2,0,.37.03.5.1.13.07.24.16.31.29.07.12.11.27.11.45s-.04.33-.11.46c-.08.13-.18.23-.31.3-.13.07-.3.11-.49.11-.23,0-.44-.06-.61-.19-.17-.13-.3-.32-.39-.57l-.03-.1-.1.03-1.17.39-.09.03.02.09c.08.35.24.65.47.91.23.26.52.46.85.59.33.14.68.21,1.05.21.47,0,.89-.1,1.25-.3.37-.2.66-.48.88-.83.21-.35.32-.75.32-1.19,0-.38-.08-.73-.25-1.02ZM14.09,7.71c.1.27.24.48.43.62.09.07.2.12.31.16-.11-.03-.21-.09-.31-.16-.19-.14-.33-.35-.43-.62l-1.17.39h0s1.17-.39,1.17-.39Z"/>
          </g>
        </g>
        <g>
          <circle class="cls-1" cx="19.8" cy="19.62" r="4.76"/>
          <path class="cls-4" d="M28.03,25.69l-2.66-2.66c1.58-2.43,1.3-5.72-.82-7.85-2.45-2.45-6.43-2.45-8.88,0-2.45,2.45-2.45,6.43,0,8.88,1.22,1.22,2.83,1.84,4.44,1.84,1.19,0,2.38-.34,3.41-1.01l2.66,2.66,1.85-1.85ZM17.35,22.37c-1.52-1.52-1.52-3.98,0-5.5.76-.76,1.75-1.14,2.75-1.14s1.99.38,2.75,1.14c1.52,1.52,1.52,3.98,0,5.5-1.52,1.52-3.98,1.52-5.5,0Z"/>
        </g>
      </g>
    </g>
  </g>
</svg>