<?xml version="1.0" encoding="UTF-8"?>
<svg xmlns="http://www.w3.org/2000/svg" version="1.1" xmlns:xlink="http://www.w3.org/1999/xlink" viewBox="0 0 28.03 27.54">
  <defs>
    <style>
      .cls-1 {
        fill: #1e3296;
      }

      .cls-2 {
        fill: #fff;
      }

      .cls-3 {
        fill: url(#_무제_그라디언트_2);
      }

      .cls-4 {
        fill: url(#_무제_그라디언트_4);
      }

      .cls-5 {
        fill: #c7d8ff;
      }
    </style>
    <linearGradient id="_무제_그라디언트_2" data-name="무제 그라디언트 2" x1="23.98" y1="12.5" x2=".67" y2="12.5" gradientUnits="userSpaceOnUse">
      <stop offset="0" stop-color="#3b73e0"/>
      <stop offset=".62" stop-color="#3955bd"/>
      <stop offset="1" stop-color="#3948ad"/>
    </linearGradient>
    <linearGradient id="_무제_그라디언트_4" data-name="무제 그라디언트 4" x1="13.83" y1="20.44" x2="28.03" y2="20.44" gradientUnits="userSpaceOnUse">
      <stop offset=".1" stop-color="#3948ad"/>
      <stop offset="1" stop-color="#3b73e0"/>
    </linearGradient>
  </defs>
  <!-- Generator: Adobe Illustrator 28.7.2, SVG Export Plug-In . SVG Version: 1.2.0 Build 154)  -->
  <g>
    <g id="_레이어_1" data-name="레이어_1">
      <g>
        <g>
          <path class="cls-3" d="M22.61,25H2.44c-1.35,0-2.44-1.09-2.44-2.44V2.44C0,1.09,1.09,0,2.44,0h20.11c1.35,0,2.44,1.09,2.44,2.44v20.17c0,1.32-1.07,2.39-2.39,2.39"/>
          <path class="cls-5" d="M20.44,22.31H4.61c-1.06,0-1.92-.86-1.92-1.92V4.6c0-1.06.86-1.92,1.92-1.92h15.79c1.06,0,1.92.86,1.92,1.92v15.83c0,1.03-.84,1.88-1.87,1.88"/>
          <g>
            <polygon class="cls-1" points="6.08 11.46 7.57 11.46 7.57 5.36 5.25 5.36 5.25 6.69 6.08 6.69 6.08 11.46"/>
            <path class="cls-1" d="M11.01,6.67c.12-.16.29-.24.5-.24s.37.06.48.19c.11.13.16.31.16.53,0,.3-.11.61-.33.93-.22.32-.48.62-.8.91s-.75.66-1.29,1.11c.02-.01-.07.06-.26.21v1.06h4.19v-1.16h-2.26c.63-.48,1.15-.98,1.55-1.49.41-.51.61-1.06.61-1.66,0-.55-.17-.99-.51-1.33-.34-.34-.84-.51-1.5-.51-.38,0-.73.08-1.05.23-.31.15-.57.38-.76.7-.19.32-.29.71-.31,1.19h1.38c0-.29.06-.51.18-.67Z"/>
            <path class="cls-1" d="M18.88,8.81c-.18-.25-.44-.42-.75-.53v-.03c.25-.08.46-.24.64-.47.18-.23.28-.53.28-.9,0-.31-.08-.59-.23-.84-.15-.25-.38-.45-.68-.59-.3-.15-.66-.22-1.07-.22-.63,0-1.13.16-1.5.48-.37.32-.56.78-.58,1.38h1.4c.02-.19.08-.35.18-.48s.26-.19.47-.19c.19,0,.35.06.46.17.11.11.17.27.17.47,0,.25-.09.42-.26.52-.18.1-.41.15-.69.15h-.27v1.16h.27c.37,0,.64.06.81.18.17.12.25.31.25.58,0,.21-.06.37-.18.5-.12.13-.29.19-.51.19-.26,0-.45-.07-.58-.21-.13-.14-.2-.34-.21-.58h-1.39c.02.66.23,1.16.63,1.49.4.33.93.49,1.6.49.42,0,.78-.08,1.08-.23.3-.15.53-.36.69-.62.16-.26.24-.57.24-.92,0-.38-.09-.7-.28-.94Z"/>
            <path class="cls-1" d="M9.11,13.76h-1.6l-2.64,3.78v1.15h2.81v1.09h1.43v-1.09h.69v-1.24h-.69v-3.69ZM7.78,17.46h-1.4l1.4-2.12v2.12Z"/>
            <path class="cls-1" d="M14.51,15.94c-.28-.19-.62-.28-1.04-.28-.23,0-.45.04-.65.12-.2.08-.36.18-.47.3v-1.15h2.61v-1.25h-3.9v3.63h1.38c.04-.15.12-.27.24-.36.12-.09.28-.14.47-.14.26,0,.45.07.58.22.13.14.2.35.2.63s-.06.5-.19.67c-.13.17-.32.25-.58.25-.22,0-.4-.06-.53-.17-.13-.11-.21-.26-.24-.43h-1.4c.02.36.11.67.29.94.18.27.43.49.76.64.33.15.72.23,1.16.23.67,0,1.19-.19,1.55-.57.37-.38.55-.9.55-1.55,0-.35-.06-.68-.19-.98-.13-.3-.33-.55-.61-.74Z"/>
          </g>
        </g>
        <g>
          <circle class="cls-2" cx="19.8" cy="19.62" r="4.76"/>
          <path class="cls-4" d="M28.03,25.69l-2.66-2.66c1.58-2.43,1.3-5.72-.82-7.85-2.45-2.45-6.43-2.45-8.88,0-2.45,2.45-2.45,6.43,0,8.88,1.22,1.22,2.83,1.84,4.44,1.84,1.19,0,2.38-.34,3.41-1.01l2.66,2.66,1.85-1.85ZM17.35,22.37c-1.52-1.52-1.52-3.98,0-5.5.76-.76,1.75-1.14,2.75-1.14s1.99.38,2.75,1.14c1.52,1.52,1.52,3.98,0,5.5-1.52,1.52-3.98,1.52-5.5,0Z"/>
        </g>
      </g>
    </g>
  </g>
</svg>