<?xml version="1.0" encoding="UTF-8"?>
<svg xmlns="http://www.w3.org/2000/svg" version="1.1" xmlns:xlink="http://www.w3.org/1999/xlink" viewBox="0 0 28.03 27.54">
  <defs>
    <style>
      .cls-1, .cls-2 {
        fill: #fff;
      }

      .cls-3 {
        fill: url(#_무제_그라디언트_2);
      }

      .cls-4 {
        fill: url(#_무제_그라디언트_4);
      }

      .cls-2 {
        stroke: #fff;
        stroke-miterlimit: 10;
        stroke-width: .2px;
      }
    </style>
    <linearGradient id="_무제_그라디언트_2" data-name="무제 그라디언트 2" x1="23.98" y1="12.5" x2=".67" y2="12.5" gradientUnits="userSpaceOnUse">
      <stop offset="0" stop-color="#3b73e0"/>
      <stop offset=".62" stop-color="#3955bd"/>
      <stop offset="1" stop-color="#3948ad"/>
    </linearGradient>
    <linearGradient id="_무제_그라디언트_4" data-name="무제 그라디언트 4" x1="13.83" y1="20.44" x2="28.03" y2="20.44" gradientUnits="userSpaceOnUse">
      <stop offset=".1" stop-color="#3948ad"/>
      <stop offset="1" stop-color="#3b73e0"/>
    </linearGradient>
  </defs>
  <!-- Generator: Adobe Illustrator 28.7.2, SVG Export Plug-In . SVG Version: 1.2.0 Build 154)  -->
  <g>
    <g id="_레이어_1" data-name="레이어_1">
      <g>
        <g>
          <path class="cls-3" d="M22.61,25H2.44c-1.35,0-2.44-1.09-2.44-2.44V2.44C0,1.09,1.09,0,2.44,0h20.11c1.35,0,2.44,1.09,2.44,2.44v20.17c0,1.32-1.07,2.39-2.39,2.39"/>
          <path class="cls-1" d="M2.25,12.79v8.18c0,.85.69,1.54,1.55,1.54h17.41c.85,0,1.55-.69,1.55-1.54v-8.18"/>
          <g>
            <g>
              <path class="cls-1" d="M3.91,8.2l.11-.05c1.59-.8,2.42-1.8,2.66-3.22h-2.25v-1.23h3.76v.1c-.01,2.64-1.08,4.39-3.36,5.5l-.07.04-.84-1.13Z"/>
              <path class="cls-1" d="M8.09,3.79c0,2.27-.79,4.18-3.3,5.41l-.72-.97c1.64-.83,2.51-1.86,2.73-3.41h-2.27v-1.03h3.56M8.29,3.59h-3.96v1.43h2.23c-.26,1.34-1.04,2.26-2.58,3.03l-.21.11.14.19.72.97.1.13.15-.07c2.32-1.14,3.4-2.91,3.41-5.59v-.2h0Z"/>
            </g>
            <g>
              <polygon class="cls-1" points="9.21 10.28 9.21 2.74 10.69 2.74 10.69 5.45 11.63 5.45 11.63 6.69 10.69 6.69 10.69 10.28 9.21 10.28"/>
              <path class="cls-1" d="M10.59,2.84v2.71h.94v1.04h-.94v3.59h-1.28V2.84h1.28M10.79,2.64h-1.68v7.74h1.68v-3.59h.94v-1.44h-.94v-2.71h0Z"/>
            </g>
            <path class="cls-2" d="M17.89,8.12l-.13-1.06c-.96.19-1.9.28-2.77.3v-3.84h-1.27v4.89h.67c1.07,0,2.29-.05,3.5-.29"/>
            <g>
              <polygon class="cls-1" points="18.4 10.28 18.4 2.74 19.88 2.74 19.88 5.43 20.82 5.43 20.82 6.67 19.88 6.67 19.88 10.28 18.4 10.28"/>
              <path class="cls-1" d="M19.78,2.84v2.69h.94v1.03h-.94v3.61h-1.28V2.84h1.28M19.98,2.64h-1.68v7.74h1.68v-3.61h.94v-1.43h-.94v-2.69h0Z"/>
            </g>
          </g>
        </g>
        <g>
          <circle class="cls-1" cx="19.8" cy="19.62" r="4.76"/>
          <path class="cls-4" d="M28.03,25.69l-2.66-2.66c1.58-2.43,1.3-5.72-.82-7.85-2.45-2.45-6.43-2.45-8.88,0-2.45,2.45-2.45,6.43,0,8.88,1.22,1.22,2.83,1.84,4.44,1.84,1.19,0,2.38-.34,3.41-1.01l2.66,2.66,1.85-1.85ZM17.35,22.37c-1.52-1.52-1.52-3.98,0-5.5.76-.76,1.75-1.14,2.75-1.14s1.99.38,2.75,1.14c1.52,1.52,1.52,3.98,0,5.5-1.52,1.52-3.98,1.52-5.5,0Z"/>
        </g>
      </g>
    </g>
  </g>
</svg>