<?xml version="1.0" encoding="UTF-8"?>
<svg xmlns="http://www.w3.org/2000/svg" version="1.1" xmlns:xlink="http://www.w3.org/1999/xlink" viewBox="0 0 24.95 33">
  <defs>
    <style>
      .cls-1 {
        fill: url(#_무제_그라디언트);
      }

      .cls-2 {
        fill: #fff;
      }

      .cls-3 {
        fill: none;
      }

      .cls-4 {
        clip-path: url(#clippath-1);
      }

      .cls-5 {
        fill: #678ee5;
      }

      .cls-6 {
        clip-path: url(#clippath);
      }
    </style>
    <clipPath id="clippath">
      <path class="cls-3" d="M7.17,1.1c-2.72,1.14-4.91,3.31-6.06,6.03C.36,8.92,0,10.7,0,12.41v.13c.02,4.35,2.28,8.18,5.68,10.39,2.35,1.52,4.15,3.75,5.23,6.33l1.56,3.74,1.48-3.54c1.12-2.67,2.98-4.98,5.4-6.58,3.37-2.23,5.6-6.06,5.6-10.41C24.94,5.58,19.36,0,12.47,0c-1.71,0-3.5.34-5.3,1.1"/>
    </clipPath>
    <linearGradient id="_무제_그라디언트" data-name="무제 그라디언트" x1="0" y1="33" x2="1" y2="33" gradientTransform="translate(0 839.69) scale(24.95 -24.95)" gradientUnits="userSpaceOnUse">
      <stop offset="0" stop-color="#3948ad"/>
      <stop offset=".12" stop-color="#3948ad"/>
      <stop offset=".92" stop-color="#3b73e0"/>
      <stop offset="1" stop-color="#3b73e0"/>
    </linearGradient>
    <clipPath id="clippath-1">
      <rect class="cls-3" width="24.94" height="33"/>
    </clipPath>
  </defs>
  <!-- Generator: Adobe Illustrator 28.7.2, SVG Export Plug-In . SVG Version: 1.2.0 Build 154)  -->
  <g>
    <g id="_레이어_1" data-name="레이어_1">
      <g class="cls-6">
        <rect class="cls-1" width="24.94" height="33"/>
      </g>
      <g class="cls-4">
        <path class="cls-2" d="M12.47,20.9c-4.65,0-8.43-3.78-8.43-8.42S7.83,4.05,12.47,4.05s8.42,3.78,8.42,8.43-3.78,8.42-8.42,8.42"/>
        <polygon class="cls-5" points="9.9 11.25 17.34 11.25 17.34 9.35 9.9 9.35 9.9 7.82 6.88 10.3 9.9 12.78 9.9 11.25"/>
        <polygon class="cls-5" points="15.05 16.11 7.61 16.11 7.61 14.22 15.05 14.22 15.05 12.68 18.06 15.16 15.05 17.64 15.05 16.11"/>
      </g>
    </g>
  </g>
</svg>