<?xml version="1.0" encoding="UTF-8"?>
<svg xmlns="http://www.w3.org/2000/svg" version="1.1" xmlns:xlink="http://www.w3.org/1999/xlink" viewBox="0 0 25 25">
  <defs>
    <style>
      .cls-1 {
        fill: #fff;
      }

      .cls-2 {
        fill: #bbccf9;
      }

      .cls-3 {
        fill: url(#_무제_그라디언트_2);
      }
    </style>
    <linearGradient id="_무제_그라디언트_2" data-name="무제 그라디언트 2" x1="23.98" y1="12.5" x2=".67" y2="12.5" gradientUnits="userSpaceOnUse">
      <stop offset="0" stop-color="#3b73e0"/>
      <stop offset=".62" stop-color="#3955bd"/>
      <stop offset="1" stop-color="#3948ad"/>
    </linearGradient>
  </defs>
  <!-- Generator: Adobe Illustrator 28.7.2, SVG Export Plug-In . SVG Version: 1.2.0 Build 154)  -->
  <g>
    <g id="_레이어_1" data-name="레이어_1">
      <g>
        <path class="cls-3" d="M22.61,25H2.44c-1.35,0-2.44-1.09-2.44-2.44V2.44C0,1.09,1.09,0,2.44,0h20.11c1.35,0,2.44,1.09,2.44,2.44v20.17c0,1.32-1.07,2.39-2.39,2.39"/>
        <path class="cls-1" d="M2.25,12.1v8.87c0,.85.69,1.54,1.55,1.54h17.41c.85,0,1.55-.69,1.55-1.54v-8.87"/>
        <rect class="cls-2" x="2.25" y="12.1" width="20.5" height="4.81"/>
        <g>
          <polygon class="cls-1" points="2.57 3.27 2.47 3.27 2.47 3.37 2.47 4.45 2.47 4.55 2.57 4.55 3.93 4.55 3.93 9.54 3.93 9.64 4.03 9.64 5.32 9.64 5.42 9.64 5.42 9.54 5.42 3.37 5.42 3.27 5.32 3.27 2.57 3.27"/>
          <path class="cls-1" d="M8.64,8.36l1.25-1.29c.25-.26.46-.5.62-.72.16-.22.28-.45.36-.67.08-.22.12-.45.12-.68,0-.37-.09-.69-.27-.97-.18-.27-.44-.49-.76-.64-.32-.15-.7-.22-1.12-.22-.34,0-.67.07-.98.2-.31.13-.58.33-.8.58-.22.25-.37.55-.44.88l-.02.09.09.03,1.12.36.1.03.03-.1c.08-.24.19-.43.35-.54.16-.12.34-.18.55-.18s.36.06.48.17c.12.11.19.26.19.46,0,.11-.03.23-.09.35-.06.13-.17.28-.33.47-.17.2-.42.46-.74.79l-1.66,1.7-.03.03v1.13h4.38v-1.28h-2.41ZM9.17,6.04c-.17.2-.42.46-.74.8.33-.34.57-.6.74-.8Z"/>
          <path class="cls-1" d="M16.28,6.5c-.16-.29-.39-.51-.68-.67-.13-.07-.28-.13-.44-.17l1.08-1.23.02-.03v-1.13h-4.05v1.28h2.28l-1.43,1.55-.05.05.03.06.3.62.04.09.09-.05c.09-.05.19-.08.31-.11.11-.03.23-.04.34-.04.19,0,.36.03.49.1.13.07.23.16.3.28.07.12.11.27.11.43s-.04.32-.11.44c-.07.13-.17.22-.3.29-.13.07-.29.1-.48.1-.23,0-.42-.06-.59-.18-.17-.12-.29-.31-.38-.55l-.03-.09-.09.03-1.13.38-.09.03.02.09c.08.34.23.63.45.88.22.25.5.44.82.58.32.13.66.2,1.02.2.45,0,.86-.1,1.21-.29.36-.19.64-.46.85-.8.21-.34.31-.73.31-1.15,0-.37-.08-.71-.24-.99ZM13.09,7.67c.09.27.23.46.41.6.09.07.19.12.3.15-.11-.03-.21-.08-.3-.15-.18-.14-.32-.34-.41-.6l-1.13.38h0s1.13-.38,1.13-.38Z"/>
        </g>
      </g>
    </g>
  </g>
</svg>