<?xml version="1.0" encoding="UTF-8"?>
<svg xmlns="http://www.w3.org/2000/svg" version="1.1" xmlns:xlink="http://www.w3.org/1999/xlink" viewBox="0 0 23.01 25.84">
  <defs>
    <style>
      .cls-1 {
        fill: url(#_무제_그라디언트_2);
      }

      .cls-2 {
        fill: #aec3f1;
      }
    </style>
    <linearGradient id="_무제_그라디언트_2" data-name="무제 그라디언트 2" x1="1.2" y1="11.98" x2="21.81" y2="11.98" gradientUnits="userSpaceOnUse">
      <stop offset=".02" stop-color="#3948ad"/>
      <stop offset=".91" stop-color="#3b73e0"/>
    </linearGradient>
  </defs>
  <!-- Generator: Adobe Illustrator 28.7.2, SVG Export Plug-In . SVG Version: 1.2.0 Build 154)  -->
  <g>
    <g id="conts">
      <g>
        <path class="cls-2" d="M11.51,5.6c-.83,0-1.51-.68-1.51-1.51V1.51c0-.83.68-1.51,1.51-1.51s1.51.68,1.51,1.51v2.58c0,.83-.68,1.51-1.51,1.51Z"/>
        <path class="cls-2" d="M16.02,21.33c0,2.49-2.02,4.51-4.51,4.51s-4.51-2.02-4.51-4.51h9.02Z"/>
        <path class="cls-1" d="M20,16.91v-5.67c0-3.92-2.61-7.46-6.43-8.36C7.98,1.57,3.02,5.77,3.02,11.13v5.78c0,.26-.08.51-.24.72l-1.34,1.77c-.59.79-.03,1.91.95,1.91h18.22c.99,0,1.55-1.13.95-1.91l-1.34-1.77c-.16-.21-.24-.46-.24-.72Z"/>
      </g>
    </g>
  </g>
</svg>