<?xml version="1.0" encoding="UTF-8"?>
<svg xmlns="http://www.w3.org/2000/svg" version="1.1" xmlns:xlink="http://www.w3.org/1999/xlink" viewBox="0 0 29.56 29.57">
  <defs>
    <style>
      .cls-1 {
        fill: #fff;
      }

      .cls-2 {
        fill: url(#_무제_그라디언트_4-2);
      }

      .cls-3 {
        fill: #bbccf9;
      }

      .cls-4 {
        fill: url(#_무제_그라디언트_4);
      }
    </style>
    <linearGradient id="_무제_그라디언트_4" data-name="무제 그라디언트 4" x1="15.36" y1="22.47" x2="29.56" y2="22.47" gradientUnits="userSpaceOnUse">
      <stop offset=".1" stop-color="#3948ad"/>
      <stop offset="1" stop-color="#3b73e0"/>
    </linearGradient>
    <linearGradient id="_무제_그라디언트_4-2" data-name="무제 그라디언트 4" x1="0" y1="7.03" x2="26.67" y2="7.03" xlink:href="#_무제_그라디언트_4"/>
  </defs>
  <!-- Generator: Adobe Illustrator 28.7.2, SVG Export Plug-In . SVG Version: 1.2.0 Build 154)  -->
  <g>
    <g id="_격리_모드" data-name="격리_모드">
      <g>
        <path class="cls-3" d="M23.63,11.29L14.31,2.69c-.55-.51-1.4-.51-1.95,0L3.04,11.29c-.3.27-.46.66-.46,1.06v11.75c0,.79.64,1.44,1.44,1.44h5.66v-6.34c0-1.86,1.51-3.36,3.36-3.36h.59c1.86,0,3.36,1.51,3.36,3.36v6.34h5.66c.79,0,1.44-.64,1.44-1.44v-11.75c0-.4-.17-.79-.46-1.06Z"/>
        <g>
          <circle class="cls-1" cx="21.33" cy="21.65" r="4.76"/>
          <path class="cls-4" d="M29.56,27.72l-2.66-2.66c1.58-2.43,1.3-5.72-.82-7.85-2.45-2.45-6.43-2.45-8.88,0-2.45,2.45-2.45,6.43,0,8.88,1.22,1.22,2.83,1.84,4.44,1.84,1.19,0,2.38-.34,3.41-1.01l2.66,2.66,1.85-1.85ZM18.89,24.4c-1.52-1.52-1.52-3.98,0-5.5.76-.76,1.75-1.14,2.75-1.14s1.99.38,2.75,1.14c1.52,1.52,1.52,3.98,0,5.5-1.52,1.52-3.98,1.52-5.5,0Z"/>
        </g>
        <path class="cls-2" d="M23.06,13.48l-8.27-7.63c-.82-.76-2.09-.76-2.92,0L3.61,13.48c-.87.81-2.23.75-3.04-.12h0c-.81-.87-.75-2.23.12-3.04L11.26.57c.4-.37.92-.57,1.46-.57h1.24c.54,0,1.06.2,1.46.57l10.57,9.75c.87.81.93,2.17.12,3.04h0c-.81.87-2.17.93-3.04.12Z"/>
      </g>
    </g>
  </g>
</svg>