<?xml version="1.0" encoding="UTF-8"?>
<svg id="_격리_모드" data-name="격리_모드" xmlns="http://www.w3.org/2000/svg" version="1.1" xmlns:xlink="http://www.w3.org/1999/xlink" viewBox="0 0 25 25">
  <!-- Generator: Adobe Illustrator 29.1.0, SVG Export Plug-In . SVG Version: 2.1.0 Build 142)  -->
  <defs>
    <style>
      .st0 {
        fill: #1e3296;
      }

      .st1 {
        fill: url(#_무제_그라디언트_2);
      }

      .st2 {
        fill: #c7d8ff;
      }
    </style>
    <linearGradient id="_무제_그라디언트_2" data-name="무제 그라디언트 2" x1="23.983" y1="12.5" x2=".667" y2="12.5" gradientUnits="userSpaceOnUse">
      <stop offset="0" stop-color="#3b73e0"/>
      <stop offset=".621" stop-color="#3955bd"/>
      <stop offset="1" stop-color="#3948ad"/>
    </linearGradient>
  </defs>
  <path class="st1" d="M22.613,25H2.444c-1.35,0-2.444-1.094-2.444-2.444V2.444C0,1.094,1.094,0,2.444,0h20.113c1.349,0,2.443,1.094,2.443,2.443v20.168c0,1.317-1.072,2.388-2.387,2.388"/>
  <path class="st2" d="M20.44,22.314H4.605c-1.06,0-1.919-.859-1.919-1.919V4.605c0-1.06.859-1.919,1.919-1.919h15.791c1.06,0,1.918.859,1.918,1.918v15.835c0,1.034-.841,1.875-1.874,1.875"/>
  <g>
    <polygon class="st0" points="7.292 20.556 8.833 20.556 8.833 14.234 6.435 14.234 6.435 15.611 7.292 15.611 7.292 20.556"/>
    <path class="st0" d="M16.476,15.589c.124-.164.296-.247.515-.247s.384.066.494.199c.109.133.164.318.164.554,0,.312-.113.632-.338.961-.225.329-.501.644-.827.944s-.772.684-1.338,1.152c.017-.011-.072.061-.268.217v1.1h4.347v-1.204h-2.338c.653-.502,1.189-1.018,1.611-1.546.421-.529.632-1.101.632-1.719,0-.566-.175-1.025-.524-1.377-.35-.352-.868-.528-1.555-.528-.398,0-.761.078-1.087.234-.326.156-.589.398-.788.728-.199.329-.305.739-.316,1.23h1.429c0-.3.062-.533.187-.697Z"/>
  </g>
  <g>
    <path class="st0" d="M4.651,6.609h2.394c-.235,1.643-1.15,2.731-2.883,3.605l.765,1.024c2.656-1.302,3.479-3.319,3.488-5.722h-3.765v1.093Z"/>
    <polygon class="st0" points="10.534 4.744 9.181 4.744 9.181 12.5 10.534 12.5 10.534 8.71 11.526 8.71 11.526 7.609 10.534 7.609 10.534 4.744"/>
    <path class="st0" d="M18.249,10.332l-.135-1.118c-1.017.201-2.013.298-2.924.319v-4.059h-1.345v5.169h.706c1.126.008,2.42-.051,3.698-.31"/>
    <polygon class="st0" points="19.846 4.744 18.493 4.744 18.493 12.5 19.846 12.5 19.846 8.685 20.837 8.685 20.837 7.592 19.846 7.592 19.846 4.744"/>
  </g>
</svg>