<svg width="208" height="26" viewBox="0 0 208 26" fill="none" xmlns="http://www.w3.org/2000/svg">
<g clip-path="url(#clip0_702_11937)">
<path opacity="0.7" d="M43.6065 4.0235L54.9815 6.929V22.1H32.2315V11.05H28.3315V26H58.8815V3.9L43.6065 0V4.0235Z" fill="white"/>
<path d="M32.2315 6.929L43.6065 4.0235V0L28.3315 3.9V11.05H32.2315V6.929Z" fill="#F09926"/>
</g>
<path d="M77.0398 10.6664V12.1606H71.8542V16.643H70.0085V12.1606H64.8816V10.6664H77.0398ZM75.9558 4.01602V5.48087H72.074C72.2571 6.78458 73.7292 8.09561 76.4685 8.4252L75.7947 9.89005C73.4509 9.5751 71.7737 8.57169 70.9753 7.19473C70.155 8.57169 68.4924 9.5751 66.1707 9.89005L65.4822 8.4252C68.1775 8.09561 69.6643 6.78458 69.8767 5.48087H65.9802V4.01602H75.9558Z" fill="white"/>
<path d="M89.4476 13.5522V15.0463H77.2455V13.5522H82.3431V10.5346H84.2035V13.5522H89.4476ZM84.2621 5.02676C84.2621 6.93106 85.9759 8.9379 89.0228 9.40665L88.2318 10.9594C85.888 10.5346 84.1449 9.28214 83.266 7.61954C82.3871 9.27481 80.6585 10.5419 78.3294 10.9594L77.5384 9.40665C80.556 8.9379 82.2552 6.91641 82.2699 5.02676V4.07462H84.2621V5.02676Z" fill="white"/>
<path d="M100.845 3.3129V11.2231H98.9843V8.07364H96.9042V6.56485H98.9843V3.3129H100.845ZM96.289 11.516C99.1308 11.5307 100.874 12.4682 100.889 14.0941C100.874 15.7055 99.1308 16.6576 96.289 16.6576C93.4472 16.6576 91.7041 15.7055 91.7041 14.0941C91.7041 12.4682 93.4472 11.5307 96.289 11.516ZM96.289 12.9516C94.5166 12.9516 93.5644 13.3178 93.5644 14.0941C93.5644 14.8559 94.5166 15.2367 96.289 15.2367C98.0615 15.2367 99.0283 14.8559 99.0283 14.0941C99.0283 13.3178 98.0615 12.9516 96.289 12.9516ZM97.2998 4.11856V5.6127H94.6484C94.6923 7.16544 95.6298 8.73282 97.7099 9.4213L96.7871 10.8861C95.3149 10.4101 94.3041 9.44327 93.7255 8.23477C93.1323 9.59708 92.0703 10.6957 90.4882 11.2377L89.5214 9.75821C91.7114 9.02579 92.6928 7.28262 92.7441 5.6127H90.0634V4.11856H97.2998Z" fill="white"/>
<path d="M114.175 13.5668V15.0902H101.973V13.5668H107.115V11.1059H103.262V4.16251H105.137V6.22794H110.953V4.16251H112.813V11.1059H108.975V13.5668H114.175ZM105.137 9.61172H110.953V7.72208H105.137V9.61172Z" fill="white"/>
<path d="M121.808 4.27969V5.11465C121.808 6.03751 121.808 7.37051 121.5 9.02579L119.669 8.85001C119.903 7.56827 119.962 6.60147 119.977 5.80313H114.952V4.27969H121.808ZM118.497 7.35587V9.90469C119.823 9.85342 121.185 9.75089 122.438 9.56778L122.54 10.9154C119.772 11.4281 116.637 11.4721 114.322 11.4867L114.161 9.99258C114.908 9.99258 115.751 9.99258 116.637 9.96329V7.35587H118.497ZM125.074 3.3129V7.37051H126.686V8.9379H125.074V13.2885H123.155V3.3129H125.074ZM125.485 14.9145V16.4086H116.124V12.3949H117.999V14.9145H125.485Z" fill="white"/>
<path d="M137.878 3.3129V16.6723H136.017V3.3129H137.878ZM133.747 4.42618V9.56778H129.352V12.0141C131.381 12.0067 133.11 11.8896 135.065 11.5746L135.226 13.0834C133.029 13.4643 131.052 13.5522 128.62 13.5522H127.419V8.08829H131.843V5.93497H127.404V4.42618H133.747Z" fill="white"/>
<path d="M147.107 6.33047C147.107 8.77676 148.221 11.2377 150.477 12.1898L149.378 13.684C147.854 12.9955 146.8 11.6698 146.199 10.0219C145.591 11.8163 144.5 13.2665 142.874 14.0063L141.746 12.4535C144.075 11.4721 145.203 8.92325 145.218 6.33047V4.33829H147.107V6.33047ZM153.084 3.3129V16.6723H151.194V3.3129H153.084Z" fill="white"/>
<path d="M161.302 5.07071C161.302 7.01895 163.031 9.11368 166.048 9.62637L165.228 11.1791C162.906 10.7177 161.178 9.41397 160.321 7.69278C159.435 9.39932 157.706 10.7104 155.399 11.1791L154.593 9.62637C157.552 9.09903 159.295 7.0043 159.31 5.07071V4.10391H161.302V5.07071ZM166.488 13.4643V15.0023H154.286V13.4643H166.488Z" fill="white"/>
<path d="M172.26 4.10391V5.6127H168.964V6.66739H171.762V8.10294H168.964V9.26016C170.422 9.23819 171.484 9.1796 172.714 8.98184L172.904 10.432C171.366 10.6957 170.092 10.7397 168.085 10.7397H167.177V4.10391H172.26ZM178.105 3.3129V11.267H176.332V3.3129H178.105ZM175.453 3.51797V11.1791H173.681V8.01505H172.333V6.5209H173.681V3.51797H175.453ZM178.105 11.7943V16.4965H169.008V11.7943H178.105ZM170.868 13.2592V15.0023H176.259V13.2592H170.868Z" fill="white"/>
<path d="M64.8816 24.4461V18.9313H65.5671V21.6582H65.6357L68.0884 18.9313H68.9873L66.6792 21.4221L68.9873 24.4461H68.1494L66.2527 21.8943L65.5671 22.6713V24.4461H64.8816Z" fill="white" fill-opacity="0.5"/>
<path d="M70.8727 24.5299C69.7453 24.5299 68.9836 23.6844 68.9836 22.3971C68.9836 21.1098 69.7453 20.2566 70.8727 20.2566C71.9924 20.2566 72.7465 21.1098 72.7465 22.3971C72.7465 23.6844 71.9924 24.5299 70.8727 24.5299ZM70.8727 23.951C71.7029 23.951 72.0914 23.2197 72.0914 22.3971C72.0914 21.5744 71.7029 20.8356 70.8727 20.8356C70.0272 20.8356 69.6387 21.5744 69.6387 22.3971C69.6387 23.2197 70.0272 23.951 70.8727 23.951Z" fill="white" fill-opacity="0.5"/>
<path d="M73.4512 24.4461V20.31H74.0835V20.9422H74.1292C74.2815 20.5232 74.7081 20.2414 75.1956 20.2414C75.2946 20.2414 75.4622 20.249 75.5383 20.2566V20.9193C75.4926 20.9041 75.3098 20.8736 75.1422 20.8736C74.5481 20.8736 74.1063 21.285 74.1063 21.841V24.4461H73.4512Z" fill="white" fill-opacity="0.5"/>
<path d="M77.6218 24.5299C76.4259 24.5299 75.687 23.6844 75.687 22.4123C75.687 21.1402 76.4335 20.2566 77.5609 20.2566C78.4292 20.2566 79.3433 20.7898 79.3433 22.3209V22.5951H76.3421C76.3726 23.4711 76.8829 23.951 77.6218 23.951C78.1169 23.951 78.4292 23.7377 78.5816 23.4787H79.2823C79.0843 24.1033 78.4749 24.5299 77.6218 24.5299ZM76.3497 22.0391H78.6806C78.6806 21.3459 78.2388 20.8356 77.5609 20.8356C76.8448 20.8356 76.3878 21.3992 76.3497 22.0391Z" fill="white" fill-opacity="0.5"/>
<path d="M79.8424 23.2731C79.8424 22.3209 80.6802 22.1076 81.3963 22.0543C81.6591 22.0353 82.3294 22.001 82.516 21.9934V21.6582C82.516 21.1326 82.2037 20.8279 81.5791 20.8279C81.0535 20.8279 80.7412 21.0717 80.6498 21.384H79.9642C80.048 20.7213 80.6955 20.2566 81.6095 20.2566C82.1504 20.2566 83.1635 20.4166 83.1635 21.7191V24.4461H82.516V23.8824H82.4855C82.3484 24.1643 81.9676 24.5451 81.2515 24.5451C80.467 24.5451 79.8424 24.0805 79.8424 23.2731ZM80.4974 23.3035C80.4974 23.7377 80.8631 23.9586 81.3658 23.9586C82.1047 23.9586 82.516 23.4635 82.516 22.9455V22.5266C82.3218 22.5418 81.6705 22.5913 81.4724 22.6027C80.8783 22.6408 80.4974 22.8541 80.4974 23.3035Z" fill="white" fill-opacity="0.5"/>
<path d="M86.1878 24.4461H85.4718L87.4903 18.9313H88.214L90.2325 24.4461H89.5089L88.9604 22.8922H86.7438L86.1878 24.4461ZM86.9495 22.2904H88.7472L87.8712 19.8225H87.8255L86.9495 22.2904Z" fill="white" fill-opacity="0.5"/>
<path d="M92.2931 24.5299C91.2648 24.5299 90.5335 23.6996 90.5335 22.3895C90.5335 21.0793 91.2648 20.2566 92.3007 20.2566C93.1005 20.2566 93.3595 20.7441 93.4966 20.965H93.5423V18.9313H94.205V24.4461H93.5652V23.8139H93.4966C93.3519 24.0424 93.0853 24.5299 92.2931 24.5299ZM92.3845 23.9434C93.1386 23.9434 93.5652 23.3035 93.5652 22.3742C93.5652 21.4602 93.1539 20.8432 92.3845 20.8432C91.5923 20.8432 91.1962 21.5135 91.1962 22.3742C91.1962 23.2578 91.5999 23.9434 92.3845 23.9434Z" fill="white" fill-opacity="0.5"/>
<path d="M96.7455 24.5299C95.7172 24.5299 94.9859 23.6996 94.9859 22.3895C94.9859 21.0793 95.7172 20.2566 96.7531 20.2566C97.5529 20.2566 97.8119 20.7441 97.949 20.965H97.9947V18.9313H98.6574V24.4461H98.0176V23.8139H97.949C97.8043 24.0424 97.5377 24.5299 96.7455 24.5299ZM96.8369 23.9434C97.591 23.9434 98.0176 23.3035 98.0176 22.3742C98.0176 21.4602 97.6063 20.8432 96.8369 20.8432C96.0447 20.8432 95.6486 21.5135 95.6486 22.3742C95.6486 23.2578 96.0523 23.9434 96.8369 23.9434Z" fill="white" fill-opacity="0.5"/>
<path d="M99.6364 24.4461V20.31H100.269V20.9422H100.314C100.467 20.5232 100.893 20.2414 101.381 20.2414C101.48 20.2414 101.647 20.249 101.723 20.2566V20.9193C101.678 20.9041 101.495 20.8736 101.327 20.8736C100.733 20.8736 100.291 21.285 100.291 21.841V24.4461H99.6364Z" fill="white" fill-opacity="0.5"/>
<path d="M103.807 24.5299C102.611 24.5299 101.872 23.6844 101.872 22.4123C101.872 21.1402 102.619 20.2566 103.746 20.2566C104.614 20.2566 105.528 20.7898 105.528 22.3209V22.5951H102.527C102.558 23.4711 103.068 23.951 103.807 23.951C104.302 23.951 104.614 23.7377 104.767 23.4787H105.467C105.269 24.1033 104.66 24.5299 103.807 24.5299ZM102.535 22.0391H104.866C104.866 21.3459 104.424 20.8356 103.746 20.8356C103.03 20.8356 102.573 21.3992 102.535 22.0391Z" fill="white" fill-opacity="0.5"/>
<path d="M108.526 21.384C108.435 21.0412 108.176 20.8127 107.688 20.8127C107.178 20.8127 106.812 21.0869 106.812 21.4373C106.812 21.7115 107.033 21.902 107.52 22.0162L108.137 22.1686C108.876 22.3438 109.242 22.7094 109.242 23.2883C109.242 24.0043 108.655 24.5299 107.619 24.5299C106.69 24.5299 106.134 24.1186 106.028 23.3645H106.713C106.789 23.7682 107.086 23.9586 107.604 23.9586C108.191 23.9586 108.564 23.7148 108.564 23.3264C108.564 23.0369 108.358 22.8389 107.886 22.7322L107.261 22.5875C106.538 22.4199 106.157 22.0238 106.157 21.4754C106.157 20.767 106.774 20.2566 107.688 20.2566C108.541 20.2566 109.082 20.7137 109.166 21.384H108.526Z" fill="white" fill-opacity="0.5"/>
<path d="M112.239 21.384C112.148 21.0412 111.889 20.8127 111.402 20.8127C110.891 20.8127 110.526 21.0869 110.526 21.4373C110.526 21.7115 110.747 21.902 111.234 22.0162L111.851 22.1686C112.59 22.3438 112.955 22.7094 112.955 23.2883C112.955 24.0043 112.369 24.5299 111.333 24.5299C110.404 24.5299 109.848 24.1186 109.741 23.3645H110.427C110.503 23.7682 110.8 23.9586 111.318 23.9586C111.904 23.9586 112.278 23.7148 112.278 23.3264C112.278 23.0369 112.072 22.8389 111.6 22.7322L110.975 22.5875C110.251 22.4199 109.871 22.0238 109.871 21.4754C109.871 20.767 110.488 20.2566 111.402 20.2566C112.255 20.2566 112.796 20.7137 112.879 21.384H112.239Z" fill="white" fill-opacity="0.5"/>
<path d="M115.454 24.4461V20.31H116.109V24.4461H115.454ZM115.782 19.6244C115.53 19.6244 115.325 19.434 115.325 19.1902C115.325 18.9465 115.53 18.7561 115.782 18.7561C116.033 18.7561 116.246 18.9465 116.246 19.1902C116.246 19.434 116.033 19.6244 115.782 19.6244Z" fill="white" fill-opacity="0.5"/>
<path d="M117.652 21.9629V24.4461H116.997V20.31H117.629V20.9574H117.682C117.88 20.5385 118.261 20.2566 118.894 20.2566C119.731 20.2566 120.287 20.767 120.287 21.8182V24.4461H119.632V21.8639C119.632 21.224 119.282 20.8432 118.695 20.8432C118.094 20.8432 117.652 21.2469 117.652 21.9629Z" fill="white" fill-opacity="0.5"/>
<path d="M123.034 20.31V20.8584H122.12V24.4461H121.457V20.8584H120.794V20.31H121.457V19.7463C121.457 19.076 121.906 18.6723 122.638 18.6723C122.798 18.6723 122.988 18.6951 123.125 18.718V19.3045C122.988 19.2816 122.866 19.274 122.782 19.274C122.325 19.274 122.12 19.4645 122.12 19.891V20.31H123.034Z" fill="white" fill-opacity="0.5"/>
<path d="M125.17 24.5299C124.043 24.5299 123.281 23.6844 123.281 22.3971C123.281 21.1098 124.043 20.2566 125.17 20.2566C126.29 20.2566 127.044 21.1098 127.044 22.3971C127.044 23.6844 126.29 24.5299 125.17 24.5299ZM125.17 23.951C126.001 23.951 126.389 23.2197 126.389 22.3971C126.389 21.5744 126.001 20.8356 125.17 20.8356C124.325 20.8356 123.936 21.5744 123.936 22.3971C123.936 23.2197 124.325 23.951 125.17 23.951Z" fill="white" fill-opacity="0.5"/>
<path d="M127.749 24.4461V20.31H128.381V20.9422H128.427C128.579 20.5232 129.006 20.2414 129.493 20.2414C129.592 20.2414 129.76 20.249 129.836 20.2566V20.9193C129.79 20.9041 129.608 20.8736 129.44 20.8736C128.846 20.8736 128.404 21.285 128.404 21.841V24.4461H127.749Z" fill="white" fill-opacity="0.5"/>
<path d="M130.32 24.4461V20.31H130.952V20.9574H131.005C131.181 20.5156 131.577 20.2566 132.118 20.2566C132.658 20.2566 133.024 20.5156 133.222 20.9574H133.268C133.481 20.5309 133.915 20.2566 134.509 20.2566C135.248 20.2566 135.774 20.7061 135.774 21.6811V24.4461H135.119V21.6887C135.119 21.0793 134.73 20.8432 134.281 20.8432C133.702 20.8432 133.374 21.2316 133.374 21.7572V24.4461H132.712V21.6201C132.712 21.1555 132.377 20.8432 131.904 20.8432C131.409 20.8432 130.975 21.2621 130.975 21.8639V24.4461H130.32Z" fill="white" fill-opacity="0.5"/>
<path d="M136.471 23.2731C136.471 22.3209 137.309 22.1076 138.025 22.0543C138.288 22.0353 138.958 22.001 139.145 21.9934V21.6582C139.145 21.1326 138.832 20.8279 138.208 20.8279C137.682 20.8279 137.37 21.0717 137.278 21.384H136.593C136.677 20.7213 137.324 20.2566 138.238 20.2566C138.779 20.2566 139.792 20.4166 139.792 21.7191V24.4461H139.145V23.8824H139.114C138.977 24.1643 138.596 24.5451 137.88 24.5451C137.096 24.5451 136.471 24.0805 136.471 23.2731ZM137.126 23.3035C137.126 23.7377 137.492 23.9586 137.994 23.9586C138.733 23.9586 139.145 23.4635 139.145 22.9455V22.5266C138.95 22.5418 138.299 22.5913 138.101 22.6027C137.507 22.6408 137.126 22.8541 137.126 23.3035Z" fill="white" fill-opacity="0.5"/>
<path d="M142.493 20.31V20.8584H141.624V23.2578C141.624 23.791 141.883 23.8748 142.165 23.8748C142.287 23.8748 142.454 23.8672 142.553 23.8596V24.469C142.454 24.4842 142.287 24.4994 142.096 24.4994C141.548 24.4994 140.961 24.1566 140.961 23.4254V20.8584H140.337V20.31H140.961V19.3197H141.624V20.31H142.493Z" fill="white" fill-opacity="0.5"/>
<path d="M143.182 24.4461V20.31H143.837V24.4461H143.182ZM143.51 19.6244C143.258 19.6244 143.053 19.434 143.053 19.1902C143.053 18.9465 143.258 18.7561 143.51 18.7561C143.761 18.7561 143.974 18.9465 143.974 19.1902C143.974 19.434 143.761 19.6244 143.51 19.6244Z" fill="white" fill-opacity="0.5"/>
<path d="M146.416 24.5299C145.288 24.5299 144.527 23.6844 144.527 22.3971C144.527 21.1098 145.288 20.2566 146.416 20.2566C147.535 20.2566 148.289 21.1098 148.289 22.3971C148.289 23.6844 147.535 24.5299 146.416 24.5299ZM146.416 23.951C147.246 23.951 147.634 23.2197 147.634 22.3971C147.634 21.5744 147.246 20.8356 146.416 20.8356C145.57 20.8356 145.182 21.5744 145.182 22.3971C145.182 23.2197 145.57 23.951 146.416 23.951Z" fill="white" fill-opacity="0.5"/>
<path d="M149.649 21.9629V24.4461H148.994V20.31H149.626V20.9574H149.68C149.878 20.5385 150.259 20.2566 150.891 20.2566C151.729 20.2566 152.285 20.767 152.285 21.8182V24.4461H151.63V21.8639C151.63 21.224 151.279 20.8432 150.693 20.8432C150.091 20.8432 149.649 21.2469 149.649 21.9629Z" fill="white" fill-opacity="0.5"/>
<path d="M157.282 21.384C157.191 21.0412 156.932 20.8127 156.444 20.8127C155.934 20.8127 155.568 21.0869 155.568 21.4373C155.568 21.7115 155.789 21.902 156.277 22.0162L156.894 22.1686C157.632 22.3438 157.998 22.7094 157.998 23.2883C157.998 24.0043 157.412 24.5299 156.376 24.5299C155.446 24.5299 154.89 24.1186 154.784 23.3645H155.469C155.545 23.7682 155.842 23.9586 156.36 23.9586C156.947 23.9586 157.32 23.7148 157.32 23.3264C157.32 23.0369 157.114 22.8389 156.642 22.7322L156.018 22.5875C155.294 22.4199 154.913 22.0238 154.913 21.4754C154.913 20.767 155.53 20.2566 156.444 20.2566C157.297 20.2566 157.838 20.7137 157.922 21.384H157.282Z" fill="white" fill-opacity="0.5"/>
<path d="M159.114 26C158.969 26 158.832 25.9924 158.748 25.9848V25.3982C158.817 25.4059 158.969 25.4135 159.068 25.4135C159.335 25.4135 159.556 25.3906 159.777 24.7889L159.899 24.4766L158.368 20.31H159.084L160.211 23.593H160.257L161.384 20.31H162.1L160.348 25.0402C160.104 25.6877 159.701 26 159.114 26Z" fill="white" fill-opacity="0.5"/>
<path d="M164.968 21.384C164.877 21.0412 164.618 20.8127 164.13 20.8127C163.62 20.8127 163.254 21.0869 163.254 21.4373C163.254 21.7115 163.475 21.902 163.963 22.0162L164.58 22.1686C165.318 22.3438 165.684 22.7094 165.684 23.2883C165.684 24.0043 165.098 24.5299 164.062 24.5299C163.132 24.5299 162.576 24.1186 162.47 23.3645H163.155C163.231 23.7682 163.528 23.9586 164.046 23.9586C164.633 23.9586 165.006 23.7148 165.006 23.3264C165.006 23.0369 164.801 22.8389 164.328 22.7322L163.704 22.5875C162.98 22.4199 162.599 22.0238 162.599 21.4754C162.599 20.767 163.216 20.2566 164.13 20.2566C164.983 20.2566 165.524 20.7137 165.608 21.384H164.968Z" fill="white" fill-opacity="0.5"/>
<path d="M168.187 20.31V20.8584H167.318V23.2578C167.318 23.791 167.577 23.8748 167.859 23.8748C167.981 23.8748 168.148 23.8672 168.247 23.8596V24.469C168.148 24.4842 167.981 24.4994 167.79 24.4994C167.242 24.4994 166.655 24.1566 166.655 23.4254V20.8584H166.031V20.31H166.655V19.3197H167.318V20.31H168.187Z" fill="white" fill-opacity="0.5"/>
<path d="M170.567 24.5299C169.371 24.5299 168.632 23.6844 168.632 22.4123C168.632 21.1402 169.379 20.2566 170.506 20.2566C171.374 20.2566 172.289 20.7898 172.289 22.3209V22.5951H169.287C169.318 23.4711 169.828 23.951 170.567 23.951C171.062 23.951 171.374 23.7377 171.527 23.4787H172.228C172.03 24.1033 171.42 24.5299 170.567 24.5299ZM169.295 22.0391H171.626C171.626 21.3459 171.184 20.8356 170.506 20.8356C169.79 20.8356 169.333 21.3992 169.295 22.0391Z" fill="white" fill-opacity="0.5"/>
<path d="M172.986 24.4461V20.31H173.618V20.9574H173.671C173.846 20.5156 174.242 20.2566 174.783 20.2566C175.324 20.2566 175.69 20.5156 175.888 20.9574H175.933C176.147 20.5309 176.581 20.2566 177.175 20.2566C177.914 20.2566 178.44 20.7061 178.44 21.6811V24.4461H177.784V21.6887C177.784 21.0793 177.396 20.8432 176.947 20.8432C176.368 20.8432 176.04 21.2316 176.04 21.7572V24.4461H175.377V21.6201C175.377 21.1555 175.042 20.8432 174.57 20.8432C174.075 20.8432 173.641 21.2621 173.641 21.8639V24.4461H172.986Z" fill="white" fill-opacity="0.5"/>
<defs>
<clipPath id="clip0_702_11937">
<rect width="30.55" height="26" fill="white" transform="translate(28.3315)"/>
</clipPath>
</defs>
</svg>
