<svg width="14" height="14" viewBox="0 0 14 14" fill="none" xmlns="http://www.w3.org/2000/svg">
<path d="M1.5 7V12.5714C1.5 12.6851 1.55268 12.7941 1.64645 12.8745C1.74021 12.9548 1.86739 13 2 13H12C12.1326 13 12.2598 12.9548 12.3536 12.8745C12.4473 12.7941 12.5 12.6851 12.5 12.5714V7" stroke="#333333" stroke-linecap="square"/>
<path d="M13 6.50002H1C0.867392 6.50002 0.740215 6.44735 0.646447 6.35358C0.552678 6.25981 0.5 6.13263 0.5 6.00002V4.00002L1.72 1.55002C1.80386 1.38359 1.93257 1.2439 2.09159 1.14672C2.25062 1.04954 2.43364 0.998727 2.62 1.00002H11.38C11.5664 0.998727 11.7494 1.04954 11.9084 1.14672C12.0674 1.2439 12.1961 1.38359 12.28 1.55002L13.5 4.00002V6.00002C13.5 6.13263 13.4473 6.25981 13.3536 6.35358C13.2598 6.44735 13.1326 6.50002 13 6.50002Z" stroke="#333333" stroke-linecap="round" stroke-linejoin="round"/>
<path d="M0.5 4H13.5" stroke="#111111" stroke-linecap="round" stroke-linejoin="round"/>
<rect x="4" y="9" width="2.66667" height="4" stroke="#111111" stroke-linejoin="round"/>
</svg>
