<svg width="16" height="17" viewBox="0 0 16 17" fill="none" xmlns="http://www.w3.org/2000/svg">
<path fill-rule="evenodd" clip-rule="evenodd" d="M4.46859 0.5C5.02087 0.5 5.46859 0.947715 5.46859 1.5V2.78571H10.1497V1.5C10.1497 0.947715 10.5975 0.5 11.1497 0.5C11.702 0.5 12.1497 0.947715 12.1497 1.5V2.78571H13.8086C14.7122 2.78571 15.4448 3.55323 15.4448 4.5V5.64286H0.173553V4.5C0.173553 3.55323 0.906107 2.78571 1.80976 2.78571H3.46859V1.5C3.46859 0.947715 3.9163 0.5 4.46859 0.5Z" fill="#666666"/>
<path d="M0.173553 5.64285H15.4448V14.7857C15.4448 15.7325 14.7122 16.5 13.8086 16.5H1.80976C0.906107 16.5 0.173553 15.7325 0.173553 14.7857V5.64285Z" fill="#DDDDDD"/>
<path fill-rule="evenodd" clip-rule="evenodd" d="M2.73538 9.35715C2.73538 8.94293 3.07117 8.60715 3.48538 8.60715L9.22816 8.60715C9.64237 8.60715 9.97816 8.94293 9.97816 9.35715C9.97816 9.77136 9.64237 10.1071 9.22816 10.1071L3.48538 10.1071C3.07117 10.1071 2.73538 9.77136 2.73538 9.35715Z" fill="#666666"/>
<path d="M3.44595 12.7467H11.0816" stroke="#666666" stroke-width="1.5" stroke-linecap="round" stroke-linejoin="round"/>
</svg>
