<svg width="12" height="14" viewBox="0 0 12 14" fill="none" xmlns="http://www.w3.org/2000/svg">
<path d="M7.5 0.5H4.5C3.94772 0.5 3.5 0.947715 3.5 1.5V2C3.5 2.55228 3.94772 3 4.5 3H7.5C8.05228 3 8.5 2.55228 8.5 2V1.5C8.5 0.947715 8.05228 0.5 7.5 0.5Z" stroke="#333333" stroke-linecap="round" stroke-linejoin="round"/>
<path d="M8.88095 1.5H10.4524C10.7302 1.5 10.9967 1.60536 11.1932 1.79289C11.3896 1.98043 11.5 2.23478 11.5 2.5V12.5C11.5 12.7652 11.3896 13.0196 11.1932 13.2071C10.9967 13.3946 10.7302 13.5 10.4524 13.5H1.54762C1.26977 13.5 1.00331 13.3946 0.80684 13.2071C0.610374 13.0196 0.5 12.7652 0.5 12.5V2.5C0.5 2.23478 0.610374 1.98043 0.80684 1.79289C1.00331 1.60536 1.26977 1.5 1.54762 1.5H3.11905" stroke="#333333" stroke-linecap="round" stroke-linejoin="round"/>
<path d="M6.05005 11.5C7.84497 11.5 9.30005 10.0449 9.30005 8.25C9.30005 6.45507 7.84497 5 6.05005 5C4.25512 5 2.80005 6.45507 2.80005 8.25C2.80005 10.0449 4.25512 11.5 6.05005 11.5Z" stroke="#111111" stroke-linecap="round" stroke-linejoin="round"/>
<path d="M8.3501 10.55L3.7501 5.94995" stroke="#111111" stroke-linecap="round" stroke-linejoin="round"/>
</svg>