<svg width="16" height="16" viewBox="0 0 16 16" fill="none" xmlns="http://www.w3.org/2000/svg">
<path d="M11.9999 15.5C13.9329 15.5 15.4999 13.933 15.4999 12C15.4999 10.067 13.9329 8.5 11.9999 8.5C10.0669 8.5 8.49988 10.067 8.49988 12C8.49988 13.933 10.0669 15.5 11.9999 15.5Z" stroke="#157EFB" stroke-linecap="round" stroke-linejoin="round"/>
<path d="M11.9999 10.3846V13.6154" stroke="#157EFB" stroke-linecap="round" stroke-linejoin="round"/>
<path d="M10.3845 12H13.6153" stroke="#157EFB" stroke-linecap="round" stroke-linejoin="round"/>
<path d="M13.4999 6.80001L13.4999 1.50002C13.4999 0.947737 13.0522 0.500023 12.4999 0.500023L1.49991 0.500023C0.947622 0.500023 0.499908 0.947737 0.499908 1.50002L0.499908 9.5C0.499908 10.0523 0.947622 10.5 1.49991 10.5L5.4999 10.5" stroke="#111111" stroke-linecap="round" stroke-linejoin="round"/>
<path d="M9.50166 4.71206C10.1894 4.71206 10.7468 4.15457 10.7468 3.46687C10.7468 2.77917 10.1894 2.22168 9.50166 2.22168C8.81396 2.22168 8.25647 2.77917 8.25647 3.46687C8.25647 4.15457 8.81396 4.71206 9.50166 4.71206Z" stroke="#111111" stroke-linecap="round" stroke-linejoin="round"/>
<path d="M0.499878 4.84898C0.976632 4.75789 1.46102 4.71268 1.9464 4.71397C3.62872 4.67593 5.26984 5.23685 6.57692 6.29665C6.75559 6.44151 6.92642 6.59441 7.08902 6.75466" stroke="#111111" stroke-linecap="round" stroke-linejoin="round"/>
</svg>
