<svg width="20" height="20" viewBox="0 0 20 20" fill="none" xmlns="http://www.w3.org/2000/svg">
<path d="M17.7143 17.8571C17.7143 18.236 17.5638 18.5993 17.2959 18.8672C17.028 19.1352 16.6646 19.2857 16.2857 19.2857H3.42857C3.04969 19.2857 2.68633 19.1352 2.41842 18.8672C2.15051 18.5993 2 18.236 2 17.8571V2.1428C2 1.76392 2.15051 1.40056 2.41842 1.13265C2.68633 0.864743 3.04969 0.714233 3.42857 0.714233H11.5858C11.851 0.714233 12.1054 0.81959 12.2929 1.00713L17.4214 6.13563C17.6089 6.32316 17.7143 6.57752 17.7143 6.84273V17.8571Z" stroke="#111111" stroke-linecap="round" stroke-linejoin="round"/>
<path d="M10.655 9.10718L14.2265 9.10718" stroke="#111111" stroke-linecap="round" stroke-linejoin="round"/>
<path d="M10.655 14.0625L14.2265 14.0625" stroke="#111111" stroke-linecap="round" stroke-linejoin="round"/>
<path d="M5.13062 13.9816L6.3276 15.1786L8.32258 12.3856" stroke="#157EFB" stroke-linecap="round" stroke-linejoin="round"/>
<path d="M5.13062 8.93692L6.3276 10.1339L8.32258 7.34094" stroke="#157EFB" stroke-linecap="round" stroke-linejoin="round"/>
</svg>
