<svg width="14" height="14" viewBox="0 0 14 14" fill="none" xmlns="http://www.w3.org/2000/svg">
<path d="M12.5 12.5C12.5 12.7652 12.3946 13.0196 12.2071 13.2071C12.0196 13.3946 11.7652 13.5 11.5 13.5H2.5C2.23478 13.5 1.98043 13.3946 1.79289 13.2071C1.60536 13.0196 1.5 12.7652 1.5 12.5V1.5C1.5 1.23478 1.60536 0.98043 1.79289 0.792893C1.98043 0.605357 2.23478 0.5 2.5 0.5H8.08579C8.351 0.5 8.60536 0.605357 8.79289 0.792893L12.2071 4.20711C12.3946 4.39464 12.5 4.649 12.5 4.91421V12.5Z" stroke="#111111" stroke-linecap="round" stroke-linejoin="round"/>
<path d="M7.55859 6.375L10.0586 6.375" stroke="#111111" stroke-linecap="round" stroke-linejoin="round"/>
<path d="M7.55859 9.84375L10.0586 9.84375" stroke="#111111" stroke-linecap="round" stroke-linejoin="round"/>
<path d="M3.69141 9.78711L4.5293 10.625L5.92578 8.66992" stroke="#111111" stroke-linecap="round" stroke-linejoin="round"/>
<path d="M3.69141 6.25586L4.5293 7.09375L5.92578 5.13867" stroke="#111111" stroke-linecap="round" stroke-linejoin="round"/>
</svg>
