<svg width="20" height="21" viewBox="0 0 20 21" fill="none" xmlns="http://www.w3.org/2000/svg">
<path d="M10.2595 5.85266L15.7704 15.3978" stroke="white" stroke-width="1.4" stroke-linecap="round" stroke-linejoin="round"/>
<path d="M15.4819 14.8962L1.89689 18.0506L1.02678 16.5436L10.5511 6.35583" stroke="white" stroke-width="1.4" stroke-linecap="round" stroke-linejoin="round"/>
<path d="M4.85212 17.3637L5.60015 18.6593C5.87152 19.1244 6.31654 19.4626 6.83731 19.5996C7.35807 19.7366 7.91193 19.6611 8.37703 19.3898C8.84214 19.1184 9.18039 18.6734 9.31738 18.1526C9.45437 17.6318 9.37888 17.078 9.10751 16.6129L8.98772 16.4054" stroke="white" stroke-width="1.4" stroke-linecap="round" stroke-linejoin="round"/>
<path d="M10.6342 3.12431V1.33362" stroke="white" stroke-width="1.4" stroke-linecap="round" stroke-linejoin="round"/>
<path d="M17.495 9.98511L19.2857 9.98511" stroke="white" stroke-width="1.4" stroke-linecap="round" stroke-linejoin="round"/>
<path d="M1.98384 9.98511L3.77453 9.98511" stroke="white" stroke-width="1.4" stroke-linecap="round" stroke-linejoin="round"/>
<path d="M4.51589 3.86746L5.7821 5.13367" stroke="white" stroke-width="1.4" stroke-linecap="round" stroke-linejoin="round"/>
<path d="M15.4856 5.13364L16.7518 3.86743" stroke="white" stroke-width="1.4" stroke-linecap="round" stroke-linejoin="round"/>
</svg>
