<svg width="16" height="16" viewBox="0 0 16 16" fill="none" xmlns="http://www.w3.org/2000/svg">
<path d="M8.0001 15.4286C12.1028 15.4286 15.4287 12.1027 15.4287 7.99998C15.4287 3.8973 12.1028 0.571411 8.0001 0.571411C3.89742 0.571411 0.571533 3.8973 0.571533 7.99998C0.571533 12.1027 3.89742 15.4286 8.0001 15.4286Z" stroke="#666666" stroke-linecap="round" stroke-linejoin="round"/>
<path d="M6.28564 11.4286H9.71422" stroke="#666666" stroke-linecap="round" stroke-linejoin="round"/>
<path d="M8.00003 11.4286V7.42859H6.85718" stroke="#666666" stroke-linecap="round" stroke-linejoin="round"/>
<path d="M8.00007 4.85707C7.84227 4.85707 7.71436 4.72915 7.71436 4.57136C7.71436 4.41356 7.84227 4.28564 8.00007 4.28564" stroke="#666666" stroke-linecap="round" stroke-linejoin="round"/>
<path d="M8 4.85707C8.1578 4.85707 8.28571 4.72915 8.28571 4.57136C8.28571 4.41356 8.1578 4.28564 8 4.28564" stroke="#666666" stroke-linecap="round" stroke-linejoin="round"/>
</svg>
