<svg width="17" height="16" viewBox="0 0 17 16" fill="none" xmlns="http://www.w3.org/2000/svg">
<path d="M15.4999 8.41818V4.31818L10.8846 6.31818L3.38455 0.5L0.499939 3.5V12.5C0.499939 13.0523 1.01653 13.5 1.65379 13.5H7.6363" stroke="#111111" stroke-linecap="round" stroke-linejoin="round"/>
<path d="M11.6153 8.5L10.2692 9.84615L11.6153 11.1923" stroke="#157EFB" stroke-linecap="round" stroke-linejoin="round"/>
<path d="M9.99994 12.6731C9.99994 13.2322 10.1657 13.7787 10.4764 14.2436C10.787 14.7085 11.2285 15.0708 11.745 15.2848C12.2616 15.4988 12.83 15.5547 13.3784 15.4457C13.9267 15.3366 14.4304 15.0673 14.8258 14.672C15.2211 14.2766 15.4904 13.7729 15.5995 13.2246C15.7085 12.6762 15.6526 12.1078 15.4386 11.5912C15.2246 11.0747 14.8623 10.6332 14.3974 10.3226C13.9325 10.0119 13.386 9.84613 12.8269 9.84613H10.2692" stroke="#157EFB" stroke-linecap="round" stroke-linejoin="round"/>
</svg>
