<svg width="16" height="16" viewBox="0 0 16 16" fill="none" xmlns="http://www.w3.org/2000/svg">
<path d="M5.7143 15.4286H1.7143C1.08312 15.4286 0.571447 14.9169 0.571447 14.2857L0.571447 1.7143C0.571447 1.08312 1.08312 0.571447 1.7143 0.571447L14.2857 0.571447C14.9169 0.571447 15.4286 1.08312 15.4286 1.7143V5.7143" stroke="#111111" stroke-linecap="round" stroke-linejoin="round"/>
<path d="M2 15.4285L5.14286 11.9999" stroke="#111111" stroke-linecap="round" stroke-linejoin="round"/>
<path d="M5.14287 6.85716C6.08965 6.85716 6.85716 6.08965 6.85716 5.14287C6.85716 4.1961 6.08965 3.42859 5.14287 3.42859C4.1961 3.42859 3.42859 4.1961 3.42859 5.14287C3.42859 6.08965 4.1961 6.85716 5.14287 6.85716Z" stroke="#111111" stroke-linecap="round" stroke-linejoin="round"/>
<path d="M15.4286 14.8132C15.4286 14.9764 15.3638 15.1329 15.2483 15.2483C15.1329 15.3638 14.9764 15.4286 14.8132 15.4286H8.04397C7.88076 15.4286 7.72424 15.3638 7.60883 15.2483C7.49342 15.1329 7.42859 14.9764 7.42859 14.8132V10.1424C7.42927 9.981 7.49336 9.82629 7.60705 9.71167L9.71167 7.60705C9.82629 7.49336 9.981 7.42927 10.1424 7.42859H14.8132C14.9764 7.42859 15.1329 7.49342 15.2483 7.60883C15.3638 7.72424 15.4286 7.88076 15.4286 8.04397V14.8132Z" stroke="#157EFB" stroke-linecap="round" stroke-linejoin="round"/>
<path d="M13.5825 15.4285V12.6593C13.5825 12.5777 13.5501 12.4994 13.4924 12.4417C13.4346 12.384 13.3564 12.3516 13.2748 12.3516H9.58247C9.50087 12.3516 9.4226 12.384 9.3649 12.4417C9.3072 12.4994 9.27478 12.5777 9.27478 12.6593V15.4285" stroke="#157EFB" stroke-linecap="round" stroke-linejoin="round"/>
<path d="M13.5824 7.42859V9.58244C13.5824 9.66404 13.55 9.7423 13.4923 9.80001C13.4346 9.85771 13.3563 9.89013 13.2747 9.89013H10.8132C10.7316 9.89013 10.6533 9.85771 10.5956 9.80001C10.5379 9.7423 10.5055 9.66404 10.5055 9.58244V7.42859" stroke="#157EFB" stroke-linecap="round" stroke-linejoin="round"/>
</svg>
