<svg width="16" height="17" viewBox="0 0 16 17" fill="none" xmlns="http://www.w3.org/2000/svg">
<path fill-rule="evenodd" clip-rule="evenodd" d="M1.17157 15.3284C2.34315 16.5 4.22876 16.5 8 16.5C11.7712 16.5 13.6569 16.5 14.8284 15.3284C16 14.1569 16 12.2712 16 8.5C16 7.38099 16 6.42799 15.9694 5.61041C15.3363 6.16434 14.5073 6.5 13.6 6.5C11.6118 6.5 10 4.88823 10 2.9C10 1.99267 10.3357 1.16374 10.8896 0.530607C10.072 0.5 9.11901 0.5 8 0.5C4.22876 0.5 2.34315 0.5 1.17157 1.67157C0 2.84315 0 4.72876 0 8.5C0 12.2712 0 14.1569 1.17157 15.3284Z" fill="#D9D9D9"/>
<path d="M13.6002 5.3C14.9257 5.3 16.0002 4.22548 16.0002 2.9C16.0002 1.57452 14.9257 0.5 13.6002 0.5C12.2747 0.5 11.2002 1.57452 11.2002 2.9C11.2002 4.22548 12.2747 5.3 13.6002 5.3Z" fill="#666666"/>
<path d="M4 8.5H8" stroke="#666666" stroke-width="1.5" stroke-linecap="round" stroke-linejoin="round"/>
<path d="M4 12.5H11.2" stroke="#666666" stroke-width="1.5" stroke-linecap="round" stroke-linejoin="round"/>
</svg>
