<svg width="20" height="21" viewBox="0 0 20 21" fill="none" xmlns="http://www.w3.org/2000/svg">
<path d="M4.64286 9.07138C6.81255 9.07138 8.57143 7.3125 8.57143 5.1428C8.57143 2.97311 6.81255 1.21423 4.64286 1.21423C2.47317 1.21423 0.714286 2.97311 0.714286 5.1428C0.714286 7.3125 2.47317 9.07138 4.64286 9.07138Z" stroke="white" stroke-width="1.4" stroke-linecap="round" stroke-linejoin="round"/>
<path d="M15.3571 9.07138C17.5268 9.07138 19.2857 7.3125 19.2857 5.1428C19.2857 2.97311 17.5268 1.21423 15.3571 1.21423C13.1875 1.21423 11.4286 2.97311 11.4286 5.1428C11.4286 7.3125 13.1875 9.07138 15.3571 9.07138Z" stroke="white" stroke-width="1.4" stroke-linecap="round" stroke-linejoin="round"/>
<path d="M4.64286 19.7857C6.81255 19.7857 8.57143 18.0269 8.57143 15.8572C8.57143 13.6875 6.81255 11.9286 4.64286 11.9286C2.47317 11.9286 0.714286 13.6875 0.714286 15.8572C0.714286 18.0269 2.47317 19.7857 4.64286 19.7857Z" stroke="white" stroke-width="1.4" stroke-linecap="round" stroke-linejoin="round"/>
<path d="M15.3571 19.7857C17.5268 19.7857 19.2857 18.0269 19.2857 15.8572C19.2857 13.6875 17.5268 11.9286 15.3571 11.9286C13.1875 11.9286 11.4286 13.6875 11.4286 15.8572C11.4286 18.0269 13.1875 19.7857 15.3571 19.7857Z" stroke="white" stroke-width="1.4" stroke-linecap="round" stroke-linejoin="round"/>
</svg>
