<svg width="21" height="21" viewBox="0 0 21 21" fill="none" xmlns="http://www.w3.org/2000/svg">
<path fill-rule="evenodd" clip-rule="evenodd" d="M8.3398 15.2448C8.41096 15.046 8.59937 14.9133 8.81056 14.9133H11.367C11.5782 14.9133 11.7666 15.046 11.8377 15.2448L12.9078 18.2347H14.3745C14.7887 18.2347 15.1245 18.5705 15.1245 18.9847C15.1245 19.3989 14.7887 19.7347 14.3745 19.7347H5.80304C5.38883 19.7347 5.05304 19.3989 5.05304 18.9847C5.05304 18.5705 5.38883 18.2347 5.80304 18.2347H7.26971L8.3398 15.2448Z" fill="#51BD63"/>
<path fill-rule="evenodd" clip-rule="evenodd" d="M2.16987 1.2056C1.25718 1.2056 0.517303 1.94548 0.517303 2.85816V13.6959C0.517303 14.6086 1.25718 15.3485 2.16987 15.3485H18.0076C18.9203 15.3485 19.6602 14.6086 19.6602 13.6959V2.85816C19.6602 1.94548 18.9203 1.2056 18.0076 1.2056H2.16987Z" fill="white"/>
<path fill-rule="evenodd" clip-rule="evenodd" d="M8.68293 5.78067C8.68293 6.38473 8.19324 6.87442 7.58918 6.87442C6.98512 6.87442 6.49543 6.38473 6.49543 5.78067C6.49543 5.17661 6.98512 4.68692 7.58918 4.68692C8.19324 4.68692 8.68293 5.17661 8.68293 5.78067ZM6.16039 9.36527C6.40652 9.12326 6.80223 9.12661 7.04424 9.37275C7.60655 9.94466 8.64756 10.5125 10.0888 10.5125C11.5301 10.5125 12.5711 9.94466 13.1334 9.37275C13.3754 9.12661 13.7711 9.12326 14.0173 9.36527C14.2634 9.60727 14.2668 10.003 14.0248 10.2491C13.2261 11.0614 11.8634 11.7625 10.0888 11.7625C8.3143 11.7625 6.95157 11.0614 6.15291 10.2491C5.9109 10.003 5.91425 9.60727 6.16039 9.36527ZM12.5888 6.87442C13.1929 6.87442 13.6826 6.38473 13.6826 5.78067C13.6826 5.17661 13.1929 4.68692 12.5888 4.68692C11.9848 4.68692 11.4951 5.17661 11.4951 5.78067C11.4951 6.38473 11.9848 6.87442 12.5888 6.87442Z" fill="#51BD63"/>
</svg>
