<svg width="10" height="12" viewBox="0 0 10 12" fill="none" xmlns="http://www.w3.org/2000/svg">
<path fill-rule="evenodd" clip-rule="evenodd" d="M2.25 0.25C1.42157 0.25 0.75 0.921573 0.75 1.75V10.25C0.75 11.0784 1.42157 11.75 2.25 11.75H7.75C8.57843 11.75 9.25 11.0784 9.25 10.25V1.75C9.25 0.921573 8.57843 0.25 7.75 0.25H2.25ZM2.99969 2.125C2.65452 2.125 2.37469 2.40482 2.37469 2.75C2.37469 3.09518 2.65452 3.375 2.99969 3.375H6.99969C7.34487 3.375 7.62469 3.09518 7.62469 2.75C7.62469 2.40482 7.34487 2.125 6.99969 2.125H2.99969ZM2.37518 5.25C2.37518 4.90482 2.65501 4.625 3.00018 4.625H7.00018C7.34536 4.625 7.62518 4.90482 7.62518 5.25C7.62518 5.59518 7.34536 5.875 7.00018 5.875H3.00018C2.65501 5.875 2.37518 5.59518 2.37518 5.25ZM2.99943 7.125C2.65425 7.125 2.37443 7.40482 2.37443 7.75C2.37443 8.09518 2.65425 8.375 2.99943 8.375H4.99943C5.3446 8.375 5.62443 8.09518 5.62443 7.75C5.62443 7.40482 5.3446 7.125 4.99943 7.125H2.99943Z" fill="#CCCCCC"/>
</svg>
