<svg width="16" height="16" viewBox="0 0 16 16" fill="none" xmlns="http://www.w3.org/2000/svg">
<path d="M8.56 12H10.8457" stroke="#157EFB" stroke-linecap="round" stroke-linejoin="round"/>
<path d="M13.1314 12H15.4171" stroke="#157EFB" stroke-linecap="round" stroke-linejoin="round"/>
<path d="M2.50285 5.63428L9.13142 9.43999" stroke="#111111" stroke-linecap="round" stroke-linejoin="round"/>
<path d="M3.14285 5.71427C4.56302 5.71427 5.71428 4.563 5.71428 3.14284C5.71428 1.72268 4.56302 0.571411 3.14285 0.571411C1.72269 0.571411 0.571426 1.72268 0.571426 3.14284C0.571426 4.563 1.72269 5.71427 3.14285 5.71427Z" stroke="#111111" stroke-linecap="round" stroke-linejoin="round"/>
<path d="M2.50285 10.3657L15.4286 2.91431" stroke="#111111" stroke-linecap="round" stroke-linejoin="round"/>
<path d="M3.14285 15.4286C4.56302 15.4286 5.71428 14.2773 5.71428 12.8571C5.71428 11.437 4.56302 10.2857 3.14285 10.2857C1.72269 10.2857 0.571426 11.437 0.571426 12.8571C0.571426 14.2773 1.72269 15.4286 3.14285 15.4286Z" stroke="#111111" stroke-linecap="round" stroke-linejoin="round"/>
</svg>
