<svg width="14" height="14" viewBox="0 0 14 14" fill="none" xmlns="http://www.w3.org/2000/svg">
<path d="M3.38892 12.8333C3.38892 11.6367 5.00567 10.6666 7.00003 10.6666C8.99439 10.6666 10.6111 11.6367 10.6111 12.8333" stroke="#111111" stroke-linecap="round" stroke-linejoin="round"/>
<path d="M11.3334 8.68018C12.6087 9.01452 13.5 9.77809 13.5 10.6666" stroke="#111111" stroke-linecap="round" stroke-linejoin="round"/>
<path d="M2.66667 8.68018C1.39129 9.01452 0.5 9.77809 0.5 10.6666" stroke="#111111" stroke-linecap="round" stroke-linejoin="round"/>
<path d="M7.00004 8.49996C8.19666 8.49996 9.16671 7.52991 9.16671 6.33329C9.16671 5.13668 8.19666 4.16663 7.00004 4.16663C5.80342 4.16663 4.83337 5.13668 4.83337 6.33329C4.83337 7.52991 5.80342 8.49996 7.00004 8.49996Z" stroke="#111111" stroke-linecap="round" stroke-linejoin="round"/>
<path d="M11.3333 5.78163C11.7766 5.3849 12.0556 4.80836 12.0556 4.16667C12.0556 2.97005 11.0855 2 9.8889 2C9.33398 2 8.82778 2.20862 8.44446 2.5517" stroke="#111111" stroke-linecap="round" stroke-linejoin="round"/>
<path d="M2.66668 5.78163C2.22342 5.3849 1.94446 4.80836 1.94446 4.16667C1.94446 2.97005 2.91451 2 4.11112 2C4.66605 2 5.17224 2.20862 5.55557 2.5517" stroke="#111111" stroke-linecap="round" stroke-linejoin="round"/>
</svg>
