<svg width="16" height="16" viewBox="0 0 16 16" fill="none" xmlns="http://www.w3.org/2000/svg">
<path d="M12.0385 12.6429H14.3462C14.6522 12.6429 14.9457 12.5213 15.162 12.3049C15.3784 12.0885 15.5 11.7951 15.5 11.489V6.29673C15.5 5.99071 15.3784 5.69723 15.162 5.48084C14.9457 5.26445 14.6522 5.14288 14.3462 5.14288H1.65385C1.34783 5.14288 1.05434 5.26445 0.837954 5.48084C0.621566 5.69723 0.5 5.99071 0.5 6.29673V11.489C0.5 11.7951 0.621566 12.0885 0.837954 12.3049C1.05434 12.5213 1.34783 12.6429 1.65385 12.6429H3.96154" stroke="#111111" stroke-linecap="round" stroke-linejoin="round"/>
<path d="M4 11V14.9375C4 15.0867 4.0602 15.2298 4.16737 15.3352C4.27453 15.4407 4.41988 15.5 4.57143 15.5H11.4286C11.5801 15.5 11.7255 15.4407 11.8326 15.3352C11.9398 15.2298 12 15.0867 12 14.9375V11H4Z" stroke="#157EFB" stroke-linecap="round" stroke-linejoin="round"/>
<path d="M12 5.07143V1.07143C12 0.919876 11.9398 0.774531 11.8326 0.667368C11.7255 0.560204 11.5801 0.5 11.4286 0.5H4.57143C4.41988 0.5 4.27453 0.560204 4.16737 0.667368C4.0602 0.774531 4 0.919876 4 1.07143V5.07143" stroke="#111111" stroke-linecap="round" stroke-linejoin="round"/>
<path d="M13 8H11" stroke="#111111" stroke-linecap="round" stroke-linejoin="round"/>
</svg>
