<svg width="16" height="16" viewBox="0 0 16 16" fill="none" xmlns="http://www.w3.org/2000/svg">
<path d="M8.0001 15.4286C12.1028 15.4286 15.4287 12.1027 15.4287 8.00001C15.4287 3.89733 12.1028 0.571442 8.0001 0.571442C3.89742 0.571442 0.571533 3.89733 0.571533 8.00001C0.571533 12.1027 3.89742 15.4286 8.0001 15.4286Z" stroke="#111111" stroke-linecap="round" stroke-linejoin="round"/>
<path d="M6.28564 11.4286H9.71422" stroke="#157EFB" stroke-linecap="round" stroke-linejoin="round"/>
<path d="M8.00003 11.4286V7.42856H6.85718" stroke="#157EFB" stroke-linecap="round" stroke-linejoin="round"/>
<path d="M8.00007 4.85713C7.84227 4.85713 7.71436 4.72922 7.71436 4.57142C7.71436 4.41362 7.84227 4.28571 8.00007 4.28571" stroke="#157EFB" stroke-linecap="round" stroke-linejoin="round"/>
<path d="M8.00012 4.85713C8.15792 4.85713 8.28584 4.72922 8.28584 4.57142C8.28584 4.41362 8.15792 4.28571 8.00012 4.28571" stroke="#157EFB" stroke-linecap="round" stroke-linejoin="round"/>
</svg>
