<svg width="20" height="20" viewBox="0 0 20 20" fill="none" xmlns="http://www.w3.org/2000/svg">
<path d="M10.6999 1.55716L12.9714 6.14287C13.023 6.25927 13.1043 6.36008 13.2071 6.43528C13.3098 6.51048 13.4305 6.55743 13.5571 6.57144L18.5714 7.3143C18.7166 7.33296 18.8534 7.39255 18.966 7.48609C19.0786 7.57964 19.1623 7.70329 19.2072 7.84261C19.2521 7.98192 19.2565 8.13114 19.2198 8.27285C19.1831 8.41455 19.1069 8.54289 18.9999 8.64287L15.3857 12.2286C15.2934 12.3148 15.2242 12.4226 15.1843 12.5424C15.1443 12.6622 15.135 12.79 15.1571 12.9143L16.0285 17.9572C16.0537 18.1021 16.0378 18.2511 15.9825 18.3874C15.9272 18.5237 15.8347 18.6417 15.7156 18.7281C15.5966 18.8144 15.4556 18.8656 15.3089 18.8758C15.1622 18.886 15.0155 18.8548 14.8857 18.7857L10.3714 16.4C10.2558 16.3433 10.1287 16.3138 9.99994 16.3138C9.87117 16.3138 9.74411 16.3433 9.62851 16.4L5.11423 18.7857C4.98435 18.8548 4.83771 18.886 4.69098 18.8758C4.54425 18.8656 4.40333 18.8144 4.28425 18.7281C4.16517 18.6417 4.07271 18.5237 4.0174 18.3874C3.96209 18.2511 3.94614 18.1021 3.97137 17.9572L4.8428 12.8572C4.86489 12.7329 4.85554 12.605 4.81562 12.4853C4.7757 12.3655 4.70647 12.2576 4.61423 12.1714L0.957086 8.64287C0.848889 8.54015 0.7728 8.40826 0.738034 8.26318C0.703269 8.1181 0.711319 7.96604 0.76121 7.82544C0.811101 7.68484 0.900691 7.56172 1.01913 7.471C1.13757 7.38028 1.27977 7.32585 1.42851 7.3143L6.4428 6.57144C6.56937 6.55743 6.69005 6.51048 6.79282 6.43528C6.89559 6.36008 6.97685 6.25927 7.02851 6.14287L9.29994 1.55716C9.3618 1.4236 9.46057 1.31052 9.58461 1.23128C9.70864 1.15203 9.85276 1.10992 9.99994 1.10992C10.1471 1.10992 10.2912 1.15203 10.4153 1.23128C10.5393 1.31052 10.6381 1.4236 10.6999 1.55716Z" stroke="#BBBBBB" stroke-linecap="round" stroke-linejoin="round"/>
</svg>
