<svg width="21" height="21" viewBox="0 0 21 21" fill="none" xmlns="http://www.w3.org/2000/svg">
<path d="M5.08875 18.9913L16.8509 18.9913V14.7056L5.08875 14.7056C4.52043 14.7056 3.97538 14.9314 3.57352 15.3332C3.17166 15.7351 2.94589 16.2802 2.94589 16.8485C2.94589 17.4168 3.17166 17.9618 3.57352 18.3637C3.97538 18.7656 4.52043 18.9913 5.08875 18.9913Z" fill="#EB8579"/>
<path fill-rule="evenodd" clip-rule="evenodd" d="M2.19589 3.27704V16.6699C2.19589 18.3662 3.57102 19.7413 5.26732 19.7413H17.2316C17.6458 19.7413 17.9816 19.4055 17.9816 18.9913C17.9816 18.5771 17.6458 18.2413 17.2316 18.2413H5.26732C4.39945 18.2413 3.69589 17.5378 3.69589 16.6699C3.69589 15.802 4.39945 15.0985 5.26732 15.0985H17.2316C17.6458 15.0985 17.9816 14.7627 17.9816 14.3485V3.27704C17.9816 1.67936 16.6864 0.384186 15.0887 0.384186H5.08875C3.49107 0.384186 2.19589 1.67936 2.19589 3.27704Z" fill="white"/>
<path d="M5.74377 5.16992L13.7438 5.16992" stroke="#EB8579" stroke-width="1.2" stroke-linecap="round" stroke-linejoin="round"/>
<path d="M5.74377 8.12524L10.7438 8.12524" stroke="#EB8579" stroke-width="1.2" stroke-linecap="round" stroke-linejoin="round"/>
</svg>
