<svg width="16" height="16" viewBox="0 0 16 16" fill="none" xmlns="http://www.w3.org/2000/svg">
<path d="M8.0001 15.4286C12.1028 15.4286 15.4287 12.1027 15.4287 8.00001C15.4287 3.89733 12.1028 0.571442 8.0001 0.571442C3.89742 0.571442 0.571533 3.89733 0.571533 8.00001C0.571533 12.1027 3.89742 15.4286 8.0001 15.4286Z" fill="white" stroke="#111111" stroke-linecap="round" stroke-linejoin="round"/>
<path d="M1.14282 10.8572H3.14282C3.67326 10.8572 4.18196 10.6465 4.55704 10.2714C4.93211 9.89638 5.14282 9.38767 5.14282 8.85723V7.14295C5.14282 6.61251 5.35354 6.10381 5.72861 5.72873C6.10368 5.35366 6.61239 5.14295 7.14282 5.14295C7.67326 5.14295 8.18196 4.93223 8.55704 4.55716C8.93211 4.18209 9.14282 3.67338 9.14282 3.14295V0.65152" stroke="#157EFB" stroke-linecap="round" stroke-linejoin="round"/>
<path d="M15.4285 7.8857C14.8563 7.5888 14.2218 7.43211 13.5771 7.42856H11.1428C10.6124 7.42856 10.1037 7.63927 9.72861 8.01434C9.35354 8.38942 9.14282 8.89813 9.14282 9.42856C9.14282 9.95899 9.35354 10.4677 9.72861 10.8428C10.1037 11.2178 10.6124 11.4286 11.1428 11.4286C11.5217 11.4286 11.8851 11.5791 12.153 11.847C12.4209 12.1149 12.5714 12.4782 12.5714 12.8571V13.8514" stroke="#157EFB" stroke-linecap="round" stroke-linejoin="round"/>
</svg>
