<svg width="12" height="12" viewBox="0 0 12 12" fill="none" xmlns="http://www.w3.org/2000/svg">
<path d="M3.14805 3.14367C3.98806 2.59782 4.9614 2.19226 6.00028 2.19226C8.36105 2.19226 10.3834 4.28652 11.2718 5.36221C11.4121 5.53712 11.4898 5.76438 11.4898 6C11.4898 6.23563 11.4121 6.46288 11.2718 6.6378C10.7821 7.23074 9.94782 8.13318 8.90227 8.82374M7.26951 9.61279C6.86135 9.73621 6.43659 9.80774 6.00028 9.80774C3.63951 9.80774 1.61721 7.71349 0.728744 6.6378C0.588418 6.46288 0.510742 6.23563 0.510742 6C0.510742 5.76438 0.588418 5.53712 0.728744 5.36221C1.01024 5.0214 1.40554 4.57834 1.88937 4.13204" stroke="#111111" stroke-linecap="round" stroke-linejoin="round"/>
<path d="M7.19664 7.19662C7.85753 6.53573 7.85753 5.46422 7.19664 4.80333C6.53575 4.14244 5.46425 4.14244 4.80336 4.80333" stroke="#111111" stroke-linecap="round" stroke-linejoin="round"/>
<path d="M11.5 11.5L0.499969 0.5" stroke="#111111" stroke-linecap="round" stroke-linejoin="round"/>
</svg>
