<svg width="17" height="16" viewBox="0 0 17 16" fill="none" xmlns="http://www.w3.org/2000/svg">
<path fill-rule="evenodd" clip-rule="evenodd" d="M5 0C5.55228 0 6 0.447715 6 1V2.28571H11V1C11 0.447715 11.4477 0 12 0C12.5523 0 13 0.447715 13 1V2.28571H14.7857C15.7325 2.28571 16.5 3.05323 16.5 4V5.14286H0.5V4C0.5 3.05323 1.26751 2.28571 2.21429 2.28571H4V1C4 0.447715 4.44772 0 5 0Z" fill="#666666"/>
<path d="M0.5 5.14285H16.5V14.2857C16.5 15.2325 15.7325 16 14.7857 16H2.21429C1.26751 16 0.5 15.2325 0.5 14.2857V5.14285Z" fill="#DDDDDD"/>
<path fill-rule="evenodd" clip-rule="evenodd" d="M3.21997 8.85715C3.21997 8.44293 3.55576 8.10715 3.96997 8.10715L9.98681 8.10715C10.401 8.10715 10.7368 8.44293 10.7368 8.85715C10.7368 9.27136 10.401 9.60715 9.98681 9.60715L3.96997 9.60715C3.55576 9.60715 3.21997 9.27136 3.21997 8.85715Z" fill="#666666"/>
<path d="M3.92847 12.2467H11.9285" stroke="#666666" stroke-width="1.5" stroke-linecap="round" stroke-linejoin="round"/>
</svg>
