<svg width="16" height="16" viewBox="0 0 16 16" fill="none" xmlns="http://www.w3.org/2000/svg">
<path d="M9.7143 4.00001V2.85715C9.7143 2.55405 9.5939 2.26336 9.37957 2.04903C9.16524 1.8347 8.87455 1.71429 8.57145 1.71429H7.42859" stroke="#111111" stroke-linecap="round" stroke-linejoin="round"/>
<path d="M4.57144 12H1.7143C1.41119 12 1.1205 11.8796 0.906177 11.6653C0.691849 11.4509 0.571442 11.1603 0.571442 10.8572V2.85715C0.571442 2.55405 0.691849 2.26336 0.906177 2.04903C1.1205 1.8347 1.41119 1.71429 1.7143 1.71429H2.85716" stroke="#111111" stroke-linecap="round" stroke-linejoin="round"/>
<path d="M14.2857 6.28571H8.57145C7.94026 6.28571 7.42859 6.79738 7.42859 7.42856V14.2857C7.42859 14.9169 7.94026 15.4286 8.57145 15.4286H14.2857C14.9169 15.4286 15.4286 14.9169 15.4286 14.2857V7.42856C15.4286 6.79738 14.9169 6.28571 14.2857 6.28571Z" stroke="#157EFB" stroke-linecap="round" stroke-linejoin="round"/>
<path d="M7.7143 0.571411H2.57144L3.04001 2.42284C3.06856 2.54676 3.13843 2.65727 3.23813 2.7362C3.33783 2.81513 3.46142 2.85778 3.58858 2.85713H6.69716C6.82432 2.85778 6.94791 2.81513 7.04761 2.7362C7.14731 2.65727 7.21718 2.54676 7.24573 2.42284L7.7143 0.571411Z" stroke="#111111" stroke-linecap="round" stroke-linejoin="round"/>
<path d="M9.71429 9.71429H13.1429" stroke="#157EFB" stroke-linecap="round" stroke-linejoin="round"/>
<path d="M9.71429 12H13.1429" stroke="#157EFB" stroke-linecap="round" stroke-linejoin="round"/>
</svg>
