<svg width="16" height="16" viewBox="0 0 16 16" fill="none" xmlns="http://www.w3.org/2000/svg">
<path d="M14.9614 0.5H9.03834C8.74096 0.5 8.49988 0.741077 8.49988 1.03846V6.96154C8.49988 7.25892 8.74096 7.5 9.03834 7.5H14.9614C15.2588 7.5 15.4999 7.25892 15.4999 6.96154V1.03846C15.4999 0.741077 15.2588 0.5 14.9614 0.5Z" stroke="#111111" stroke-linecap="round" stroke-linejoin="round"/>
<path d="M6.96142 8.5H1.03834C0.740955 8.5 0.499878 8.74108 0.499878 9.03846V14.9615C0.499878 15.2589 0.740955 15.5 1.03834 15.5H6.96142C7.2588 15.5 7.49988 15.2589 7.49988 14.9615V9.03846C7.49988 8.74108 7.2588 8.5 6.96142 8.5Z" stroke="#111111" stroke-linecap="round" stroke-linejoin="round"/>
<path d="M11.9999 9V15" stroke="#157EFB" stroke-width="1.4" stroke-linecap="square" stroke-linejoin="round"/>
<path d="M8.99994 12H14.9999" stroke="#157EFB" stroke-width="1.4" stroke-linecap="square" stroke-linejoin="round"/>
</svg>
