<svg width="16" height="16" viewBox="0 0 16 16" fill="none" xmlns="http://www.w3.org/2000/svg">
<path fill-rule="evenodd" clip-rule="evenodd" d="M6.50679 12.1119C6.57795 11.9131 6.76636 11.7804 6.97755 11.7804H9.02269C9.23388 11.7804 9.42229 11.9131 9.49345 12.1119L10.3079 14.3876H11.4287C11.8429 14.3876 12.1787 14.7233 12.1787 15.1376C12.1787 15.5518 11.8429 15.8876 11.4287 15.8876H4.57153C4.15732 15.8876 3.82153 15.5518 3.82153 15.1376C3.82153 14.7233 4.15732 14.3876 4.57153 14.3876H5.69234L6.50679 12.1119Z" fill="#666666"/>
<path fill-rule="evenodd" clip-rule="evenodd" d="M15.7123 0.216515C16.0661 0.531017 16.0979 1.07279 15.7834 1.42661L11.212 6.56946C10.9158 6.90265 10.4137 6.9532 10.0571 6.68572L7.77137 4.97144C7.39266 4.68741 7.31591 4.15015 7.59995 3.77144C7.88398 3.39273 8.42124 3.31598 8.79995 3.60001L10.4547 4.84108L14.5022 0.287697C14.8167 -0.0661165 15.3584 -0.0979857 15.7123 0.216515Z" fill="#666666"/>
<path fill-rule="evenodd" clip-rule="evenodd" d="M12.2116 0.714279H1.66487C0.824268 0.714279 0.142822 1.39572 0.142822 2.23633V10.9065C0.142822 11.7471 0.824268 12.4286 1.66487 12.4286H14.3351C15.1757 12.4286 15.8571 11.7471 15.8571 10.9065V3.49404L12.2798 7.51856C11.49 8.40706 10.151 8.54185 9.19996 7.82859L6.91425 6.1143C5.90435 5.35688 5.69968 3.9242 6.4571 2.9143C7.21452 1.90441 8.64721 1.69974 9.6571 2.45716L10.2603 2.90955L12.2116 0.714279Z" fill="#DDDDDD"/>
</svg>
