<svg width="14" height="14" viewBox="0 0 14 14" fill="none" xmlns="http://www.w3.org/2000/svg">
<path d="M2.99976 6.9999V4.37005C3.00757 3.85311 3.1173 3.34279 3.32268 2.86834C3.52805 2.39388 3.82503 1.96461 4.19659 1.60512C4.56815 1.24564 5.00699 0.963003 5.48797 0.773411C5.96895 0.583819 6.48262 0.490998 6.99953 0.500265C7.51645 0.490998 8.03011 0.583819 8.51109 0.773411C8.99207 0.963003 9.43092 1.24564 9.80248 1.60512C10.174 1.96461 10.471 2.39388 10.6764 2.86834C10.8818 3.34279 10.9915 3.85311 10.9993 4.37005V6.9999" stroke="#375693" stroke-linecap="round" stroke-linejoin="round"/>
<path d="M1.49994 5.50012H2.49989C2.63249 5.50012 2.75966 5.5528 2.85342 5.64656C2.94719 5.74032 2.99986 5.86749 2.99986 6.00009V8.99993C2.99986 9.13253 2.94719 9.2597 2.85342 9.35346C2.75966 9.44722 2.63249 9.4999 2.49989 9.4999H1.49994C1.23474 9.4999 0.980403 9.39455 0.792877 9.20702C0.605351 9.0195 0.5 8.76516 0.5 8.49996V6.50007C0.5 6.23486 0.605351 5.98053 0.792877 5.793C0.980403 5.60547 1.23474 5.50012 1.49994 5.50012V5.50012Z" stroke="#375693" stroke-linecap="round" stroke-linejoin="round"/>
<path d="M12.4993 9.49988H11.4994C11.3668 9.49988 11.2396 9.4472 11.1458 9.35344C11.0521 9.25968 10.9994 9.13251 10.9994 8.99991V6.00007C10.9994 5.86747 11.0521 5.7403 11.1458 5.64654C11.2396 5.55278 11.3668 5.5001 11.4994 5.5001H12.4993C12.7645 5.5001 13.0189 5.60545 13.2064 5.79298C13.3939 5.9805 13.4993 6.23484 13.4993 6.50004V8.49993C13.4993 8.76514 13.3939 9.01947 13.2064 9.207C13.0189 9.39453 12.7645 9.49988 12.4993 9.49988V9.49988Z" stroke="#375693" stroke-linecap="round" stroke-linejoin="round"/>
<path d="M8.99951 12.2498C9.52992 12.2498 10.0386 12.0391 10.4136 11.664C10.7887 11.289 10.9994 10.7803 10.9994 10.2499V8" stroke="#375693" stroke-linecap="round" stroke-linejoin="round"/>
<path d="M8.99953 12.2497C8.99953 12.5812 8.86784 12.8991 8.63344 13.1335C8.39903 13.3679 8.08111 13.4996 7.7496 13.4996H6.24969C5.91818 13.4996 5.60026 13.3679 5.36585 13.1335C5.13144 12.8991 4.99976 12.5812 4.99976 12.2497C4.99976 11.9182 5.13144 11.6003 5.36585 11.3659C5.60026 11.1314 5.91818 10.9998 6.24969 10.9998H7.7496C8.08111 10.9998 8.39903 11.1314 8.63344 11.3659C8.86784 11.6003 8.99953 11.9182 8.99953 12.2497Z" stroke="#375693" stroke-linecap="round" stroke-linejoin="round"/>
</svg>
