<svg width="8" height="10" viewBox="0 0 8 10" fill="none" xmlns="http://www.w3.org/2000/svg">
<path d="M6.1247 0.998535C6.01048 0.998535 5.89742 1.02136 5.79214 1.06565C5.68752 1.10968 5.59269 1.17404 5.51315 1.25498L0.804424 5.94085C0.769466 5.97564 0.744105 6.01888 0.730807 6.06637L0.0105917 8.63857C-0.0172481 8.738 0.0107055 8.84471 0.0837156 8.91772C0.156726 8.99073 0.263439 9.01869 0.362867 8.99085L2.93507 8.27063C2.98256 8.25733 3.0258 8.23197 3.06059 8.19701L7.74638 3.48835L7.74716 3.48758C7.82716 3.40803 7.89067 3.31348 7.93406 3.20933C7.97759 3.10485 8 2.99279 8 2.8796C8 2.76641 7.97759 2.65434 7.93406 2.54986C7.89067 2.44571 7.82715 2.35116 7.74715 2.27161L7.74638 2.27084L6.73683 1.25558C6.65717 1.17435 6.56213 1.10979 6.45725 1.06565C6.35198 1.02136 6.23891 0.998535 6.1247 0.998535Z" fill="#1C3D88"/>
</svg>
