<svg width="16" height="16" viewBox="0 0 16 16" fill="none" xmlns="http://www.w3.org/2000/svg">
<path d="M14.7308 5.5H6.26923C5.8444 5.5 5.5 5.8444 5.5 6.26923V14.7308C5.5 15.1556 5.8444 15.5 6.26923 15.5H14.7308C15.1556 15.5 15.5 15.1556 15.5 14.7308V6.26923C15.5 5.8444 15.1556 5.5 14.7308 5.5Z" stroke="#111111" stroke-linecap="round" stroke-linejoin="round"/>
<path d="M6.24792 14.939L11.7704 9.73428C11.8383 9.67767 11.924 9.64667 12.0125 9.64667C12.1009 9.64667 12.1866 9.67767 12.2545 9.73428L15.1368 11.7995" stroke="#111111" stroke-linecap="round" stroke-linejoin="round"/>
<path d="M8.32823 9.26517C8.95494 9.26517 9.46299 8.75713 9.46299 8.13042C9.46299 7.50371 8.95494 6.99567 8.32823 6.99567C7.70153 6.99567 7.19348 7.50371 7.19348 8.13042C7.19348 8.75713 7.70153 9.26517 8.32823 9.26517Z" stroke="#111111" stroke-linecap="round" stroke-linejoin="round"/>
<path d="M2.56408 6.20706L1.85698 7.38557L0.678467 6.67847" stroke="#157EFB" stroke-linecap="round" stroke-linejoin="round"/>
<path d="M6.33536 2.43579L7.51387 1.72868L6.80676 0.550171" stroke="#157EFB" stroke-linecap="round" stroke-linejoin="round"/>
<path d="M1.85692 7.38566C1.47559 6.58237 1.33931 5.68457 1.46506 4.8043C1.59081 3.92404 1.97303 3.1003 2.56402 2.43592C3.14921 1.85401 3.90006 1.46735 4.71363 1.32894C5.5272 1.19053 6.36367 1.30715 7.10836 1.66281" stroke="#157EFB" stroke-linecap="round" stroke-linejoin="round"/>
<rect x="4" y="4" width="3" height="3" rx="1" fill="#157EFB"/>
</svg>
