<svg width="16" height="16" viewBox="0 0 16 16" fill="none" xmlns="http://www.w3.org/2000/svg">
<path d="M8.00003 15.4286C12.1027 15.4286 15.4286 12.1027 15.4286 7.99998C15.4286 3.8973 12.1027 0.571411 8.00003 0.571411C3.89734 0.571411 0.571457 3.8973 0.571457 7.99998C0.571457 12.1027 3.89734 15.4286 8.00003 15.4286Z" stroke="#157EFB" stroke-linecap="round" stroke-linejoin="round"/>
<path d="M6.28564 11.4285H9.71422" stroke="#157EFB" stroke-linecap="round" stroke-linejoin="round"/>
<path d="M7.99997 11.4286V7.42859H6.85712" stroke="#157EFB" stroke-linecap="round" stroke-linejoin="round"/>
<path d="M8.00007 4.85713C7.84227 4.85713 7.71436 4.72922 7.71436 4.57142C7.71436 4.41362 7.84227 4.28571 8.00007 4.28571" stroke="#157EFB" stroke-linecap="round" stroke-linejoin="round"/>
<path d="M8.00006 4.85713C8.15786 4.85713 8.28578 4.72922 8.28578 4.57142C8.28578 4.41362 8.15786 4.28571 8.00006 4.28571" stroke="#157EFB" stroke-linecap="round" stroke-linejoin="round"/>
</svg>
