<svg width="17" height="17" viewBox="0 0 17 17" fill="none" xmlns="http://www.w3.org/2000/svg">
<path fill-rule="evenodd" clip-rule="evenodd" d="M2 7.73665C2 3.96996 4.99796 0.899994 8.71624 0.899994C12.4345 0.899994 15.4325 3.96996 15.4325 7.73665C15.4325 10.0204 14.2822 11.989 12.9953 13.4816C11.7042 14.979 10.2304 16.0504 9.4793 16.5494C9.0132 16.859 8.41929 16.859 7.95318 16.5494C7.20208 16.0504 5.72827 14.979 4.43722 13.4816C3.1503 11.989 2 10.0204 2 7.73665ZM8.71624 9.4C9.97901 9.4 11.0027 8.37633 11.0027 7.11357C11.0027 5.85081 9.97901 4.82713 8.71624 4.82713C7.45348 4.82713 6.42981 5.85081 6.42981 7.11357C6.42981 8.37633 7.45348 9.4 8.71624 9.4Z" fill="#157EFB"/>
</svg>
