<svg width="12" height="12" viewBox="0 0 12 12" fill="none" xmlns="http://www.w3.org/2000/svg">
<path d="M11.2816 5.31881C11.4222 5.49406 11.5 5.72175 11.5 5.95782C11.5 6.19389 11.4222 6.42158 11.2816 6.59683C10.3914 7.67457 8.36527 9.77282 6 9.77282C3.63473 9.77282 1.60857 7.67457 0.718418 6.59683C0.577824 6.42158 0.5 6.19389 0.5 5.95782C0.5 5.72175 0.577824 5.49406 0.718418 5.31881C1.60857 4.24107 3.63473 2.14282 6 2.14282C8.36527 2.14282 10.3914 4.24107 11.2816 5.31881Z" stroke="#111111" stroke-linecap="round" stroke-linejoin="round"/>
<path d="M6.00022 7.65333C6.93664 7.65333 7.69575 6.89422 7.69575 5.9578C7.69575 5.02138 6.93664 4.26227 6.00022 4.26227C5.0638 4.26227 4.30469 5.02138 4.30469 5.9578C4.30469 6.89422 5.0638 7.65333 6.00022 7.65333Z" stroke="#111111" stroke-linecap="round" stroke-linejoin="round"/>
</svg>
