<svg width="14" height="15" viewBox="0 0 14 15" fill="none" xmlns="http://www.w3.org/2000/svg">
<rect y="1" width="14" height="14" rx="3" fill="#157EFB"/>
<path fill-rule="evenodd" clip-rule="evenodd" d="M7.7 5.00005C7.7 4.61345 7.3866 4.30005 7 4.30005C6.6134 4.30005 6.3 4.61345 6.3 5.00005V7.30005H4C3.6134 7.30005 3.3 7.61345 3.3 8.00005C3.3 8.38665 3.6134 8.70005 4 8.70005H6.3V11C6.3 11.3866 6.6134 11.7 7 11.7C7.3866 11.7 7.7 11.3866 7.7 11V8.70005H10C10.3866 8.70005 10.7 8.38665 10.7 8.00005C10.7 7.61345 10.3866 7.30005 10 7.30005H7.7V5.00005Z" fill="white"/>
</svg>
