<svg width="20" height="20" viewBox="0 0 20 20" fill="none" xmlns="http://www.w3.org/2000/svg">
<mask id="path-1-inside-1_702_10756" fill="white">
<path fill-rule="evenodd" clip-rule="evenodd" d="M10 0.609802C9.75742 0.609802 9.51989 0.679202 9.31547 0.809811C9.1131 0.939103 8.95154 1.12303 8.8494 1.34026L6.58053 5.92082C6.57741 5.92712 6.57442 5.93348 6.57157 5.93991C6.55536 5.97642 6.52987 6.00805 6.49763 6.03164C6.46538 6.05523 6.42752 6.06996 6.38782 6.07436C6.38173 6.07504 6.37565 6.07582 6.36959 6.07672L1.37038 6.81734C1.13231 6.83952 0.905169 6.92839 0.715147 7.07394C0.519943 7.22347 0.372285 7.42638 0.290057 7.65812C0.20783 7.88985 0.194561 8.14045 0.25186 8.37957C0.308983 8.61796 0.433799 8.83473 0.611254 9.00381L4.26712 12.5311L4.26707 12.5312L4.27294 12.5367C4.30427 12.5659 4.32779 12.6026 4.34134 12.6433C4.3549 12.6839 4.35807 12.7273 4.35057 12.7696L4.35 12.7728L3.47884 17.8713L3.4787 17.8721C3.43762 18.1089 3.46376 18.3526 3.55417 18.5753C3.64468 18.7983 3.79597 18.9915 3.99083 19.1327C4.18568 19.274 4.41628 19.3578 4.65639 19.3744C4.89632 19.3911 5.13612 19.3401 5.34853 19.2273L5.34897 19.2271L9.85418 16.8461C9.89979 16.8246 9.94958 16.8135 10 16.8135C10.0505 16.8135 10.1003 16.8246 10.1459 16.8461L14.651 19.2271L14.6518 19.2275C14.8641 19.3402 15.1038 19.3911 15.3436 19.3744C15.5837 19.3578 15.8143 19.274 16.0092 19.1327C16.204 18.9915 16.3553 18.7983 16.4458 18.5753C16.5362 18.3526 16.5624 18.109 16.5213 17.8722L16.5212 17.8713L15.65 12.7728L15.65 12.7728L15.6494 12.7696C15.6419 12.7273 15.6451 12.6839 15.6587 12.6433C15.6722 12.6026 15.6957 12.5659 15.7271 12.5367L15.7271 12.5367L15.7329 12.5311L19.3871 9.00536L19.3888 9.00377C19.5662 8.83471 19.691 8.61794 19.7481 8.37957C19.8054 8.14045 19.7922 7.88984 19.7099 7.65812C19.6277 7.42638 19.4801 7.22347 19.2849 7.07394C19.0948 6.92839 18.8677 6.83951 18.6296 6.81734L13.6304 6.07672C13.6244 6.07582 13.6183 6.07504 13.6122 6.07436C13.5725 6.06996 13.5346 6.05523 13.5024 6.03164C13.4701 6.00805 13.4446 5.97642 13.4284 5.93991C13.427 5.93665 13.4255 5.93341 13.424 5.93018C13.4225 5.92705 13.421 5.92393 13.4195 5.92082L11.1506 1.34023C11.0485 1.12301 10.8869 0.939097 10.6845 0.809811C10.4801 0.679202 10.2426 0.609802 10 0.609802Z"/>
</mask>
<path fill-rule="evenodd" clip-rule="evenodd" d="M10 0.609802C9.75742 0.609802 9.51989 0.679202 9.31547 0.809811C9.1131 0.939103 8.95154 1.12303 8.8494 1.34026L6.58053 5.92082C6.57741 5.92712 6.57442 5.93348 6.57157 5.93991C6.55536 5.97642 6.52987 6.00805 6.49763 6.03164C6.46538 6.05523 6.42752 6.06996 6.38782 6.07436C6.38173 6.07504 6.37565 6.07582 6.36959 6.07672L1.37038 6.81734C1.13231 6.83952 0.905169 6.92839 0.715147 7.07394C0.519943 7.22347 0.372285 7.42638 0.290057 7.65812C0.20783 7.88985 0.194561 8.14045 0.25186 8.37957C0.308983 8.61796 0.433799 8.83473 0.611254 9.00381L4.26712 12.5311L4.26707 12.5312L4.27294 12.5367C4.30427 12.5659 4.32779 12.6026 4.34134 12.6433C4.3549 12.6839 4.35807 12.7273 4.35057 12.7696L4.35 12.7728L3.47884 17.8713L3.4787 17.8721C3.43762 18.1089 3.46376 18.3526 3.55417 18.5753C3.64468 18.7983 3.79597 18.9915 3.99083 19.1327C4.18568 19.274 4.41628 19.3578 4.65639 19.3744C4.89632 19.3911 5.13612 19.3401 5.34853 19.2273L5.34897 19.2271L9.85418 16.8461C9.89979 16.8246 9.94958 16.8135 10 16.8135C10.0505 16.8135 10.1003 16.8246 10.1459 16.8461L14.651 19.2271L14.6518 19.2275C14.8641 19.3402 15.1038 19.3911 15.3436 19.3744C15.5837 19.3578 15.8143 19.274 16.0092 19.1327C16.204 18.9915 16.3553 18.7983 16.4458 18.5753C16.5362 18.3526 16.5624 18.109 16.5213 17.8722L16.5212 17.8713L15.65 12.7728L15.65 12.7728L15.6494 12.7696C15.6419 12.7273 15.6451 12.6839 15.6587 12.6433C15.6722 12.6026 15.6957 12.5659 15.7271 12.5367L15.7271 12.5367L15.7329 12.5311L19.3871 9.00536L19.3888 9.00377C19.5662 8.83471 19.691 8.61794 19.7481 8.37957C19.8054 8.14045 19.7922 7.88984 19.7099 7.65812C19.6277 7.42638 19.4801 7.22347 19.2849 7.07394C19.0948 6.92839 18.8677 6.83951 18.6296 6.81734L13.6304 6.07672C13.6244 6.07582 13.6183 6.07504 13.6122 6.07436C13.5725 6.06996 13.5346 6.05523 13.5024 6.03164C13.4701 6.00805 13.4446 5.97642 13.4284 5.93991C13.427 5.93665 13.4255 5.93341 13.424 5.93018C13.4225 5.92705 13.421 5.92393 13.4195 5.92082L11.1506 1.34023C11.0485 1.12301 10.8869 0.939097 10.6845 0.809811C10.4801 0.679202 10.2426 0.609802 10 0.609802Z" fill="#FFE68F"/>
<path d="M9.31547 0.809811L8.77707 -0.0328789L8.77707 -0.0328782L9.31547 0.809811ZM8.8494 1.34026L9.7455 1.78412C9.74852 1.77803 9.75148 1.7719 9.75437 1.76574L8.8494 1.34026ZM6.58053 5.92082L5.68443 5.47696L5.68442 5.47697L6.58053 5.92082ZM6.57157 5.93991L7.48558 6.3456L7.48558 6.34559L6.57157 5.93991ZM6.49763 6.03164L7.08813 6.83868L7.08814 6.83867L6.49763 6.03164ZM6.38782 6.07436L6.27773 5.08044L6.2777 5.08044L6.38782 6.07436ZM6.36959 6.07672L6.22305 5.08752L6.22304 5.08752L6.36959 6.07672ZM1.37038 6.81734L1.46311 7.81304C1.4811 7.81136 1.49905 7.8092 1.51693 7.80655L1.37038 6.81734ZM0.715147 7.07394L0.10706 6.28007L0.107059 6.28008L0.715147 7.07394ZM0.290057 7.65812L1.23248 7.99253H1.23248L0.290057 7.65812ZM0.25186 8.37957L-0.72061 8.6126L-0.72061 8.6126L0.25186 8.37957ZM0.611254 9.00381L1.30561 8.28415L1.30105 8.27981L0.611254 9.00381ZM4.26712 12.5311L4.98163 13.2308C5.16807 13.0404 5.2708 12.7834 5.26702 12.5169C5.26323 12.2505 5.15324 11.9965 4.96146 11.8115L4.26712 12.5311ZM4.26707 12.5312L3.55256 11.8316C3.36417 12.024 3.26134 12.2842 3.26732 12.5534C3.2733 12.8226 3.3876 13.078 3.58434 13.2619L4.26707 12.5312ZM4.27294 12.5367L3.59022 13.2673L3.59025 13.2674L4.27294 12.5367ZM4.34134 12.6433L3.39266 12.9595L3.39266 12.9595L4.34134 12.6433ZM4.35057 12.7696L3.36599 12.5946L3.36544 12.5978L4.35057 12.7696ZM4.35 12.7728L3.36486 12.601L3.36429 12.6044L4.35 12.7728ZM3.47884 17.8713L4.46406 18.0426L4.46456 18.0397L3.47884 17.8713ZM3.4787 17.8721L2.49349 17.7008L2.49341 17.7012L3.4787 17.8721ZM3.55417 18.5753L2.62757 18.9514L2.62757 18.9514L3.55417 18.5753ZM3.99083 19.1327L4.57779 18.3231L4.57779 18.3231L3.99083 19.1327ZM4.65639 19.3744L4.7257 18.3768H4.7257L4.65639 19.3744ZM5.34853 19.2273L5.81755 20.1105L5.81814 20.1102L5.34853 19.2273ZM5.34897 19.2271L4.88171 18.343L4.87936 18.3442L5.34897 19.2271ZM9.85418 16.8461L9.42882 15.941C9.41469 15.9477 9.40072 15.9546 9.38691 15.9619L9.85418 16.8461ZM10.1459 16.8461L10.6131 15.9619C10.5994 15.9547 10.5854 15.9477 10.5713 15.9411L10.1459 16.8461ZM14.651 19.2271L15.1205 18.3441L15.1183 18.343L14.651 19.2271ZM14.6518 19.2275L14.1824 20.1105L14.183 20.1108L14.6518 19.2275ZM15.3436 19.3744L15.4129 20.372H15.4129L15.3436 19.3744ZM16.0092 19.1327L16.5961 19.9424L16.5962 19.9424L16.0092 19.1327ZM16.4458 18.5753L17.3724 18.9514L17.3724 18.9514L16.4458 18.5753ZM16.5213 17.8722L15.5359 18.0425L15.536 18.043L16.5213 17.8722ZM16.5212 17.8713L15.5354 18.0397L15.5358 18.0416L16.5212 17.8713ZM15.65 12.7728L15.4711 11.789C14.9318 11.887 14.572 12.4009 14.6643 12.9412L15.65 12.7728ZM15.65 12.7728L15.8289 13.7567C16.3707 13.6582 16.7309 13.1402 16.6346 12.598L15.65 12.7728ZM15.6494 12.7696L16.634 12.5948L16.634 12.5946L15.6494 12.7696ZM15.6587 12.6433L16.6073 12.9595L16.6073 12.9595L15.6587 12.6433ZM15.7271 12.5367L16.4561 11.8522C16.0788 11.4503 15.4473 11.4296 15.0444 11.806L15.7271 12.5367ZM15.7271 12.5367L14.998 13.2212C15.1812 13.4162 15.4349 13.5298 15.7023 13.5364C15.9698 13.543 16.2288 13.4422 16.4214 13.2564L15.7271 12.5367ZM15.7329 12.5311L16.4272 13.2508L16.4272 13.2508L15.7329 12.5311ZM19.3871 9.00536L18.698 8.28067L18.6928 8.28572L19.3871 9.00536ZM19.3888 9.00377L20.0779 9.72844L20.0786 9.72774L19.3888 9.00377ZM19.7481 8.37957L20.7206 8.6126L20.7206 8.61259L19.7481 8.37957ZM19.7099 7.65812L20.6524 7.32371L20.6524 7.3237L19.7099 7.65812ZM19.2849 7.07394L18.6768 7.86782L18.6768 7.86782L19.2849 7.07394ZM18.6296 6.81734L18.4831 7.80655C18.501 7.8092 18.5189 7.81136 18.5369 7.81303L18.6296 6.81734ZM13.6304 6.07672L13.4839 7.06592L13.4839 7.06592L13.6304 6.07672ZM13.6122 6.07436L13.7223 5.08044L13.7223 5.08044L13.6122 6.07436ZM13.4284 5.93991L12.5144 6.3455L12.5144 6.34561L13.4284 5.93991ZM13.424 5.93018L12.5188 6.35518L12.5189 6.35532L13.424 5.93018ZM13.4195 5.92082L12.5234 6.36468L12.5234 6.36473L13.4195 5.92082ZM11.1506 1.34023L10.2456 1.76573C10.2485 1.77188 10.2515 1.778 10.2545 1.78409L11.1506 1.34023ZM10.6845 0.809811L10.1461 1.6525L10.1461 1.6525L10.6845 0.809811ZM9.85387 1.6525C9.89751 1.62462 9.94822 1.6098 10 1.6098V-0.390198C9.56662 -0.390198 9.14228 -0.266214 8.77707 -0.0328789L9.85387 1.6525ZM9.75437 1.76574C9.77617 1.71937 9.81067 1.6801 9.85387 1.6525L8.77707 -0.0328782C8.41554 0.198105 8.1269 0.526698 7.94444 0.914778L9.75437 1.76574ZM7.47662 6.36468L9.7455 1.78412L7.95331 0.8964L5.68443 5.47696L7.47662 6.36468ZM7.48558 6.34559C7.48273 6.35203 7.47974 6.35839 7.47663 6.36467L5.68442 5.47697C5.67507 5.49585 5.66612 5.51494 5.65756 5.53422L7.48558 6.34559ZM7.08814 6.83867C7.26143 6.71187 7.39847 6.54187 7.48558 6.3456L5.65756 5.53422C5.71226 5.41098 5.7983 5.30423 5.90711 5.22462L7.08814 6.83867ZM6.4979 7.06828C6.71134 7.04464 6.91484 6.96547 7.08813 6.83868L5.90712 5.22461C6.01593 5.145 6.14371 5.09528 6.27773 5.08044L6.4979 7.06828ZM6.51613 7.06593C6.51005 7.06683 6.50398 7.06761 6.49793 7.06828L6.2777 5.08044C6.25947 5.08246 6.24125 5.08482 6.22305 5.08752L6.51613 7.06593ZM1.51693 7.80655L6.51614 7.06592L6.22304 5.08752L1.22383 5.82814L1.51693 7.80655ZM1.32323 7.86782C1.3638 7.83674 1.41229 7.81777 1.46311 7.81304L1.27765 5.82165C0.852327 5.86126 0.446539 6.02004 0.10706 6.28007L1.32323 7.86782ZM1.23248 7.99253C1.25004 7.94305 1.28156 7.89973 1.32323 7.86781L0.107059 6.28008C-0.241675 6.5472 -0.50547 6.90971 -0.652371 7.32371L1.23248 7.99253ZM1.22433 8.14654C1.2121 8.0955 1.21493 8.042 1.23248 7.99253L-0.652371 7.32371C-0.799271 7.7377 -0.822975 8.18541 -0.72061 8.6126L1.22433 8.14654ZM1.30105 8.27981C1.26317 8.24371 1.23653 8.19744 1.22433 8.14654L-0.72061 8.6126C-0.618558 9.03848 -0.395575 9.42575 -0.0785471 9.72781L1.30105 8.27981ZM4.96146 11.8115L1.3056 8.28416L-0.0830899 9.72345L3.57277 13.2508L4.96146 11.8115ZM4.98158 13.2308L4.98163 13.2308L3.55261 11.8315L3.55256 11.8316L4.98158 13.2308ZM4.95567 11.806L4.9498 11.8005L3.58434 13.2619L3.59022 13.2673L4.95567 11.806ZM5.29003 12.327C5.22374 12.1282 5.10879 11.9491 4.95564 11.806L3.59025 13.2674C3.49975 13.1828 3.43183 13.077 3.39266 12.9595L5.29003 12.327ZM5.33515 12.9445C5.37182 12.7381 5.35631 12.5259 5.29002 12.327L3.39266 12.9595C3.35349 12.842 3.34433 12.7166 3.366 12.5946L5.33515 12.9445ZM5.33514 12.9446L5.33571 12.9413L3.36544 12.5978L3.36487 12.601L5.33514 12.9446ZM4.46456 18.0397L5.33572 12.9412L3.36429 12.6044L2.49313 17.7028L4.46456 18.0397ZM4.46391 18.0434L4.46406 18.0426L2.49363 17.6999L2.49349 17.7008L4.46391 18.0434ZM4.48076 18.1993C4.46067 18.1498 4.45486 18.0956 4.46399 18.043L2.49341 17.7012C2.42038 18.1223 2.46685 18.5554 2.62757 18.9514L4.48076 18.1993ZM4.57779 18.3231C4.53449 18.2917 4.50087 18.2488 4.48076 18.1993L2.62757 18.9514C2.78848 19.3479 3.05744 19.6912 3.40386 19.9424L4.57779 18.3231ZM4.7257 18.3768C4.67234 18.3731 4.6211 18.3545 4.57779 18.3231L3.40386 19.9424C3.75027 20.1935 4.16022 20.3424 4.58708 20.372L4.7257 18.3768ZM4.8795 18.3442C4.8323 18.3692 4.77901 18.3806 4.7257 18.3768L4.58707 20.372C5.01363 20.4017 5.43993 20.3111 5.81755 20.1105L4.8795 18.3442ZM4.87936 18.3442L4.87891 18.3445L5.81814 20.1102L5.81859 20.11L4.87936 18.3442ZM9.38691 15.9619L4.88171 18.343L5.81624 20.1112L10.3214 17.7302L9.38691 15.9619ZM10 15.8135C9.80247 15.8135 9.60744 15.8571 9.42882 15.941L10.2795 17.7511C10.1921 17.7922 10.0967 17.8135 10 17.8135V15.8135ZM10.5713 15.9411C10.3926 15.8571 10.1976 15.8135 10 15.8135V17.8135C9.90337 17.8135 9.80791 17.7922 9.72045 17.751L10.5713 15.9411ZM15.1183 18.343L10.6131 15.9619L9.6786 17.7302L14.1838 20.1112L15.1183 18.343ZM15.1212 18.3446L15.1205 18.3441L14.1816 20.1101L14.1824 20.1105L15.1212 18.3446ZM15.2743 18.3768C15.221 18.3806 15.1678 18.3692 15.1206 18.3442L14.183 20.1108C14.5605 20.3112 14.9866 20.4017 15.4129 20.372L15.2743 18.3768ZM15.4222 18.3231C15.3789 18.3545 15.3277 18.3731 15.2743 18.3768L15.4129 20.372C15.8398 20.3424 16.2497 20.1935 16.5961 19.9424L15.4222 18.3231ZM15.5193 18.1993C15.4991 18.2488 15.4655 18.2917 15.4222 18.3231L16.5962 19.9424C16.9426 19.6912 17.2115 19.3479 17.3724 18.9514L15.5193 18.1993ZM15.536 18.043C15.5451 18.0956 15.5393 18.1498 15.5192 18.1993L17.3724 18.9514C17.5331 18.5554 17.5796 18.1224 17.5066 17.7014L15.536 18.043ZM15.5358 18.0416L15.5359 18.0425L17.5067 17.7019L17.5066 17.7009L15.5358 18.0416ZM14.6643 12.9412L15.5354 18.0397L17.5069 17.7028L16.6357 12.6044L14.6643 12.9412ZM15.4711 11.789L15.4711 11.789L15.8289 13.7567L15.8289 13.7567L15.4711 11.789ZM14.6648 12.9444L14.6654 12.9476L16.6346 12.598L16.634 12.5948L14.6648 12.9444ZM14.71 12.327C14.6437 12.5259 14.6282 12.7381 14.6649 12.9445L16.634 12.5946C16.6557 12.7166 16.6465 12.842 16.6073 12.9595L14.71 12.327ZM15.0444 11.806C14.8912 11.9491 14.7763 12.1282 14.71 12.327L16.6073 12.9595C16.5682 13.077 16.5003 13.1828 16.4098 13.2674L15.0444 11.806ZM16.4562 11.8523L16.4561 11.8522L14.998 13.2211L14.998 13.2212L16.4562 11.8523ZM15.0386 11.8115L15.0328 11.817L16.4214 13.2564L16.4272 13.2508L15.0386 11.8115ZM18.6928 8.28572L15.0385 11.8115L16.4272 13.2508L20.0815 9.725L18.6928 8.28572ZM18.6997 8.2791L18.698 8.28069L20.0762 9.73003L20.0779 9.72844L18.6997 8.2791ZM18.7757 8.14654C18.7635 8.19743 18.7368 8.24371 18.699 8.2798L20.0786 9.72774C20.3956 9.4257 20.6186 9.03846 20.7206 8.6126L18.7757 8.14654ZM18.7675 7.99252C18.7851 8.042 18.7879 8.0955 18.7757 8.14655L20.7206 8.61259C20.823 8.1854 20.7993 7.73769 20.6524 7.32371L18.7675 7.99252ZM18.6768 7.86782C18.7184 7.89973 18.75 7.94305 18.7675 7.99253L20.6524 7.3237C20.5055 6.90972 20.2417 6.5472 19.8929 6.28007L18.6768 7.86782ZM18.5369 7.81303C18.5877 7.81777 18.6362 7.83674 18.6768 7.86782L19.8929 6.28007C19.5535 6.02004 19.1477 5.86126 18.7224 5.82165L18.5369 7.81303ZM13.4839 7.06592L18.4831 7.80655L18.7762 5.82814L13.777 5.08752L13.4839 7.06592ZM13.5021 7.06828C13.496 7.06761 13.49 7.06683 13.4839 7.06592L13.777 5.08752C13.7588 5.08482 13.7405 5.08246 13.7223 5.08044L13.5021 7.06828ZM12.9119 6.83867C13.0852 6.96548 13.2887 7.04464 13.5021 7.06828L13.7223 5.08044C13.8563 5.09528 13.9841 5.14499 14.0929 5.22462L12.9119 6.83867ZM12.5144 6.34561C12.6015 6.54186 12.7386 6.71187 12.9119 6.83867L14.0929 5.22462C14.2017 5.30424 14.2877 5.41099 14.3424 5.53421L12.5144 6.34561ZM12.5189 6.35532C12.5174 6.35212 12.5159 6.34885 12.5144 6.3455L14.3425 5.53432C14.3381 5.52445 14.3337 5.5147 14.3291 5.50504L12.5189 6.35532ZM12.5234 6.36473C12.5219 6.36166 12.5203 6.35848 12.5188 6.35518L14.3292 5.50518C14.3247 5.49562 14.3201 5.48619 14.3156 5.47691L12.5234 6.36473ZM10.2545 1.78409L12.5234 6.36468L14.3156 5.47696L12.0467 0.896368L10.2545 1.78409ZM10.1461 1.6525C10.1893 1.6801 10.2238 1.71936 10.2456 1.76573L12.0555 0.914723C11.8731 0.526667 11.5845 0.198093 11.2229 -0.0328796L10.1461 1.6525ZM10 1.6098C10.0518 1.6098 10.1025 1.62462 10.1461 1.6525L11.2229 -0.0328789C10.8577 -0.266213 10.4334 -0.390198 10 -0.390198V1.6098Z" fill="#FFC621" mask="url(#path-1-inside-1_702_10756)"/>
</svg>
