<svg width="15" height="16" viewBox="0 0 15 16" fill="none" xmlns="http://www.w3.org/2000/svg">
<g clip-path="url(#clip0_68_8480)">
<path d="M13.1169 16H1.27274C0.641558 16 0.129883 15.4883 0.129883 14.8571V1.14286C0.129883 0.511675 0.641558 0 1.27274 0H8.96105L14.2598 5.2987V14.8571C14.2598 15.4883 13.7481 16 13.1169 16Z" fill="url(#paint0_linear_68_8480)"/>
<path opacity="0.12" fill-rule="evenodd" clip-rule="evenodd" d="M10.4676 7.22079H3.92212V6.59741H10.4676V7.22079ZM10.4676 8.77923H3.92212V8.15585H10.4676V8.77923ZM3.92212 10.3377H10.4676V9.7143H3.92212V10.3377ZM10.4676 11.8961H3.92212V11.2727H10.4676V11.8961ZM3.92212 13.4546H10.4676V12.8312H3.92212V13.4546Z" fill="white"/>
<g clip-path="url(#clip1_68_8480)">
<path d="M2.12988 8H3.70064C4.61101 8 5.1346 8.5566 5.1346 9.34906C5.1346 10.1415 4.6063 10.6981 3.68177 10.6981H2.96479V12.0047H2.12988V8ZM3.54498 10.0283C4.03554 10.0283 4.27611 9.75 4.27611 9.34906C4.27611 8.94811 4.04026 8.67925 3.54498 8.67925H2.96007V10.0283H3.54498Z" fill="white"/>
<path d="M5.65828 12V8H7.08281C8.28564 8 9.02149 8.75 9.02149 9.99528C9.02149 11.2406 8.28564 12 7.06394 12H5.65356H5.65828ZM7.03564 11.2877C7.79979 11.2877 8.19602 10.8915 8.19602 9.99528C8.19602 9.09906 7.79979 8.71226 7.04036 8.71226H6.48847V11.2877H7.03564Z" fill="white"/>
<path d="M9.62524 8H12.262V8.68396H10.4554V9.65566H12.0922V10.3396H10.4554V12H9.62524V8Z" fill="white"/>
</g>
<g filter="url(#filter0_d_68_8480)">
<path d="M14.2596 5.2987H10.1038C9.47263 5.2987 8.96094 4.78703 8.96094 4.15584V0L14.2596 5.2987Z" fill="url(#paint1_linear_68_8480)"/>
</g>
</g>
<defs>
<filter id="filter0_d_68_8480" x="-14.0391" y="-24" width="55.2986" height="55.2986" filterUnits="userSpaceOnUse" color-interpolation-filters="sRGB">
<feFlood flood-opacity="0" result="BackgroundImageFix"/>
<feColorMatrix in="SourceAlpha" type="matrix" values="0 0 0 0 0 0 0 0 0 0 0 0 0 0 0 0 0 0 127 0" result="hardAlpha"/>
<feOffset dx="2" dy="1"/>
<feGaussianBlur stdDeviation="12.5"/>
<feColorMatrix type="matrix" values="0 0 0 0 0 0 0 0 0 0 0 0 0 0 0 0 0 0 0.33 0"/>
<feBlend mode="normal" in2="BackgroundImageFix" result="effect1_dropShadow_68_8480"/>
<feBlend mode="normal" in="SourceGraphic" in2="effect1_dropShadow_68_8480" result="shape"/>
</filter>
<linearGradient id="paint0_linear_68_8480" x1="7.19482" y1="0" x2="7.19482" y2="16" gradientUnits="userSpaceOnUse">
<stop stop-color="#FF7981"/>
<stop offset="1" stop-color="#E85567"/>
</linearGradient>
<linearGradient id="paint1_linear_68_8480" x1="11.6103" y1="0" x2="11.6103" y2="5.2987" gradientUnits="userSpaceOnUse">
<stop stop-color="#D03954"/>
<stop offset="1" stop-color="#C02A3C"/>
</linearGradient>
<clipPath id="clip0_68_8480">
<rect width="14.1299" height="16" fill="white" transform="translate(0.129883)"/>
</clipPath>
<clipPath id="clip1_68_8480">
<rect width="10.1321" height="4" fill="white" transform="translate(2.12988 8)"/>
</clipPath>
</defs>
</svg>
