<svg width="16" height="16" viewBox="0 0 16 16" fill="none" xmlns="http://www.w3.org/2000/svg">
<path d="M8.5 10.25H15.5" stroke="#157EFB" stroke-linecap="round" stroke-linejoin="round"/>
<path d="M9.08337 10.25H14.9167V14.975C14.9167 15.1142 14.8484 15.2478 14.7269 15.3462C14.6053 15.4447 14.4405 15.5 14.2686 15.5H9.73152C9.55962 15.5 9.39476 15.4447 9.27321 15.3462C9.15166 15.2478 9.08337 15.1142 9.08337 14.975V10.25Z" stroke="#157EFB" stroke-linecap="round" stroke-linejoin="round"/>
<path d="M10.25 10.25V9.95833C10.25 9.57156 10.4344 9.20063 10.7626 8.92714C11.0908 8.65365 11.5359 8.5 12 8.5C12.4641 8.5 12.9092 8.65365 13.2374 8.92714C13.5656 9.20063 13.75 9.57156 13.75 9.95833V10.25" stroke="#157EFB" stroke-linecap="round" stroke-linejoin="round"/>
<path d="M13.5 6.80001L13.5 1.50002C13.5 0.947737 13.0523 0.500023 12.5 0.500023L1.50003 0.500023C0.947744 0.500023 0.50003 0.947737 0.50003 1.50002L0.50003 9.5C0.50003 10.0523 0.947744 10.5 1.50003 10.5L5.50002 10.5" stroke="#111111" stroke-linecap="round" stroke-linejoin="round"/>
<path d="M9.50178 4.71206C10.1895 4.71206 10.747 4.15457 10.747 3.46687C10.747 2.77917 10.1895 2.22168 9.50178 2.22168C8.81408 2.22168 8.25659 2.77917 8.25659 3.46687C8.25659 4.15457 8.81408 4.71206 9.50178 4.71206Z" stroke="#111111" stroke-linecap="round" stroke-linejoin="round"/>
<path d="M0.5 4.84898C0.976754 4.75789 1.46114 4.71268 1.94652 4.71397C3.62884 4.67593 5.26996 5.23685 6.57705 6.29665C6.75571 6.44151 6.92654 6.59441 7.08914 6.75466" stroke="#111111" stroke-linecap="round" stroke-linejoin="round"/>
</svg>
