<svg width="20" height="20" viewBox="0 0 20 20" fill="none" xmlns="http://www.w3.org/2000/svg">
<path d="M9.99995 19.2857C15.1283 19.2857 19.2857 15.1284 19.2857 10C19.2857 4.87165 15.1283 0.714294 9.99995 0.714294C4.87159 0.714294 0.714233 4.87165 0.714233 10C0.714233 15.1284 4.87159 19.2857 9.99995 19.2857Z" stroke="#111111" stroke-linecap="round" stroke-linejoin="round"/>
<path d="M7.5 7.4995C7.5 7.00505 7.64676 6.5217 7.92171 6.11058C8.19666 5.69946 8.58746 5.37903 9.0447 5.18981C9.50193 5.00059 10.0051 4.95109 10.4904 5.04755C10.9758 5.14401 11.4217 5.38211 11.7717 5.73174C12.1216 6.08137 12.3599 6.52683 12.4565 7.01178C12.553 7.49673 12.5035 7.99939 12.3141 8.45621C12.1247 8.91302 11.804 9.30346 11.3925 9.57817C10.981 9.85287 10.4972 9.99949 10.0023 9.99949V11.6661" stroke="#157EFB" stroke-width="1.4" stroke-linecap="round" stroke-linejoin="round"/>
<path d="M9.99997 14.9407C9.80272 14.9407 9.64282 14.7808 9.64282 14.5836C9.64282 14.3863 9.80272 14.2264 9.99997 14.2264" stroke="#157EFB" stroke-width="1.4" stroke-linecap="round" stroke-linejoin="round"/>
<path d="M10 14.9407C10.1972 14.9407 10.3571 14.7808 10.3571 14.5836C10.3571 14.3863 10.1972 14.2264 10 14.2264" stroke="#157EFB" stroke-width="1.4" stroke-linecap="round" stroke-linejoin="round"/>
</svg>
