<svg width="14" height="14" viewBox="0 0 14 14" fill="none" xmlns="http://www.w3.org/2000/svg">
<path d="M4.5 8.61349L12.18 11.1735C12.3304 11.2231 12.4904 11.2362 12.6469 11.2119C12.8033 11.1876 12.9518 11.1264 13.08 11.0335C13.2092 10.9415 13.3147 10.82 13.3878 10.6792C13.4608 10.5383 13.4993 10.3821 13.5 10.2235V1.99349C13.4993 1.83484 13.4608 1.67864 13.3878 1.5378C13.3147 1.39695 13.2092 1.27551 13.08 1.18349C12.9509 1.09223 12.8021 1.03287 12.6456 1.01027C12.4892 0.987674 12.3296 1.00248 12.18 1.05349L4.5 3.61349V8.61349Z" stroke="#333333" stroke-linecap="round" stroke-linejoin="round"/>
<path d="M0.5 6.11353C0.5 6.44183 0.564664 6.76692 0.690301 7.07023C0.815938 7.37355 1.00009 7.64915 1.23223 7.88129C1.70107 8.35013 2.33696 8.61353 3 8.61353H4.5V3.61353H3C2.6717 3.61353 2.34661 3.67819 2.04329 3.80383C1.73998 3.92946 1.46438 4.11361 1.23223 4.34576C0.763392 4.8146 0.5 5.45048 0.5 6.11353V6.11353Z" stroke="#333333" stroke-linecap="round" stroke-linejoin="round"/>
<path d="M3 8.61353V9.61353C3 9.94183 3.06466 10.2669 3.1903 10.5702C3.31594 10.8735 3.50009 11.1491 3.73223 11.3813C3.96438 11.6134 4.23998 11.7976 4.54329 11.9232C4.84661 12.0489 5.1717 12.1135 5.5 12.1135" stroke="#333333" stroke-linecap="round" stroke-linejoin="round"/>
</svg>
