<svg width="17" height="17" viewBox="0 0 17 17" fill="none" xmlns="http://www.w3.org/2000/svg">
<path fill-rule="evenodd" clip-rule="evenodd" d="M10.0665 0.862744C10.0665 0.531373 10.3351 0.262744 10.6665 0.262744H15.4665C15.7978 0.262744 16.0665 0.531373 16.0665 0.862744V5.66274C16.0665 5.99411 15.7978 6.26274 15.4665 6.26274C15.1351 6.26274 14.8665 5.99411 14.8665 5.66274V2.31127L9.49074 7.68701C9.25643 7.92132 8.87653 7.92132 8.64222 7.68701C8.4079 7.45269 8.4079 7.07279 8.64222 6.83848L14.018 1.46274H10.6665C10.3351 1.46274 10.0665 1.19412 10.0665 0.862744Z" fill="#DDDDDD"/>
<path d="M16.266 7.27586C16.0252 7.39548 15.7537 7.46274 15.4665 7.46274C14.4724 7.46274 13.6665 6.65686 13.6665 5.66274V5.20833L10.3393 8.53554C9.63633 9.23848 8.49663 9.23848 7.79369 8.53554C7.09074 7.83259 7.09074 6.69289 7.79369 5.98995L11.1209 2.66274H10.6665C9.67237 2.66274 8.86648 1.85686 8.86648 0.862744C8.86648 0.575551 8.93374 0.304066 9.05337 0.0631836C8.80058 0.0627441 8.53843 0.0627441 8.26648 0.0627441C4.49524 0.0627441 2.60963 0.0627441 1.43805 1.23432C0.266479 2.40589 0.266479 4.29151 0.266479 8.06274C0.266479 11.834 0.266479 13.7196 1.43805 14.8912C2.60963 16.0627 4.49524 16.0627 8.26648 16.0627C12.0377 16.0627 13.9233 16.0627 15.0949 14.8912C16.2665 13.7196 16.2665 11.834 16.2665 8.06274C16.2665 7.79079 16.2665 7.52864 16.266 7.27586Z" fill="#DDDDDD"/>
<path fill-rule="evenodd" clip-rule="evenodd" d="M9.86648 0.662744C9.86648 0.331373 10.1351 0.0627441 10.4665 0.0627441H15.2665C15.5978 0.0627441 15.8665 0.331373 15.8665 0.662744V5.46274C15.8665 5.79412 15.5978 6.06274 15.2665 6.06274C14.9351 6.06274 14.6665 5.79412 14.6665 5.46274V2.11127L9.29074 7.48701C9.05643 7.72132 8.67653 7.72132 8.44222 7.48701C8.2079 7.25269 8.2079 6.87279 8.44222 6.63848L13.818 1.26274H10.4665C10.1351 1.26274 9.86648 0.994115 9.86648 0.662744Z" fill="#666666"/>
</svg>
