<svg width="14" height="14" viewBox="0 0 14 14" fill="none" xmlns="http://www.w3.org/2000/svg">
<path d="M10.8571 5.2857C10.8571 7.85713 6.99996 10.8571 6.99996 10.8571C6.99996 10.8571 3.14282 7.85713 3.14282 5.2857C3.14282 3.18484 4.89911 1.42856 6.99996 1.42856C9.10082 1.42856 10.8571 3.18484 10.8571 5.2857Z" stroke="#1C3D88" stroke-width="1.2" stroke-linecap="round" stroke-linejoin="round"/>
<path d="M6.99995 6.57143C7.71003 6.57143 8.28566 5.99579 8.28566 5.28571C8.28566 4.57563 7.71003 4 6.99995 4C6.28987 4 5.71423 4.57563 5.71423 5.28571C5.71423 5.99579 6.28987 6.57143 6.99995 6.57143Z" stroke="#1C3D88" stroke-width="1.2" stroke-linecap="round" stroke-linejoin="round"/>
<path d="M10.4948 9.57144H11.2857L12.5714 12.5714H1.42859L2.7143 9.57144H3.50519" stroke="#111111" stroke-width="1.2" stroke-linecap="round" stroke-linejoin="round"/>
</svg>
