<svg width="16" height="16" viewBox="0 0 16 16" fill="none" xmlns="http://www.w3.org/2000/svg">
<path d="M2.9231 1.57692L4.00002 0.5L5.07694 1.57692" stroke="#157EFB" stroke-linecap="round" stroke-linejoin="round"/>
<path d="M2.9231 6.4231L4.00002 7.50002L5.07694 6.4231" stroke="#157EFB" stroke-linecap="round" stroke-linejoin="round"/>
<path d="M4 0.5V7.5" stroke="#157EFB" stroke-linecap="round" stroke-linejoin="round"/>
<path d="M6.42285 2.9231L7.49977 4.00002L6.42285 5.07694" stroke="#157EFB" stroke-linecap="round" stroke-linejoin="round"/>
<path d="M1.57692 2.9231L0.5 4.00002L1.57692 5.07694" stroke="#157EFB" stroke-linecap="round" stroke-linejoin="round"/>
<path d="M7.5 4H0.5" stroke="#157EFB" stroke-linecap="round" stroke-linejoin="round"/>
<path d="M9.50012 3.5H14.577C15.0868 3.5 15.5001 3.91328 15.5001 4.42308L15.5001 14.5769C15.5001 15.0867 15.0868 15.5 14.577 15.5L4.4232 15.5C3.9134 15.5 3.50012 15.0867 3.50012 14.5769V9.5" stroke="#111111" stroke-linecap="round" stroke-linejoin="round"/>
<path d="M4.65369 15.5L11.3921 9.14926C11.4751 9.08019 11.5796 9.04236 11.6875 9.04236C11.7955 9.04236 11.9 9.08019 11.9829 9.14926L15.4998 11.6693" stroke="#111111" stroke-linecap="round" stroke-linejoin="round"/>
<path d="M7.19223 9.57691C7.95693 9.57691 8.57685 8.957 8.57685 8.19229C8.57685 7.42759 7.95693 6.80768 7.19223 6.80768C6.42753 6.80768 5.80762 7.42759 5.80762 8.19229C5.80762 8.957 6.42753 9.57691 7.19223 9.57691Z" stroke="#111111" stroke-linecap="round" stroke-linejoin="round"/>
</svg>
