<svg width="20" height="21" viewBox="0 0 20 21" fill="none" xmlns="http://www.w3.org/2000/svg">
<path d="M10 19.7857C15.1284 19.7857 19.2857 15.6283 19.2857 10.4999C19.2857 5.37159 15.1284 1.21423 10 1.21423C4.87164 1.21423 0.714286 5.37159 0.714286 10.4999C0.714286 15.6283 4.87164 19.7857 10 19.7857Z" stroke="white" stroke-width="1.4" stroke-linecap="round" stroke-linejoin="round"/>
<path d="M7.5 7.9995C7.5 7.50505 7.64676 7.0217 7.92171 6.61058C8.19666 6.19946 8.58746 5.87903 9.0447 5.68981C9.50193 5.50059 10.0051 5.45109 10.4904 5.54755C10.9758 5.64401 11.4217 5.88211 11.7717 6.23174C12.1216 6.58137 12.3599 7.02683 12.4565 7.51178C12.553 7.99673 12.5035 8.49939 12.3141 8.95621C12.1247 9.41302 11.804 9.80346 11.3925 10.0782C10.981 10.3529 10.4972 10.4995 10.0023 10.4995V12.1661" stroke="white" stroke-width="1.4" stroke-linecap="round" stroke-linejoin="round"/>
<path d="M9.99997 15.4406C9.80272 15.4406 9.64282 15.2807 9.64282 15.0835C9.64282 14.8862 9.80272 14.7263 9.99997 14.7263" stroke="white" stroke-width="1.4" stroke-linecap="round" stroke-linejoin="round"/>
<path d="M9.99997 15.4406C10.1972 15.4406 10.3571 15.2807 10.3571 15.0835C10.3571 14.8862 10.1972 14.7263 9.99997 14.7263" stroke="white" stroke-width="1.4" stroke-linecap="round" stroke-linejoin="round"/>
</svg>
