<svg width="16" height="16" viewBox="0 0 16 16" fill="none" xmlns="http://www.w3.org/2000/svg">
<path d="M14.3462 0.5H1.65385C1.01659 0.5 0.5 1.01659 0.5 1.65385V14.3462C0.5 14.9834 1.01659 15.5 1.65385 15.5H14.3462C14.9834 15.5 15.5 14.9834 15.5 14.3462V1.65385C15.5 1.01659 14.9834 0.5 14.3462 0.5Z" stroke="#111111" stroke-linecap="round" stroke-linejoin="round"/>
<path d="M0.5 12.5L2.91304 8M6.5 0.5L2.91304 8M2.91304 8L15 15" stroke="#111111"/>
<path d="M13.1906 5.61914C13.1906 7.61914 10.1906 9.95247 10.1906 9.95247C10.1906 9.95247 7.19055 7.61914 7.19055 5.61914C7.19055 3.98514 8.55655 2.61914 10.1906 2.61914C11.8246 2.61914 13.1906 3.98514 13.1906 5.61914Z" stroke="#157EFB" stroke-linecap="round" stroke-linejoin="round"/>
<path d="M10.1906 6.61914C10.7428 6.61914 11.1906 6.17143 11.1906 5.61914C11.1906 5.06686 10.7428 4.61914 10.1906 4.61914C9.63827 4.61914 9.19055 5.06686 9.19055 5.61914C9.19055 6.17143 9.63827 6.61914 10.1906 6.61914Z" stroke="#157EFB" stroke-linecap="round" stroke-linejoin="round"/>
</svg>
