<svg width="14" height="14" viewBox="0 0 14 14" fill="none" xmlns="http://www.w3.org/2000/svg">
<path fill-rule="evenodd" clip-rule="evenodd" d="M6.29216 1.1328C6.50528 1.00253 6.75021 0.933594 6.99999 0.933594C7.24976 0.933594 7.4947 1.00253 7.70781 1.1328C7.92093 1.26307 8.09396 1.44963 8.20784 1.67193L8.21008 1.6763L8.21006 1.67631L12.9236 11.1035L12.9241 11.1045C13.0279 11.3108 13.0773 11.5402 13.0676 11.771C13.058 12.0021 12.9893 12.227 12.8683 12.4241C12.7473 12.6213 12.5779 12.7843 12.3762 12.8975C12.1745 13.0108 11.9471 13.0706 11.7158 13.0713L11.7143 13.0713H2.2857L2.28419 13.0713C2.05284 13.0706 1.82552 13.0108 1.6238 12.8975C1.42209 12.7843 1.25267 12.6213 1.13165 12.4241C1.01063 12.227 0.942024 12.0021 0.932342 11.771C0.922672 11.5402 0.972094 11.3107 1.07592 11.1043L1.07633 11.1035L5.78992 1.67631L5.79211 1.67192L5.79213 1.67193C5.90602 1.44963 6.07905 1.26307 6.29216 1.1328ZM6.99997 4.42857C7.41418 4.42857 7.74997 4.76436 7.74997 5.17857V7.96429C7.74997 8.3785 7.41418 8.71429 6.99997 8.71429C6.58575 8.71429 6.24997 8.3785 6.24997 7.96429V5.17857C6.24997 4.76436 6.58575 4.42857 6.99997 4.42857ZM7.85711 10.3214C7.85711 10.7948 7.47335 11.1786 6.99997 11.1786C6.52658 11.1786 6.14282 10.7948 6.14282 10.3214C6.14282 9.84804 6.52658 9.46428 6.99997 9.46428C7.47335 9.46428 7.85711 9.84804 7.85711 10.3214Z" fill="#FF263C"/>
</svg>
