<svg width="14" height="14" viewBox="0 0 14 14" fill="none" xmlns="http://www.w3.org/2000/svg">
<path d="M8.5 0.5H5.5C4.94772 0.5 4.5 0.947715 4.5 1.5V2C4.5 2.55228 4.94772 3 5.5 3H8.5C9.05228 3 9.5 2.55228 9.5 2V1.5C9.5 0.947715 9.05228 0.5 8.5 0.5Z" stroke="black" stroke-linecap="round" stroke-linejoin="round"/>
<path d="M9.88095 1.5H11.4524C11.7302 1.5 11.9967 1.60536 12.1932 1.79289C12.3896 1.98043 12.5 2.23478 12.5 2.5V12.5C12.5 12.7652 12.3896 13.0196 12.1932 13.2071C11.9967 13.3946 11.7302 13.5 11.4524 13.5H2.54762C2.26977 13.5 2.00331 13.3946 1.80684 13.2071C1.61037 13.0196 1.5 12.7652 1.5 12.5V2.5C1.5 2.23478 1.61037 1.98043 1.80684 1.79289C2.00331 1.60536 2.26977 1.5 2.54762 1.5H4.11905" stroke="black" stroke-linecap="round" stroke-linejoin="round"/>
</svg>
