<svg width="21" height="21" viewBox="0 0 21 21" fill="none" xmlns="http://www.w3.org/2000/svg">
<path d="M12.3878 0.0627459C14.4774 0.0627459 16.4814 0.892834 17.959 2.3704C19.4366 3.84797 20.2667 5.85198 20.2667 7.94157C20.2716 9.49242 19.8133 11.0094 18.9504 12.2981L20.0822 15.3268C20.1636 15.5447 19.9769 15.7683 19.7481 15.7271L15.836 15.0232C14.7704 15.5429 13.6014 15.8153 12.4159 15.8203C11.2304 15.8253 10.059 15.5627 8.98915 15.0521C7.91925 14.5415 6.97836 13.7961 6.2366 12.8713C5.49484 11.9466 4.97133 10.8663 4.70507 9.71111C4.43881 8.5559 4.43668 7.3555 4.69882 6.19935C4.96097 5.0432 5.48063 3.96111 6.2191 3.03371C6.95757 2.10632 7.89579 1.35752 8.96387 0.843111C10.0319 0.328707 11.2023 0.0619597 12.3878 0.0627459Z" fill="white"/>
<path d="M6.69497 7.20557C4.99001 7.20557 3.35488 7.88286 2.14929 9.08845C0.943696 10.294 0.266404 11.9292 0.266404 13.6341C0.262389 14.8995 0.63635 16.1373 1.34035 17.1888L0.450845 19.5691C0.369443 19.787 0.556114 20.0106 0.784986 19.9694L3.88153 19.4123C4.75095 19.8363 5.70483 20.0586 6.6721 20.0626C7.63937 20.0667 8.5951 19.8525 9.46807 19.4359C10.341 19.0193 11.1087 18.411 11.714 17.6565C12.3192 16.9019 12.7463 16.0205 12.9636 15.078C13.1808 14.1354 13.1826 13.1559 12.9687 12.2126C12.7548 11.2693 12.3308 10.3864 11.7282 9.62967C11.1257 8.87298 10.3602 8.26201 9.48869 7.84229C8.61721 7.42257 7.66226 7.20493 6.69497 7.20557Z" fill="#33BFFF"/>
<path d="M5.06648 12.0716C5.06648 11.7732 5.15506 11.4815 5.321 11.2333C5.48695 10.9852 5.72282 10.7918 5.99878 10.6776C6.27474 10.5634 6.5784 10.5335 6.87136 10.5917C7.16432 10.65 7.43342 10.7937 7.64463 11.0047C7.85584 11.2157 7.99968 11.4846 8.05795 11.7772C8.11622 12.0699 8.08631 12.3733 7.97201 12.649C7.8577 12.9247 7.66413 13.1604 7.41577 13.3262C7.16741 13.492 6.87542 13.5805 6.57673 13.5805V14.5864" stroke="white" stroke-width="1.2" stroke-linecap="round" stroke-linejoin="round"/>
<path d="M6.57532 16.5628C6.45628 16.5628 6.35977 16.4663 6.35977 16.3472C6.35977 16.2282 6.45628 16.1317 6.57532 16.1317" stroke="white" stroke-width="1.2" stroke-linecap="round" stroke-linejoin="round"/>
<path d="M6.57542 16.5628C6.69447 16.5628 6.79098 16.4663 6.79098 16.3473C6.79098 16.2282 6.69447 16.1317 6.57542 16.1317" stroke="white" stroke-width="1.2" stroke-linecap="round" stroke-linejoin="round"/>
</svg>
