<svg width="20" height="20" viewBox="0 0 20 20" fill="none" xmlns="http://www.w3.org/2000/svg">
<path d="M19.2857 11.4286V15C19.2857 15.1894 19.2104 15.3711 19.0765 15.5051C18.9425 15.639 18.7608 15.7143 18.5714 15.7143H1.42852C1.23908 15.7143 1.0574 15.639 0.923443 15.5051C0.789488 15.3711 0.714233 15.1894 0.714233 15V3.57143C0.714233 3.38199 0.789488 3.20031 0.923443 3.06636C1.0574 2.9324 1.23908 2.85715 1.42852 2.85715H4.28566" stroke="#111111" stroke-linecap="round" stroke-linejoin="round"/>
<path d="M8.57139 15.7143L7.14282 19.2857" stroke="#111111" stroke-linecap="round" stroke-linejoin="round"/>
<path d="M11.4286 15.7143L12.8572 19.2857" stroke="#111111" stroke-linecap="round" stroke-linejoin="round"/>
<path d="M5.71423 19.2857H14.2857" stroke="#111111" stroke-linecap="round" stroke-linejoin="round"/>
<path d="M7.85718 7.85715H12.1429V10.7143L16.4286 7.85715H19.2857V0.714294H7.85718V7.85715Z" stroke="#157EFB" stroke-linecap="round" stroke-linejoin="round"/>
</svg>
