<svg width="16" height="16" viewBox="0 0 16 16" fill="none" xmlns="http://www.w3.org/2000/svg">
<g clip-path="url(#clip0_349_7930)">
<path d="M13.6 7.19999C13.6 8.9673 12.8837 10.5673 11.7255 11.7255C10.5674 12.8836 8.96736 13.6 7.20005 13.6C3.66543 13.6 0.800049 10.7346 0.800049 7.19999C0.800049 3.66537 3.66543 0.799988 7.20005 0.799988C10.7347 0.799988 13.6 3.66537 13.6 7.19999Z" fill="white"/>
<path d="M15.2 15.2L11.7255 11.7255M11.7255 11.7255C12.8837 10.5673 13.6 8.9673 13.6 7.19999C13.6 3.66537 10.7347 0.799988 7.20005 0.799988C3.66543 0.799988 0.800049 3.66537 0.800049 7.19999C0.800049 10.7346 3.66543 13.6 7.20005 13.6C8.96736 13.6 10.5674 12.8836 11.7255 11.7255Z" stroke="#111111" stroke-linecap="round" stroke-linejoin="round"/>
<path d="M7.19995 4.79999V9.59999" stroke="#157EFB" stroke-linecap="round" stroke-linejoin="round"/>
<path d="M4.80005 7.20001H9.60005" stroke="#157EFB" stroke-linecap="round" stroke-linejoin="round"/>
</g>
<defs>
<clipPath id="clip0_349_7930">
<rect width="16" height="16" fill="white"/>
</clipPath>
</defs>
</svg>
