<svg width="14" height="14" viewBox="0 0 14 14" fill="none" xmlns="http://www.w3.org/2000/svg">
<path d="M5.18345 0.999936V1.00008L5.19534 0.999795C5.42192 0.994404 5.64368 1.06615 5.82421 1.20335C6.00578 1.34135 6.13517 1.53826 6.19006 1.7602L6.19037 1.76142L6.40532 2.62121C6.46096 2.84379 6.66095 2.99994 6.89039 2.99994H12.5C12.7652 2.99994 13.0196 3.10529 13.2071 3.29283C13.3946 3.48037 13.5 3.73472 13.5 3.99994V11.9999C13.5 12.2652 13.3946 12.5195 13.2071 12.707C13.0196 12.8946 12.7652 12.9999 12.5 12.9999H1.5C1.23478 12.9999 0.980429 12.8946 0.792894 12.707C0.605357 12.5195 0.5 12.2652 0.5 11.9999V1.99994C0.5 1.73472 0.605357 1.48037 0.792893 1.29283C0.98043 1.10529 1.23478 0.999936 1.5 0.999936H5.18345Z" fill="#AED1FC" stroke="#4E9DFF" stroke-linecap="round" stroke-linejoin="round"/>
</svg>
