<svg width="21" height="21" viewBox="0 0 21 21" fill="none" xmlns="http://www.w3.org/2000/svg">
<path fill-rule="evenodd" clip-rule="evenodd" d="M2.40937 0.858734C1.34425 0.858734 0.480804 1.72218 0.480801 2.7873V2.78731L0.480759 6.96527C0.480759 8.03039 1.34421 8.89384 2.40933 8.89384H18.1236C19.1887 8.89384 20.0522 8.03039 20.0522 6.96528L20.0522 2.78731C20.0522 1.72219 19.1888 0.858734 18.1237 0.858734H2.40937ZM0.480801 13.1602C0.480804 12.0951 1.34425 11.2316 2.40937 11.2316H18.1237C19.1888 11.2316 20.0522 12.0951 20.0522 13.1602L20.0522 17.3382C20.0522 18.4033 19.1887 19.2667 18.1236 19.2667H2.40933C1.34421 19.2667 0.480759 18.4033 0.480759 17.3382L0.480801 13.1602Z" fill="white"/>
<path fill-rule="evenodd" clip-rule="evenodd" d="M4.79713 3.53702C4.05746 3.53702 3.45784 4.13664 3.45784 4.8763C3.45784 5.61597 4.05746 6.21559 4.79713 6.21559C5.53679 6.21559 6.13641 5.61597 6.13641 4.8763C6.13641 4.13664 5.53679 3.53702 4.79713 3.53702ZM3.45784 15.2492C3.45784 14.5095 4.05746 13.9099 4.79713 13.9099C5.53679 13.9099 6.13641 14.5095 6.13641 15.2492C6.13641 15.9889 5.53679 16.5885 4.79713 16.5885C4.05746 16.5885 3.45784 15.9889 3.45784 15.2492ZM10.3558 4.87631C10.3558 4.53113 10.6356 4.25131 10.9808 4.25131H15.9808C16.3259 4.25131 16.6058 4.53113 16.6058 4.87631C16.6058 5.22148 16.3259 5.50131 15.9808 5.50131H10.9808C10.6356 5.50131 10.3558 5.22148 10.3558 4.87631ZM10.9808 14.6242C10.6356 14.6242 10.3558 14.904 10.3558 15.2492C10.3558 15.5944 10.6356 15.8742 10.9808 15.8742H15.9808C16.3259 15.8742 16.6058 15.5944 16.6058 15.2492C16.6058 14.904 16.3259 14.6242 15.9808 14.6242H10.9808Z" fill="#3361FF"/>
</svg>
