<svg width="16" height="16" viewBox="0 0 16 16" fill="none" xmlns="http://www.w3.org/2000/svg">
<path d="M12.5 3.5L15.5 0.5" stroke="#157EFB" stroke-linecap="round" stroke-linejoin="round"/>
<path d="M11.5 0.5H15.5V4.5" stroke="#157EFB" stroke-linecap="round" stroke-linejoin="round"/>
<path d="M3.5 3.5L0.5 0.5" stroke="#157EFB" stroke-linecap="round" stroke-linejoin="round"/>
<path d="M4.5 0.5H0.5V4.5" stroke="#157EFB" stroke-linecap="round" stroke-linejoin="round"/>
<path d="M12.5 12.5L15.5 15.5" stroke="#157EFB" stroke-linecap="round" stroke-linejoin="round"/>
<path d="M11.5 15.5H15.5V11.5" stroke="#157EFB" stroke-linecap="round" stroke-linejoin="round"/>
<path d="M3.5 12.5L0.5 15.5" stroke="#157EFB" stroke-linecap="round" stroke-linejoin="round"/>
<path d="M4.5 15.5H0.5V11.5" stroke="#157EFB" stroke-linecap="round" stroke-linejoin="round"/>
<path d="M11.8077 3.5H4.19231C3.80996 3.5 3.5 3.80996 3.5 4.19231V11.8077C3.5 12.19 3.80996 12.5 4.19231 12.5H11.8077C12.19 12.5 12.5 12.19 12.5 11.8077V4.19231C12.5 3.80996 12.19 3.5 11.8077 3.5Z" stroke="#111111" stroke-linecap="round" stroke-linejoin="round"/>
<path d="M4.1731 11.9951L9.14331 7.31085C9.20448 7.2599 9.28157 7.23199 9.36118 7.23199C9.44079 7.23199 9.51788 7.2599 9.57905 7.31085L12.1731 9.16957" stroke="#111111" stroke-linecap="round" stroke-linejoin="round"/>
<path d="M6.04545 6.88868C6.60948 6.88868 7.06672 6.43144 7.06672 5.86741C7.06672 5.30337 6.60948 4.84613 6.04545 4.84613C5.48141 4.84613 5.02417 5.30337 5.02417 5.86741C5.02417 6.43144 5.48141 6.88868 6.04545 6.88868Z" stroke="#111111" stroke-linecap="round" stroke-linejoin="round"/>
</svg>
