<svg width="22" height="15" viewBox="0 0 22 15" fill="none" xmlns="http://www.w3.org/2000/svg">
<path d="M14.3995 1.08425L15.8265 3.7459C16.0188 4.11401 16.5349 4.46323 16.97 4.53874L19.5507 4.93515C21.2002 5.18999 21.5848 6.30374 20.4008 7.41748L18.3869 9.29574C18.0529 9.60721 17.8606 10.2207 17.9719 10.6643L18.5488 12.9862C19.0042 14.8173 17.9517 15.5346 16.2212 14.5719L13.8025 13.2316C13.3673 12.9862 12.6387 12.9862 12.2035 13.2316L9.78479 14.5719C8.05425 15.5251 7.00176 14.8173 7.45717 12.9862L8.03401 10.6643C8.12509 10.2113 7.93281 9.59777 7.59885 9.2863L5.58495 7.40804C4.4009 6.30374 4.78547 5.18999 6.43504 4.92572L9.01566 4.5293C9.45082 4.46323 9.96695 4.10457 10.1592 3.73647L11.5862 1.07481C12.3654 -0.35984 13.6203 -0.359839 14.3995 1.08425Z" fill="#666666"/>
<path d="M6.9198 1.59384H0.847751C0.432828 1.59384 0.0887451 1.27294 0.0887451 0.885957C0.0887451 0.498979 0.432828 0.17807 0.847751 0.17807H6.9198C7.33473 0.17807 7.67881 0.498979 7.67881 0.885957C7.67881 1.27294 7.33473 1.59384 6.9198 1.59384Z" fill="#AEAEAE"/>
<path d="M3.88378 14.8076H0.847751C0.432828 14.8076 0.0887451 14.4867 0.0887451 14.0998C0.0887451 13.7128 0.432828 13.3919 0.847751 13.3919H3.88378C4.2987 13.3919 4.64278 13.7128 4.64278 14.0998C4.64278 14.4867 4.2987 14.8076 3.88378 14.8076Z" fill="#AEAEAE"/>
<path d="M1.85976 8.20075H0.847752C0.432828 8.20075 0.0887451 7.87984 0.0887451 7.49286C0.0887451 7.10588 0.432828 6.78497 0.847752 6.78497H1.85976C2.27468 6.78497 2.61877 7.10588 2.61877 7.49286C2.61877 7.87984 2.27468 8.20075 1.85976 8.20075Z" fill="#AEAEAE"/>
</svg>
