<svg width="14" height="14" viewBox="0 0 14 14" fill="none" xmlns="http://www.w3.org/2000/svg">
<g clip-path="url(#clip0_754_134172)">
<path d="M13.335 2.00375V11.6725H7.00002V2.00375H13.335ZM13.335 1.33875H7.00002C6.63252 1.33875 6.33502 1.63625 6.33502 2.00375V11.6725C6.33502 12.04 6.63252 12.3375 7.00002 12.3375H13.335C13.7025 12.3375 14 12.04 14 11.6725V2.00375C14 1.63625 13.7025 1.33875 13.335 1.33875Z" fill="#247045"/>
<path d="M12.3375 3.00125H10.0012V3.99875H12.3375V3.00125Z" fill="#247045"/>
<path d="M12.3375 4.66376H10.0012V5.66126H12.3375V4.66376Z" fill="#247045"/>
<path d="M12.3375 6.33499H10.0012V7.33249H12.3375V6.33499Z" fill="#247045"/>
<path d="M12.3375 7.9975H10.0012V8.995H12.3375V7.9975Z" fill="#247045"/>
<path d="M12.3375 9.66876H10.0012V10.6663H12.3375V9.66876Z" fill="#247045"/>
<path d="M9.33625 3.00125H7V3.99875H9.33625V3.00125Z" fill="#247045"/>
<path d="M9.33625 4.66376H7V5.66126H9.33625V4.66376Z" fill="#247045"/>
<path d="M9.33625 6.33499H7V7.33249H9.33625V6.33499Z" fill="#247045"/>
<path d="M9.33625 7.9975H7V8.995H9.33625V7.9975Z" fill="#247045"/>
<path d="M9.33625 9.66876H7V10.6663H9.33625V9.66876Z" fill="#247045"/>
<path d="M0 1.46125V12.5387L8.33 14V0L0 1.46125ZM4.725 9.59L3.955 7.77875L3.9375 7.72625L3.92 7.6475L3.89375 7.5425L3.8675 7.42V7.49L3.84125 7.5775L3.815 7.6825L3.78 7.79625L3.045 9.49375L1.95125 9.42375L3.2725 6.83375L2.07375 4.24375L3.19375 4.17375L3.80625 5.7575L3.84125 5.85375L3.87625 5.9675L3.9025 6.08125C3.9025 6.08125 3.92875 6.16 3.92875 6.20375L3.955 6.11625L3.98125 6.0025L4.01625 5.88875L4.06 5.74L4.76875 4.0775L5.9325 4.0075L4.55 6.81625L5.985 9.66875L4.7075 9.59H4.725Z" fill="#247045"/>
</g>
<defs>
<clipPath id="clip0_754_134172">
<rect width="14" height="14" fill="white"/>
</clipPath>
</defs>
</svg>
