<svg width="17" height="17" viewBox="0 0 17 17" fill="none" xmlns="http://www.w3.org/2000/svg">
<path d="M10.7789 8.68559L7.35034 9.30274L7.92177 5.82845L13.3275 0.445599C13.4337 0.338481 13.5601 0.253459 13.6994 0.195437C13.8387 0.137416 13.988 0.107544 14.1389 0.107544C14.2898 0.107544 14.4392 0.137416 14.5784 0.195437C14.7177 0.253459 14.8441 0.338481 14.9503 0.445599L16.1618 1.65703C16.2689 1.76327 16.3539 1.88967 16.4119 2.02894C16.4699 2.16821 16.4998 2.31758 16.4998 2.46845C16.4998 2.61933 16.4699 2.7687 16.4119 2.90797C16.3539 3.04724 16.2689 3.17364 16.1618 3.27988L10.7789 8.68559Z" fill="#666666"/>
<path fill-rule="evenodd" clip-rule="evenodd" d="M11.0321 10.0916C11.3199 10.0398 11.585 9.90085 11.7913 9.6936L16.5 4.96493V13.2504C16.5 13.705 16.3194 14.1411 15.9979 14.4626C15.6764 14.7841 15.2404 14.9647 14.7857 14.9647H5.71321L1.21003 16.0905C1.0077 16.1411 0.793877 16.0774 0.65217 15.9244C0.510464 15.7713 0.463383 15.5533 0.529336 15.3554L1.64287 12.0148V1.82183C1.64287 1.36717 1.82348 0.931137 2.14497 0.609646C2.46646 0.288156 2.9025 0.107544 3.35715 0.107544H11.6425L6.91388 4.81616C6.70142 5.02772 6.56092 5.30076 6.51226 5.59661L5.94083 9.07089C5.86551 9.52882 6.01733 9.9948 6.34795 10.3205C6.67857 10.6461 7.14679 10.7909 7.60354 10.7087L11.0321 10.0916Z" fill="#DDDDDD"/>
</svg>
