<svg width="14" height="14" viewBox="0 0 14 14" fill="none" xmlns="http://www.w3.org/2000/svg">
<path d="M12.6875 0.5H1.3125C0.863769 0.5 0.5 0.863769 0.5 1.3125V12.6875C0.5 13.1362 0.863769 13.5 1.3125 13.5H12.6875C13.1362 13.5 13.5 13.1362 13.5 12.6875V1.3125C13.5 0.863769 13.1362 0.5 12.6875 0.5Z" stroke="#14181F" stroke-linecap="round" stroke-linejoin="round"/>
<path d="M3.5 6.21264C3.5 5.86538 3.68016 5.54298 3.9759 5.36098L6.4759 3.82252C6.79731 3.62473 7.20269 3.62473 7.5241 3.82252L10.0241 5.36098C10.3198 5.54298 10.5 5.86538 10.5 6.21264V9.5C10.5 10.0523 10.0523 10.5 9.5 10.5H4.5C3.94772 10.5 3.5 10.0523 3.5 9.5V6.21264Z" stroke="#111111"/>
</svg>
