<svg width="20" height="21" viewBox="0 0 20 21" fill="none" xmlns="http://www.w3.org/2000/svg">
<path d="M10 19.7857C15.1284 19.7857 19.2857 15.6283 19.2857 10.4999C19.2857 5.37159 15.1284 1.21423 10 1.21423C4.87164 1.21423 0.714286 5.37159 0.714286 10.4999C0.714286 15.6283 4.87164 19.7857 10 19.7857Z" stroke="white" stroke-width="1.4" stroke-linecap="round" stroke-linejoin="round"/>
<path d="M5.28569 11.9286C5.99997 14.5 8.85712 16.0714 11.4285 15.3572C13 14.7857 14.2857 13.5 14.7143 11.9286" stroke="white" stroke-width="1.4" stroke-linecap="round" stroke-linejoin="round"/>
<path d="M6.78571 8.35711C6.58847 8.35711 6.42857 8.19721 6.42857 7.99997C6.42857 7.80272 6.58847 7.64282 6.78571 7.64282" stroke="white" stroke-width="1.4" stroke-linecap="round" stroke-linejoin="round"/>
<path d="M6.78571 8.35711C6.98296 8.35711 7.14286 8.19721 7.14286 7.99997C7.14286 7.80272 6.98296 7.64282 6.78571 7.64282" stroke="white" stroke-width="1.4" stroke-linecap="round" stroke-linejoin="round"/>
<path d="M13.2143 8.35711C13.017 8.35711 12.8571 8.19721 12.8571 7.99997C12.8571 7.80272 13.017 7.64282 13.2143 7.64282" stroke="white" stroke-width="1.4" stroke-linecap="round" stroke-linejoin="round"/>
<path d="M13.2143 8.35711C13.4115 8.35711 13.5714 8.19721 13.5714 7.99997C13.5714 7.80272 13.4115 7.64282 13.2143 7.64282" stroke="white" stroke-width="1.4" stroke-linecap="round" stroke-linejoin="round"/>
</svg>
