<svg width="16" height="16" viewBox="0 0 16 16" fill="none" xmlns="http://www.w3.org/2000/svg">
<path d="M7.99994 9.5V12.5" stroke="#111111"/>
<path d="M3 9.5V12.5" stroke="#111111"/>
<path d="M13 9.5V12.5" stroke="#111111"/>
<path d="M5.5 9.5V11.5" stroke="#111111"/>
<path d="M10.5 9.5V11.5" stroke="#111111"/>
<rect x="0.5" y="9.5" width="15" height="6" rx="1" stroke="#111111"/>
<path d="M0.5 6V8" stroke="#157EFB" stroke-linecap="round"/>
<path d="M15.5 6V8" stroke="#157EFB" stroke-linecap="round"/>
<path d="M0.5 7H15.5" stroke="#157EFB" stroke-linecap="round"/>
<path d="M3.30005 4.94922V0H4.31177V2.65918H4.36646L5.56958 1.2373H6.73169L5.35083 2.84375L6.80688 4.94922H5.61743L4.59888 3.43848L4.31177 3.75977V4.94922H3.30005Z" fill="#157EFB"/>
<path d="M7.20337 4.94922V1.2373H8.16724V1.88672H8.20825C8.36548 1.45605 8.74146 1.18945 9.24048 1.18945C9.75317 1.18945 10.1292 1.45605 10.2522 1.88672H10.2864C10.4436 1.46289 10.8606 1.18945 11.4075 1.18945C12.0979 1.18945 12.5764 1.64746 12.5764 2.4541V4.94922H11.5647V2.65234C11.5647 2.22852 11.3186 2.02344 10.9836 2.02344C10.6008 2.02344 10.3821 2.29004 10.3821 2.67969V4.94922H9.39771V2.625C9.39771 2.25586 9.16528 2.02344 8.82349 2.02344C8.48169 2.02344 8.21509 2.29688 8.21509 2.7207V4.94922H7.20337Z" fill="#157EFB"/>
</svg>
