<svg width="16" height="16" viewBox="0 0 16 16" fill="none" xmlns="http://www.w3.org/2000/svg">
<path d="M15.1579 9.59999V12C15.1579 13.7673 13.6498 15.2 11.7895 15.2H6.7551C5.68461 15.2 4.67785 14.7166 4.04299 13.8978L1.133 10.1446C0.6864 9.56864 0.798144 8.76043 1.38616 8.31353C1.98533 7.85817 2.84916 7.90389 3.39136 8.41967L5.05265 9.99999V8.79999H5.05596L5.05265 7.19999L5.06734 3.59999C5.06734 2.93725 5.63288 2.39999 6.3305 2.39999C7.02812 2.39999 7.59366 2.93725 7.59366 3.59999V7.19999V1.99999C7.59366 1.33725 8.15919 0.799988 8.85682 0.799988C9.55444 0.799988 10.12 1.33725 10.12 1.99999V7.19999V2.79999C10.12 2.13725 10.6855 1.59999 11.3831 1.59999C12.0808 1.59999 12.6463 2.13725 12.6463 2.79999V7.19999V4.39999C12.6463 3.73725 13.2118 3.19999 13.9094 3.19999C14.6071 3.19999 15.1726 3.73725 15.1726 4.39999L15.1629 9.59999H15.1579Z" stroke="#111111" stroke-linecap="square" stroke-linejoin="round"/>
</svg>
