<?xml version="1.0" encoding="UTF-8"?>
<svg xmlns="http://www.w3.org/2000/svg" version="1.1" id="ic_objectaddress_circle_03" width="20px" height="20px" viewBox="0 0 20 20">
  <!-- Generator: Adobe Illustrator 29.0.0, SVG Export Plug-In . SVG Version: 2.1.0 Build 186)  -->
  <g id="ic_objectaddress_circle_03">
    <circle cx="10" cy="10" r="10" fill="#315fd3"/>
    <g>
      <path d="M9.782,3.795c0,.799-.648,1.447-1.447,1.447s-1.447-.648-1.447-1.447.648-1.447,1.447-1.447,1.447.648,1.447,1.447Z" fill="#fff"/>
      <path d="M11.647,10.003l-.952-3.134.526-1.239c-.148-.054-.806-.067-.806-.067l-1.592.03c-1.479.026-.325,1.706-.325,1.706l.916,2.751-2.25,2.737c-.161.134-.43.712-.43.712l-1.153,3.735c0,.336.282.416.282.416.433,0,.868-.01,1.301,0,.217.005.367-.532.404-.695.047-.205.098-.409.147-.615.107-.451.607-1.707.716-2.157.025-.103.05-.206.075-.308l2.068-2.27" fill="#fff"/>
      <path d="M8.832,5.872c.282.199.382.542.224.767l-1.529,2.17c-.158.225-.515.246-.797.047h0c-.281-.198-.382-.541-.224-.766l1.529-2.17c.158-.225.515-.246.796-.048h.001Z" fill="#fff"/>
      <path d="M7.646,8.401c-.004.332-.229.599-.502.595l-3.14-.033c-.273-.003-.491-.276-.487-.607h0c.004-.332.229-.598.502-.595l3.14.033c.273.004.491.276.487.607h0Z" fill="#fff"/>
      <path d="M10.135,6.186c.002-.345.227-.623.502-.622l2.654.016c.275.002.496.283.494.627h0c-.002.344-.227.622-.501.621l-2.654-.016c-.275-.002-.496-.283-.494-.627h0Z" fill="#fff"/>
      <path d="M12.889,5.715c.275-.186.622-.154.776.073l1.479,2.184c.153.226.054.561-.221.747h0c-.275.186-.622.154-.775-.073l-1.479-2.185c-.153-.226-.054-.561.22-.746h0Z" fill="#fff"/>
      <path d="M10.446,9.373c-.456.183-.709.625-.564.99l1.404,3.516c.145.364.633.511,1.09.329h0c.456-.182.708-.625.563-.989l-1.404-3.515c-.145-.364-.634-.511-1.089-.33h0Z" fill="#fff"/>
      <path d="M11.31,13.5c0,.474.316.858.706.858h3.762c.39,0,.706-.384.706-.857h0c0-.473-.315-.857-.706-.858h-3.762c-.39,0-.706.385-.705.857h-.001Z" fill="#fff"/>
    </g>
  </g>
</svg>