<?xml version="1.0" encoding="UTF-8"?>
<svg xmlns="http://www.w3.org/2000/svg" version="1.1" id="ic_objectaddress_circle_04" width="20px" height="20px" viewBox="0 0 20 20">
  <!-- Generator: Adobe Illustrator 29.0.0, SVG Export Plug-In . SVG Version: 2.1.0 Build 186)  -->
  <g id="_x30_4_x5F_버스정류장">
    <circle cx="10" cy="10" r="10" fill="#315fd3"/>
    <path d="M16.697,8.509l-.326-.649-.926.465v-4.134c0-.201-.162-.363-.363-.363H4.918c-.201,0-.363.162-.363.363v4.134l-.926-.465-.326.649,1.252.629v5.218c0,.201.162.363.363.363h.363c0,.801.651,1.452,1.452,1.452s1.452-.651,1.452-1.452h3.63c0,.801.651,1.452,1.452,1.452s1.452-.651,1.452-1.452h.363c.201,0,.363-.162.363-.363v-5.218s1.252-.629,1.252-.629ZM7.312,10.363h-1.443v-3.993h8.261v3.993h-2.169M11.285,10.363h-3.4M7.996,13.389h-1.8v-1.743h1.8s0,1.743,0,1.743ZM12.004,13.389v-1.743h1.8v1.743h-1.8Z" fill="#fff"/>
  </g>
</svg>