<?xml version="1.0" encoding="UTF-8"?>
<svg xmlns="http://www.w3.org/2000/svg" version="1.1" id="ic_objectaddress_circle_20" width="20px" height="20px" viewBox="0 0 20 20">
  <!-- Generator: Adobe Illustrator 29.0.0, SVG Export Plug-In . SVG Version: 2.1.0 Build 186)  -->
  <defs>
    <style>
      .st0 {
        fill: #fff;
      }

      .st1 {
        fill: #315fd3;
      }
    </style>
  </defs>
  <g id="_x32_0_x5F_무더위쉼터">
    <path class="st1" d="M19.5,6.7c2.6,8.1-4.7,15.4-12.8,12.8-2.9-.9-5.2-3.2-6.1-6.1C-2.1,5.3,5.3-2.1,13.3.5c2.9.9,5.2,3.2,6.1,6.1h0Z"/>
    <path class="st0" d="M16.8,9c0-.1-.2-.2-.4-.2h-4.6c-.1,0-.3-.3-.4-.4l.9-2.3s0,0,0,0c.2-.9-.1-1.9-.9-2.5-.7-.6-1.6-.7-2.4-.3-.1,0-.2.2-.2.4v4.6c0,.1-.3.3-.4.4l-2.3-.9s0,0,0,0c-.9-.2-1.9.1-2.5.9-.6.7-.7,1.6-.3,2.4,0,.1.2.2.4.2h4.6c.1,0,.3.3.4.4l-.9,2.3s0,0,0,0c-.2.9.1,1.9.9,2.5.5.4,1,.5,1.5.5s.6,0,.9-.2c.1,0,.2-.2.2-.4v-4.6c0-.1.3-.3.4-.4l2.3.9s0,0,0,0c.2,0,.4,0,.5,0,.8,0,1.5-.3,2-1,.6-.7.7-1.6.3-2.4h0ZM10,11.6c-.9,0-1.6-.7-1.6-1.6s.7-1.6,1.6-1.6,1.6.7,1.6,1.6-.7,1.6-1.6,1.6Z"/>
  </g>
</svg>