<svg xmlns="http://www.w3.org/2000/svg" xml:space="preserve" width="37" height="46"><path fill="#FFF" stroke="#4362AD" stroke-miterlimit="10" d="M8.486 24.974s-3.262-3.953-3.058-8.376c0 0-.009-13.202 13.883-13.202 0 0 13.235.272 13.202 13.202 0 0 .475 2.655-2.179 7.214 0 0-10.358 14.427-11.337 16.06 0 0-10.438-14.971-11.391-16.06"/><circle cx="18.983" cy="16.938" r="10" fill="#315FD3"/><path fill="#FFF" d="M23.488 11.438h-9.01a.995.995 0 0 0-.995.995v9.01c0 .55.445.995.995.995h9.01c.55 0 .995-.445.995-.995v-9.01a.994.994 0 0 0-.995-.995m-.905 6.614a.145.145 0 0 1-.145.144H20.24v2.199a.14.14 0 0 1-.143.143h-2.235a.144.144 0 0 1-.143-.144v-2.198h-2.193a.143.143 0 0 1-.143-.143v-2.235c0-.079.063-.144.143-.144h2.193V13.48c0-.079.063-.143.143-.143h2.235c.079 0 .144.064.144.144v2.192h2.198c.079 0 .144.064.144.144z"/></svg>