<svg xmlns="http://www.w3.org/2000/svg" xml:space="preserve" width="37" height="46"><path fill="#FFF" stroke="#4362AD" stroke-miterlimit="10" d="M8.486 24.974s-3.262-3.953-3.058-8.376c0 0-.009-13.202 13.883-13.202 0 0 13.235.272 13.202 13.202 0 0 .475 2.655-2.179 7.214 0 0-10.358 14.427-11.337 16.06 0 0-10.438-14.971-11.391-16.06"/><circle cx="18.983" cy="16.813" r="10" fill="#315FD3"/><path fill="#FFF" d="M20.828 21.813a.89.89 0 0 1-.84-.666l-.797-3.101a.215.215 0 0 0-.415 0l-.798 3.101a.885.885 0 0 1-.819.665h-.003c-.417 0-.744-.23-.873-.587l-1.363-3.812a.21.21 0 0 0-.202-.143h-1.802a.888.888 0 0 1 0-1.774h1.014a.214.214 0 0 0 .202-.285l-.505-1.414a.887.887 0 0 1 1.669-.596l1.447 4.047a.215.215 0 0 0 .202.143h.011a.21.21 0 0 0 .196-.16l.97-3.768a.887.887 0 0 1 1.718 0l.971 3.768a.21.21 0 0 0 .195.16h.01c.09 0 .172-.057.201-.143l1.447-4.047a.89.89 0 0 1 1.135-.537.89.89 0 0 1 .537 1.133l-.506 1.414a.213.213 0 0 0 .201.285h1.014a.888.888 0 0 1 0 1.774h-1.801a.215.215 0 0 0-.203.143l-1.361 3.812a.89.89 0 0 1-.836.588h-.02z"/></svg>