<svg xmlns="http://www.w3.org/2000/svg" xml:space="preserve" width="37" height="46"><path fill="#FFF" stroke="#4362AD" stroke-miterlimit="10" d="M8.486 24.974s-3.262-3.953-3.058-8.376c0 0-.009-13.202 13.883-13.202 0 0 13.235.272 13.202 13.202 0 0 .475 2.655-2.179 7.214 0 0-10.358 14.427-11.337 16.06 0 0-10.438-14.971-11.391-16.06"/><circle cx="19.191" cy="16.938" r="10" fill="#315FD3"/><g fill="#FFF"><path d="M24.914 14.547c0 .43-.349.777-.777.777h-9.891a.78.78 0 0 1-.378-1.457l5.324-2.957 5.323 2.957a.78.78 0 0 1 .399.68M14.308 20.334h9.767a.84.84 0 0 1 .84.84v.007a.84.84 0 0 1-.84.84h-9.766a.84.84 0 0 1-.841-.841v-.006a.84.84 0 0 1 .84-.84"/><path d="M16.008 21.039a.62.62 0 0 1-.625-.623v-5.371a.624.624 0 0 1 1.248 0v5.371a.62.62 0 0 1-.623.623M19.191 21.039a.62.62 0 0 1-.624-.623v-5.371a.623.623 0 1 1 1.247 0v5.371a.62.62 0 0 1-.623.623M22.377 21.039a.62.62 0 0 1-.625-.623v-5.371a.624.624 0 0 1 1.248 0v5.371a.62.62 0 0 1-.623.623"/></g></svg>