<?xml version="1.0" encoding="UTF-8"?>
<svg xmlns="http://www.w3.org/2000/svg" version="1.1" id="ic_objectaddress_circle_23" width="20px" height="20px" viewBox="0 0 20 20">
  <!-- Generator: Adobe Illustrator 29.0.0, SVG Export Plug-In . SVG Version: 2.1.0 Build 186)  -->
  <g id="_x32_3_x5F_푸드트럭허가구역">
    <circle cx="10" cy="10" r="10" fill="#315fd3"/>
    <path d="M16.333,5h-7.667c-.184,0-.333.149-.333.333v1.667h-2.751c-.114,0-.22.058-.281.155l-1.916,3.017c-.034.053-.052.116-.052.179v2.983c0,.184.149.333.333.333h1.034c.155.76.828,1.333,1.633,1.333s1.478-.574,1.633-1.333h4.067c.155.76.828,1.333,1.633,1.333s1.478-.574,1.633-1.333h1.034c.184,0,.333-.149.333-.333V5.334c0-.184-.149-.333-.333-.333h0ZM6.333,14.333c-.551,0-1-.449-1-1s.449-1,1-1,1,.449,1,1-.449,1-1,1ZM6.333,11.667c-.805,0-1.478.574-1.633,1.333h-.7v-2.333h1.667v-.667h-1.383l1.482-2.333h2.568v5.333h-.367c-.155-.76-.828-1.333-1.633-1.333h-.001ZM13.667,14.333c-.551,0-1-.449-1-1s.449-1,1-1,1,.449,1,1-.449,1-1,1Z" display="none" fill="#315fd3"/>
    <path d="M15.966,4.812h-7.372c-.276,0-.5.224-.5.5v.906h-2.513c-.162,0-.313.078-.407.21l-1.917,2.691c-.061.084-.093.186-.093.29v2.062c0,.276.224.5.5.5h.933c-.327.383-.532.873-.532,1.415,0,1.21.984,2.194,2.194,2.194s2.194-.984,2.194-2.194c0-.542-.205-1.032-.532-1.415h4.206c-.327.383-.532.873-.532,1.415,0,1.21.984,2.194,2.194,2.194s2.194-.984,2.194-2.194c0-.542-.205-1.032-.532-1.415h.513c.276,0,.5-.224.5-.5v-6.16c0-.276-.224-.5-.5-.5ZM6.259,14.581c-.658,0-1.194-.536-1.194-1.194s.536-1.193,1.194-1.193,1.194.535,1.194,1.193-.536,1.194-1.194,1.194ZM13.79,14.581c-.658,0-1.194-.536-1.194-1.194s.536-1.193,1.194-1.193,1.194.535,1.194,1.193-.536,1.194-1.194,1.194ZM4.164,9.569l1.675-2.351h2.255v3.754h-3.93v-1.403Z" fill="#fff"/>
  </g>
</svg>