<svg xmlns="http://www.w3.org/2000/svg" xml:space="preserve" width="37" height="46"><path fill="#FFF" stroke="#4362AD" stroke-miterlimit="10" d="M8.486 24.974s-3.262-3.953-3.058-8.376c0 0-.009-13.202 13.883-13.202 0 0 13.235.272 13.202 13.202 0 0 .475 2.655-2.179 7.214 0 0-10.358 14.427-11.337 16.06 0 0-10.438-14.971-11.391-16.06"/><circle cx="19.139" cy="16.598" r="10" fill="#315FD3"/><g fill="#FFF"><path d="M11.747 16.289c-.033.015-.033.045-.003.064l2.747 1.814.787-3.703-3.531 1.822zM26.527 14.465h-4.84l-.789 3.703h4.84c.037 0 .043-.016.014-.034l-2.754-1.813 3.537-1.824q.046-.029-.008-.032"/><path d="M26.313 12.039H14.918c-.636 0-1.083.401-1.187.896a.67.67 0 0 0 .255.681l4.094 2.701v-.002l.002.002 8.238-4.244c.031-.018.027-.031-.008-.031zM24.506 20.559l-6.421-4.242h-.002l-5.245 2.703c-.28.166-.485.407-.542.682-.105.492.169.893.805.893h11.396c.037 0 .039-.016.012-.034z"/></g></svg>