<?xml version="1.0" encoding="UTF-8"?>
<svg xmlns="http://www.w3.org/2000/svg" version="1.1" id="ic_objectaddress_circle_02" width="20px" height="20px" viewBox="0 0 20 20">
  <!-- Generator: Adobe Illustrator 29.0.0, SVG Export Plug-In . SVG Version: 2.1.0 Build 186)  -->
  <g id="ic_objectaddress_circle_02">
    <path d="M19.456,6.65c2.635,8.08-4.726,15.44-12.805,12.805-2.875-.938-5.175-3.24-6.109-6.116C-2.082,5.265,5.265-2.082,13.339.541c2.876.934,5.178,3.234,6.116,6.109h0Z" fill="#315fd3"/>
    <path d="M16.828,15.144l-1.29-2.084-2.861-5.174-1.998,3.781-1.155-2.419-1.985,3.759-1.323,2.137c-.05.081-.048.18.005.259.053.08.15.128.255.128h10.091c.105,0,.202-.049.255-.128s.056-.178.005-.259h.001Z" fill="#fff"/>
    <path d="M4.919,11.247V3.579h2.378c.901,0,1.224.037,1.496.11.422.11.774.349,1.057.719.284.368.427.845.427,1.429,0,.451-.082.831-.246,1.137-.164.306-.372.548-.623.723-.253.175-.509.291-.769.348-.354.069-.601.105-1.271.105h-.966v3.097h-1.483ZM6.401,4.876v2.038h.812c.584,0,.73-.015.927-.092.196-.077.351-.197.462-.361.113-.164.169-.354.169-.571,0-.267-.079-.487-.236-.66-.157-.174-.355-.282-.595-.326-.178-.034-.289-.028-.824-.028h-.716.001Z" fill="#fff"/>
  </g>
</svg>