<?xml version="1.0" encoding="UTF-8"?>
<svg xmlns="http://www.w3.org/2000/svg" version="1.1" id="ic_objectaddress_circle_19" width="20px" height="20px" viewBox="0 0 20 20">
  <!-- Generator: Adobe Illustrator 29.0.0, SVG Export Plug-In . SVG Version: 2.1.0 Build 186)  -->
  <defs>
    <style>
      .st0 {
        stroke-miterlimit: 10;
      }

      .st0, .st1, .st2, .st3, .st4, .st5 {
        stroke: #fff;
      }

      .st0, .st4 {
        fill: #fff;
      }

      .st1, .st2, .st3, .st4, .st5 {
        stroke-linejoin: round;
      }

      .st1, .st2, .st3, .st5 {
        fill: none;
      }

      .st2, .st6 {
        display: none;
      }

      .st2, .st3, .st4, .st5 {
        stroke-linecap: round;
      }

      .st7 {
        fill: #315fd3;
      }

      .st5 {
        stroke-width: 1.3px;
      }
    </style>
  </defs>
  <g id="_x31_9_x5F_비상소화장치">
    <circle class="st7" cx="10" cy="10" r="10"/>
    <g>
      <g>
        <path class="st0" d="M9.1,14.9v-5.4c0-1.2-1-2.1-2.1-2.1h0c-1.2,0-2.1,1-2.1,2.1v5.4h4.3,0Z"/>
        <path class="st5" d="M5.5,4.7h3.9s1.9,0,1.9,1.9v5.9"/>
        <g class="st6">
          <polyline class="st4" points="4.8 5.9 3.7 6.8 2.9 6.8 2.9 6.3 2.9 5.1 3.7 5.1 4.8 6"/>
        </g>
        <line class="st2" x1="5.1" y1="12.6" x2="9.4" y2="12.6"/>
        <line class="st3" x1="7" y1="7.5" x2="7" y2="5.1"/>
      </g>
      <g>
        <line class="st1" x1="13.3" y1="8.1" x2="16.6" y2="6.1"/>
        <line class="st1" x1="13.3" y1="11.9" x2="16.6" y2="13.9"/>
        <line class="st1" x1="13.6" y1="10" x2="17.8" y2="10"/>
      </g>
    </g>
  </g>
</svg>