<svg xmlns="http://www.w3.org/2000/svg" xml:space="preserve" width="37" height="46"><path fill="#FFF" stroke="#4362AD" stroke-miterlimit="10" d="M8.486 24.974s-3.262-3.953-3.058-8.376c0 0-.009-13.202 13.883-13.202 0 0 13.235.272 13.202 13.202 0 0 .475 2.655-2.179 7.214 0 0-10.358 14.427-11.337 16.06 0 0-10.438-14.971-11.391-16.06"/><circle cx="19" cy="17" r="10" fill="#4362AE"/><path fill="#FFF" d="m26.495 13.104-6.185 2.558-.75-4.177s-.653-1.158-1.433.097c0 0-1.787.243-2.014 1.121 0 0 1.949-.181 1.981.275l-.518 2.579c-.374-.179-1.295-.495-1.879-.745-.586-.251-4.203-1.738-4.203-1.738s-.335 1.813.966 1.91c0 0-.293.65.52.911 0 0-.065.716.879.846 0 0 .162.683.976.812 0 0 .604.524 1.475.58-.216.09-.544.262-.638.544-.143.433.308.992.308.992-.128.731.315.923.428.933-.092.084-.324.494.192 1.008 0 0-.043.718.324.986.367.271 1.038.019 1.038.019.683.362 1.015-.048 1.037-.134.021.086.354.496 1.038.134 0 0 .671.253 1.037-.019.366-.27.323-.986.323-.986.517-.514.283-.924.19-1.008.113-.01.558-.201.429-.933 0 0 .449-.56.31-.992-.093-.272-.402-.444-.617-.536 1.015-.123 1.455-.555 1.455-.555.813-.13.978-.813.978-.813.941-.13.877-.845.877-.845.813-.26.521-.911.521-.911 1.301-.098.957-1.913.957-1.913zM19 21.441a1.649 1.649 0 1 1-.082-3.298h.081A1.648 1.648 0 0 1 19 21.441"/></svg>