<svg xmlns="http://www.w3.org/2000/svg" xml:space="preserve" width="37" height="46"><path fill="#FFF" stroke="#4362AD" stroke-miterlimit="10" d="M8.486 24.974s-3.262-3.953-3.058-8.376c0 0-.009-13.202 13.883-13.202 0 0 13.235.272 13.202 13.202 0 0 .475 2.655-2.179 7.214 0 0-10.358 14.427-11.337 16.06 0 0-10.438-14.971-11.391-16.06"/><circle cx="19.25" cy="16.598" r="10" fill="#315FD3"/><path fill="#FFF" d="M24.709 19.652v-5.146a.833.833 0 0 0-.831-.832h-1.219c-.119-1.984-1.593-3.557-3.409-3.557s-3.29 1.572-3.409 3.557h-1.218a.833.833 0 0 0-.832.832v5.146H12.5v1.199H26v-1.199zm-8.341 0h-1.377v-4.777h1.377zm2.332 0h-1.332v-4.777H18.7zm2.436 0H19.8v-4.777h1.336zm2.374 0h-1.374v-4.777h1.374z"/></svg>