<?xml version="1.0" encoding="UTF-8"?>
<svg id="_아이콘" xmlns="http://www.w3.org/2000/svg" version="1.1" id="ic_objectaddress_circle_06" width="20px" height="20px" viewBox="0 0 20 20">
  <!-- Generator: Adobe Illustrator 29.0.0, SVG Export Plug-In . SVG Version: 2.1.0 Build 186)  -->
  <defs>
    <style>
      .st0 {
        fill: #fff;
      }

      .st1 {
        fill: #315fd3;
      }
    </style>
  </defs>
  <g id="_x30_6_x5F_졸음쉼터">
    <circle class="st1" cx="10" cy="10" r="10"/>
    <g>
      <path class="st0" d="M6.2,4.5h7.6c.9,0,1.7.8,1.7,1.7v7.6c0,.9-.8,1.7-1.7,1.7h-7.6c-.9,0-1.7-.8-1.7-1.7v-7.6c0-.9.8-1.7,1.7-1.7h0Z"/>
      <path class="st1" d="M7.8,13.7v-7.5h2.2c.8,0,1.2,0,1.4.1.4.1.7.3,1,.7.3.3.4.8.4,1.3s0,.8-.2,1.1c-.2.3-.4.5-.6.7-.2.2-.5.3-.7.3-.3,0-.6,0-1.2,0h-.9v3.2h-1.4,0ZM9.2,7.5v1.9h.8c.6,0,.7,0,.9,0,.2,0,.3-.2.4-.3.1-.2.2-.3.2-.5s0-.5-.2-.6c-.1-.2-.3-.3-.6-.3-.2,0-.3,0-.8,0,0,0-.7,0-.7,0Z"/>
    </g>
  </g>
</svg>