<?xml version="1.0" encoding="UTF-8"?>
<svg xmlns="http://www.w3.org/2000/svg" version="1.1" id="ic_objectaddress_circle_18" width="20px" height="20px" viewBox="0 0 20 20">
  <!-- Generator: Adobe Illustrator 29.0.0, SVG Export Plug-In . SVG Version: 2.1.0 Build 186)  -->
  <defs>
    <style>
      .st0 {
        fill: #fff;
      }

      .st1 {
        fill: #315fd3;
      }

      .st2 {
        fill: none;
        stroke: #fff;
        stroke-linejoin: round;
        stroke-width: 1.2px;
      }
    </style>
  </defs>
  <g id="_x31_8_x5F_자전거거치대">
    <circle class="st1" cx="10" cy="10" r="10"/>
    <path class="st0" d="M4.5,10.7v-6.5h2.3c.9,0,1.2,0,1.5.1.4.1.8.3,1,.7.3.4.4.8.4,1.4s0,.8-.2,1.1c-.2.3-.4.5-.6.7-.2.2-.5.3-.8.3-.3,0-.6.1-1.2.1h-.9v2.1h-1.5ZM6,5.5v2h.8c.6,0,.7,0,.9,0,.2,0,.3-.2.5-.4.1-.2.2-.3.2-.6s0-.5-.2-.6c-.2-.2-.3-.3-.6-.3-.2,0-.3,0-.8,0h-.7Z"/>
    <g>
      <path class="st2" d="M13,13.4c0,1,.8,1.9,1.9,1.9s1.9-.8,1.9-1.9-.8-1.9-1.9-1.9-1.9.8-1.9,1.9Z"/>
      <path class="st2" d="M6.1,13.4c0,1,.8,1.9,1.9,1.9s1.9-.8,1.9-1.9-.8-1.9-1.9-1.9-1.9.8-1.9,1.9Z"/>
      <polyline class="st2" points="14.5 11.6 13.4 7.5 11.6 7.5"/>
      <polyline class="st2" points="14.1 10 8.8 10 8.3 11.6"/>
    </g>
  </g>
</svg>