<?xml version="1.0" encoding="UTF-8"?>
<svg xmlns="http://www.w3.org/2000/svg" version="1.1" id="ic_objectaddress_circle_12" width="20px" height="20px" viewBox="0 0 20 20">
  <!-- Generator: Adobe Illustrator 29.0.0, SVG Export Plug-In . SVG Version: 2.1.0 Build 186)  -->
  <g id="_x31_2_x5F_드론배달점">
    <circle cx="10" cy="10" r="10" fill="#315fd3"/>
    <g id="uuid-9628cb5c-fd2f-47a4-88ac-799d94d3ae68">
      <g>
        <g>
          <path d="M7.267,12.586l-.172-.067-.172-.067-.671-.269-1.593,1.187c-.154.117-.246.299-.246.491v1.23c0,.337.277.613.615.613s.622-.276.622-.613v-.924l.308-.233,1.752-1.305h-.203c-.08,0-.16-.013-.228-.043,0,0-.012,0-.012,0Z" fill="#fff"/>
          <path d="M14.292,14.167v.924c0,.337.275.613.62.613s.615-.276.615-.613v-1.23c0-.197-.093-.381-.246-.491l-1.593-1.187-.671.269-.173.067-.172.067c-.072.03-.146.043-.226.043h-.204l1.753,1.305.308.233s-.011,0-.011,0Z" fill="#fff"/>
        </g>
        <g>
          <path d="M2.666,9.555c0,.268.221.487.494.487h.958v-.973h-.958c-.269,0-.494.219-.494.486Z" fill="#fff"/>
          <path d="M16.846,5.156l-.005.005h-4.405c-.268,0-.493.219-.493.487s.22.491.493.491h2.455v2.93h-.958v-.487c0-.268-.225-.487-.494-.487h-6.872c-.274,0-.494.219-.494.487v.487h-.963v-2.934h2.453c.274,0,.489-.219.489-.492s-.22-.486-.489-.486H3.155c-.274,0-.489.219-.489.486s.22.492.489.492h.973v4.399c0,.268.22.487.493.487s.489-.219.489-.487v-.486h.963v.647l2.058.818h3.744l2.058-.818v-.647h.958v.491c0,.268.219.487.489.487l.004-.005c.269,0,.489-.219.489-.487v-.486h.969c.268,0,.493-.219.493-.487s-.22-.487-.493-.487v-.005h-.969v-2.934h.973c.273,0,.488-.219.488-.492s-.22-.486-.488-.486h0Z" fill="#fff"/>
        </g>
      </g>
    </g>
  </g>
</svg>