<svg width="16" height="17" viewBox="0 0 16 17" fill="none" xmlns="http://www.w3.org/2000/svg">
<path fill-rule="evenodd" clip-rule="evenodd" d="M1.5 7.73668C1.5 3.96999 4.49796 0.900024 8.21624 0.900024C11.9345 0.900024 14.9325 3.96999 14.9325 7.73668C14.9325 10.0204 13.7822 11.9891 12.4953 13.4816C11.2042 14.979 9.7304 16.0504 8.9793 16.5494C8.5132 16.859 7.91929 16.859 7.45318 16.5494C6.70208 16.0504 5.22827 14.979 3.93722 13.4816C2.6503 11.9891 1.5 10.0204 1.5 7.73668ZM8.21624 9.40003C9.47901 9.40003 10.5027 8.37636 10.5027 7.1136C10.5027 5.85084 9.47901 4.82716 8.21624 4.82716C6.95348 4.82716 5.92981 5.85084 5.92981 7.1136C5.92981 8.37636 6.95348 9.40003 8.21624 9.40003Z" fill="#ED1C24"/>
</svg>
