<svg xmlns="http://www.w3.org/2000/svg" xml:space="preserve" width="37" height="46"><path fill="#FFF" stroke="#4362AD" stroke-miterlimit="10" d="M8.486 24.974s-3.262-3.953-3.058-8.376c0 0-.009-13.202 13.883-13.202 0 0 13.235.272 13.202 13.202 0 0 .475 2.655-2.179 7.214 0 0-10.358 14.427-11.337 16.06 0 0-10.438-14.971-11.391-16.06"/><circle cx="19.25" cy="16.598" r="10" fill="#315FD3"/><path fill="#FFF" d="M23.965 16.824a.47.47 0 0 0-.221-.394l-4.11-2.565v-.652l3.084-1.057a.4.4 0 0 0 .204-.527.3.3 0 0 0-.055-.077.36.36 0 0 0-.124-.149L19.54 9.67a.4.4 0 0 0-.272-.063c-.013 0-.022-.007-.035-.007a.4.4 0 0 0-.401.4v3.888l-4.076 2.545a.48.48 0 0 0-.221.394l-.028 4.642a.47.47 0 0 0 .465.473c.013 0 .024-.006.038-.006.012 0 .023.006.036.006h2.705v-2.489a1.5 1.5 0 0 1 3 0v2.489h2.721q.015-.001.026-.006.014.005.026.006h.004a.47.47 0 0 0 .466-.473v-.054l-.028-4.588v-.003z"/></svg>