<?xml version="1.0" encoding="utf-8"?>
<!-- Generator: Adobe Illustrator 16.0.0, SVG Export Plug-In . SVG Version: 6.00 Build 0)  -->
<!DOCTYPE svg PUBLIC "-//W3C//DTD SVG 1.1//EN" "http://www.w3.org/Graphics/SVG/1.1/DTD/svg11.dtd">
<svg version="1.1" id="Layer_1" xmlns="http://www.w3.org/2000/svg" xmlns:xlink="http://www.w3.org/1999/xlink" x="0px" y="0px"
	 width="20px" height="20px" viewBox="0 0 20 20" enable-background="new 0 0 20 20" xml:space="preserve">
<circle fill="#4EA0F2" cx="10" cy="10" r="10"/>
<g>
	<path fill="#FFFFFF" d="M16.188,7.373c0,0.464-0.376,0.841-0.84,0.841H4.652c-0.464,0-0.84-0.376-0.84-0.84c0,0,0,0,0-0.001
		c0-0.305,0.165-0.586,0.432-0.734l5.348-2.971c0.254-0.142,0.563-0.142,0.817,0l5.347,2.971
		C16.022,6.787,16.188,7.068,16.188,7.373z M15.348,15.455H4.652c-0.464,0-0.84-0.376-0.84-0.84l0,0V14.47
		c0-0.464,0.376-0.84,0.84-0.84l0,0h10.696c0.465-0.001,0.841,0.375,0.842,0.839v0.001v0.146c0,0.464-0.377,0.84-0.84,0.84
		C15.349,15.455,15.348,15.455,15.348,15.455z"/>
	<path fill="#FFFFFF" d="M6.236,14.393c-0.372,0.001-0.674-0.301-0.675-0.673v-0.001V9.408c0-0.373,0.302-0.675,0.674-0.675
		S6.91,9.036,6.91,9.408v4.311C6.91,14.092,6.608,14.393,6.236,14.393z M10,14.393c-0.372,0.001-0.674-0.301-0.675-0.673v-0.001
		V9.408c0-0.373,0.302-0.675,0.674-0.675s0.674,0.302,0.674,0.675v4.311C10.674,14.092,10.372,14.393,10,14.393z M13.766,14.393
		c-0.373,0.001-0.676-0.301-0.676-0.673v-0.001V9.408c0-0.373,0.303-0.675,0.675-0.675s0.675,0.302,0.675,0.675v4.311
		C14.439,14.092,14.137,14.393,13.766,14.393z"/>
</g>
</svg>
