<?xml version="1.0" encoding="utf-8"?>
<!-- Generator: Adobe Illustrator 16.0.0, SVG Export Plug-In . SVG Version: 6.00 Build 0)  -->
<!DOCTYPE svg PUBLIC "-//W3C//DTD SVG 1.1//EN" "http://www.w3.org/Graphics/SVG/1.1/DTD/svg11.dtd">
<svg version="1.1" id="Layer_1" xmlns="http://www.w3.org/2000/svg" xmlns:xlink="http://www.w3.org/1999/xlink" x="0px" y="0px"
	 width="20px" height="20px" viewBox="0 0 20 20" enable-background="new 0 0 20 20" xml:space="preserve">
<circle fill="#A84CA1" cx="10" cy="10" r="10"/>
<path fill="#FFFFFF" d="M15.262,8.69h-0.013l0.41-1.107c0.202-0.545-0.077-1.15-0.622-1.353c-0.545-0.202-1.15,0.076-1.352,0.622
	l-1.403,3.791l-1.314-2.255c-0.22-0.538-0.834-0.795-1.372-0.575C9.335,7.919,9.128,8.126,9.021,8.387l-1.315,2.255L6.303,6.852
	C6.084,6.313,5.47,6.054,4.931,6.272C4.416,6.481,4.152,7.056,4.329,7.583L4.74,8.69H4.731c-0.033,0-1.367,0.001-1.398,0.004
	C2.754,8.75,2.331,9.266,2.387,9.844c0.053,0.538,0.503,0.948,1.043,0.951h2.088l1.149,3.104c0.202,0.545,0.808,0.823,1.353,0.621
	c0.275-0.102,0.496-0.314,0.608-0.586l1.365-2.895l1.366,2.895c0.162,0.396,0.547,0.651,0.973,0.651h0.021
	c0.433-0.008,0.815-0.28,0.967-0.687l1.15-3.104h2.112c0.581-0.022,1.034-0.513,1.013-1.094c-0.021-0.534-0.439-0.968-0.972-1.01
	L15.262,8.69z"/>
</svg>
