<?xml version="1.0" encoding="utf-8"?>
<!-- Generator: Adobe Illustrator 16.0.0, SVG Export Plug-In . SVG Version: 6.00 Build 0)  -->
<!DOCTYPE svg PUBLIC "-//W3C//DTD SVG 1.1//EN" "http://www.w3.org/Graphics/SVG/1.1/DTD/svg11.dtd">
<svg version="1.1" id="Layer_1" xmlns="http://www.w3.org/2000/svg" xmlns:xlink="http://www.w3.org/1999/xlink" x="0px" y="0px"
	 width="20px" height="20px" viewBox="0 0 20 20" enable-background="new 0 0 20 20" xml:space="preserve">
<circle fill="#A84CA1" cx="10" cy="10" r="10"/>
<g>
	<path fill="#FFFFFF" d="M15.438,12.758V7.155c0-0.182-0.146-0.329-0.328-0.329c0,0-0.001,0-0.002,0h-1.394
		c-0.043-1.461-1.108-3.523-3.601-3.523c-2.024-0.069-3.729,1.5-3.828,3.523H4.892c-0.182,0-0.33,0.147-0.33,0.329v5.603H15.438z
		 M10,4.418c1.346,0.002,2.449,1.064,2.504,2.408H7.497C7.551,5.482,8.655,4.42,10,4.418z M4.563,13.416v1.648
		c0,0.182,0.148,0.328,0.33,0.328h10.214c0.184,0,0.33-0.146,0.33-0.328v-1.648H4.563z"/>
</g>
</svg>
