<?xml version="1.0" encoding="utf-8"?>
<!-- Generator: Adobe Illustrator 16.0.0, SVG Export Plug-In . SVG Version: 6.00 Build 0)  -->
<!DOCTYPE svg PUBLIC "-//W3C//DTD SVG 1.1//EN" "http://www.w3.org/Graphics/SVG/1.1/DTD/svg11.dtd">
<svg version="1.1" id="Layer_1" xmlns="http://www.w3.org/2000/svg" xmlns:xlink="http://www.w3.org/1999/xlink" x="0px" y="0px"
	 width="20px" height="20px" viewBox="0 0 20 20" enable-background="new 0 0 20 20" xml:space="preserve">
<circle fill="#4EA0F2" cx="10" cy="10" r="10"/>
<path fill="#FFFFFF" d="M17.868,7.212v0.021c-0.007,0.243-0.046,0.483-0.116,0.716c0,0-0.327,0.72-0.779,1.347l-1.629,2.513h-1.701
	v-1.638l0.854-0.949c0.219-0.198,0.324-0.519,0.324-0.519c0.092-0.645-0.613-0.54-0.613-0.54c-0.192,0.024-0.382,0.069-0.564,0.134
	V6.415c0.652-0.276,1.342-0.46,2.047-0.547C15.688,5.868,17.882,5.54,17.868,7.212z M13.643,13.53v-0.304h0.779l-0.197,0.307
	L13.643,13.53z M13.643,12.958V12.65h1.153L14.6,12.958H13.643z M13.643,12.383V12.08h1.527l-0.197,0.303H13.643z M6.347,8.99
	c0.102,0.028,0.186,0.104,0.082,0.296C6.398,9.338,6.371,9.392,6.347,9.448V8.99z M13.643,6.415v1.884
	c-0.851,0.307-1.152,0.959-1.152,0.959c-0.215,0.864,0.867,0.614,0.867,0.614v0.61l0.219-0.237l0.066-0.073v1.637H12.2l0.184-0.197
	c0,0-2.534,0.092-2.262-1.633C10.323,8.686,11.744,7.215,13.643,6.415z M13.643,12.08v0.303H11.68l0.277-0.303H13.643z
	 M13.643,12.65v0.308h-2.49l0.279-0.308H13.643z M13.643,13.227v0.305l-2.994-0.016l0.261-0.289H13.643z M6.347,13.511v-0.284h1.644
	c-0.074,0.181-0.121,0.284-0.121,0.284H6.347z M6.347,12.958V12.65H8.23l-0.126,0.308H6.347z M6.347,12.383V12.08h2.127
	l-0.131,0.303H6.347z M6.347,11.809h2.24c0.456-1.086,0.988-2.333,1.094-2.521C9.878,8.934,9.42,8.973,9.42,8.973H7.032
	c-0.116,0-0.13,0.102-0.13,0.102l-0.265,0.42l0.709,0.011l-0.998,2.046L6.347,11.809L6.347,11.809z M3.38,9.494l0.261-0.42
	c0,0,0.014-0.102,0.131-0.102h2.392c0,0,0.098-0.007,0.183,0.018v0.458c-0.194,0.417-0.632,1.442-1.02,2.36H2.964l1.125-2.305
	L3.38,9.494z M6.347,11.551L6.22,11.809h0.127V11.551z M6.347,12.08v0.303H5.941L6.09,12.08H6.347z M6.347,12.65v0.308H5.659
	L5.81,12.65H6.347z M6.347,13.227v0.284H5.388l0.141-0.284H6.347z M5.215,12.08l-0.128,0.303H2.682L2.83,12.08H5.215z M4.975,12.65
	l-0.13,0.308H2.404l0.147-0.308H4.975z M4.735,13.227c-0.078,0.181-0.12,0.284-0.12,0.284H2.132l0.137-0.284H4.735z"/>
</svg>
