<?xml version="1.0" encoding="utf-8"?>
<!-- Generator: Adobe Illustrator 16.0.0, SVG Export Plug-In . SVG Version: 6.00 Build 0)  -->
<!DOCTYPE svg PUBLIC "-//W3C//DTD SVG 1.1//EN" "http://www.w3.org/Graphics/SVG/1.1/DTD/svg11.dtd">
<svg version="1.1" id="Layer_1" xmlns="http://www.w3.org/2000/svg" xmlns:xlink="http://www.w3.org/1999/xlink" x="0px" y="0px"
	 width="20px" height="20px" viewBox="0 0 20 20" enable-background="new 0 0 20 20" xml:space="preserve">
<circle fill="#4EA0F2" cx="10" cy="10" r="10"/>
<path fill="#FFFFFF" d="M9.252,5.791c0,0-0.684-0.26-0.911,0.618c0,0,0.846-0.098,0.878,0.358L8.577,8.478
	C8.221,8.246,7.159,7.572,6.649,7.385C6.031,7.157,2.095,5.39,2.095,5.39S2.16,7.808,3.461,7.905c0,0-0.293,0.65,0.52,0.911
	c0,0-0.065,0.716,0.879,0.846c0,0,0.162,0.683,0.976,0.813c0,0,0.604,0.524,1.475,0.58c-0.216,0.09-0.544,0.262-0.638,0.545
	c-0.143,0.433,0.308,0.991,0.308,0.991c-0.128,0.732,0.315,0.923,0.428,0.933c-0.092,0.084-0.324,0.494,0.192,1.009
	c0,0-0.043,0.717,0.324,0.985c0.367,0.271,1.038,0.019,1.038,0.019c0.683,0.362,1.015-0.048,1.037-0.134
	c0.022,0.086,0.354,0.496,1.038,0.134c0,0,0.671,0.253,1.037-0.019c0.366-0.27,0.323-0.985,0.323-0.985
	c0.517-0.515,0.283-0.925,0.191-1.009c0.113-0.01,0.557-0.2,0.43-0.933c0,0,0.448-0.56,0.308-0.991
	c-0.091-0.272-0.402-0.445-0.617-0.537c1.013-0.123,1.455-0.555,1.455-0.555c0.813-0.13,0.976-0.813,0.976-0.813
	c0.943-0.13,0.879-0.845,0.879-0.845c0.813-0.26,0.521-0.911,0.521-0.911c1.301-0.098,1.367-2.516,1.367-2.516
	s-3.937,1.768-4.556,1.996c-0.592,0.217-1.924,1.089-2.041,1.165l-0.625-2.889C10.684,5.693,9.955,4.786,9.252,5.791z"/>
</svg>
