<?xml version="1.0" encoding="utf-8"?>
<!-- Generator: Adobe Illustrator 16.0.0, SVG Export Plug-In . SVG Version: 6.00 Build 0)  -->
<!DOCTYPE svg PUBLIC "-//W3C//DTD SVG 1.1//EN" "http://www.w3.org/Graphics/SVG/1.1/DTD/svg11.dtd">
<svg version="1.1" id="Layer_1" xmlns="http://www.w3.org/2000/svg" xmlns:xlink="http://www.w3.org/1999/xlink" x="0px" y="0px"
	 width="20px" height="20px" viewBox="0 0 20 20" enable-background="new 0 0 20 20" xml:space="preserve">
<circle fill="#2E7AC6" cx="10" cy="10" r="10"/>
<path fill="#FFFFFF" d="M9.427,4.342H8.034v8.627H7.053V4.342H6.798c-0.834,0-1.513,0.677-1.513,1.509v8.363l0.001,0.03
	l-0.001,0.027c0.047,0.773,0.684,1.379,1.458,1.387h7.501c0.26,0,0.471-0.213,0.471-0.473V4.813c0-0.26-0.21-0.471-0.47-0.472
	c-0.001,0-0.001,0-0.001,0h-0.891 M13.771,14.715H6.743c-0.267-0.004-0.487-0.207-0.513-0.472c0.026-0.265,0.247-0.468,0.513-0.472
	h6.048c0.021,0,0.04-0.002,0.061-0.006l0.922-0.117v1.066H13.771z"/>
</svg>
