<?xml version="1.0" encoding="utf-8"?>
<!-- Generator: Adobe Illustrator 16.0.0, SVG Export Plug-In . SVG Version: 6.00 Build 0)  -->
<!DOCTYPE svg PUBLIC "-//W3C//DTD SVG 1.1//EN" "http://www.w3.org/Graphics/SVG/1.1/DTD/svg11.dtd">
<svg version="1.1" id="Layer_1" xmlns="http://www.w3.org/2000/svg" xmlns:xlink="http://www.w3.org/1999/xlink" x="0px" y="0px"
	 width="20px" height="20px" viewBox="0 0 20 20" enable-background="new 0 0 20 20" xml:space="preserve">
<circle fill="#3977D1" cx="10" cy="10" r="10"/>
<path fill="#FFFFFF" d="M9.427,4.342H8.034v8.627H7.053V4.342H6.798c-0.834,0-1.513,0.677-1.513,1.509v8.363l0.001,0.03
	l-0.001,0.027c0.047,0.773,0.684,1.379,1.458,1.387h7.501c0.26,0,0.471-0.213,0.471-0.473V4.813c0-0.26-0.21-0.471-0.47-0.472
	c-0.001,0-0.001,0-0.001,0h-0.891 M13.771,14.715H6.743c-0.267-0.004-0.487-0.207-0.513-0.472c0.026-0.265,0.247-0.468,0.513-0.472
	h6.048c0.021,0,0.04-0.002,0.061-0.006l0.922-0.117v1.066H13.771z"/>
<circle fill="#3977D1" cx="10" cy="10" r="10"/>
<path fill="#FFFFFF" d="M3.282,7.79l6.835-3.107L16.718,8.1l-6.835,4.039L3.282,7.79z"/>
<path fill="#FFFFFF" d="M6.37,9.354l3.408,2.312l3.852-2.328v3.516l-3.726,2.086l-3.507-1.961L6.37,9.354z M15.521,8.108h0.435
	v3.049h-0.435V8.108z"/>
<path fill="#FFFFFF" d="M15.085,10.287h1.306v3.049h-1.306V10.287z"/>
<circle fill="#2E7AC6" cx="10" cy="10" r="10"/>
<path fill="#FFFFFF" d="M14.743,14.816v-0.002l-0.028-4.587c-0.002-0.16-0.085-0.309-0.221-0.394l-4.11-2.566V6.615l3.084-1.056
	c0.202-0.089,0.294-0.326,0.204-0.528l0,0C13.659,5,13.639,4.978,13.617,4.954c-0.027-0.06-0.07-0.112-0.124-0.15L10.29,3.072
	c-0.08-0.054-0.177-0.076-0.273-0.063C10.006,3.006,9.995,3,9.983,3C9.762,3,9.582,3.18,9.582,3.401c0,0,0,0.001,0,0.001v3.887
	L5.506,9.833c-0.135,0.085-0.218,0.234-0.221,0.394l-0.028,4.641c-0.002,0.259,0.205,0.47,0.463,0.473c0.001,0,0.001,0,0.002,0
	c0.013,0,0.024-0.006,0.038-0.006c0.012,0,0.023,0.006,0.036,0.006h8.427c0.008,0,0.018-0.004,0.025-0.006
	c0.01,0.002,0.018,0.006,0.027,0.006h0.002c0.26-0.001,0.468-0.212,0.467-0.47c0-0.001,0-0.002,0-0.003L14.743,14.816L14.743,14.816
	z"/>
<path fill="#2E7AC6" d="M8.401,11.6c0.001,0.883,0.717,1.598,1.6,1.599c0.882-0.003,1.597-0.717,1.599-1.599
	c-0.002-0.883-0.717-1.598-1.6-1.6C9.117,10.001,8.402,10.717,8.401,11.6z"/>
</svg>
