<?xml version="1.0" encoding="utf-8"?>
<!-- Generator: Adobe Illustrator 16.0.0, SVG Export Plug-In . SVG Version: 6.00 Build 0)  -->
<!DOCTYPE svg PUBLIC "-//W3C//DTD SVG 1.1//EN" "http://www.w3.org/Graphics/SVG/1.1/DTD/svg11.dtd">
<svg version="1.1" id="Layer_1" xmlns="http://www.w3.org/2000/svg" xmlns:xlink="http://www.w3.org/1999/xlink" x="0px" y="0px"
	 width="20px" height="20px" viewBox="0 0 20 20" enable-background="new 0 0 20 20" xml:space="preserve">
<circle fill="#327CC0" cx="10" cy="10" r="10"/>
<path fill="#FFFFFF" d="M14.743,14.816v-0.002l-0.028-4.587c-0.002-0.16-0.085-0.309-0.221-0.394l-4.11-2.566V6.615l3.084-1.056
	c0.202-0.089,0.294-0.326,0.204-0.528l0,0C13.659,5,13.639,4.978,13.617,4.954c-0.027-0.06-0.07-0.112-0.124-0.15L10.29,3.072
	c-0.08-0.054-0.177-0.076-0.273-0.063C10.006,3.006,9.995,3,9.983,3C9.762,3,9.582,3.18,9.582,3.401c0,0,0,0.001,0,0.001v3.887
	L5.506,9.833c-0.135,0.085-0.218,0.234-0.221,0.394l-0.028,4.641c-0.002,0.259,0.205,0.47,0.463,0.473c0.001,0,0.001,0,0.002,0
	c0.013,0,0.024-0.006,0.038-0.006c0.012,0,0.023,0.006,0.036,0.006h8.427c0.008,0,0.018-0.004,0.025-0.006
	c0.01,0.002,0.018,0.006,0.027,0.006h0.002c0.26-0.001,0.468-0.212,0.467-0.47c0-0.001,0-0.002,0-0.003L14.743,14.816L14.743,14.816
	z"/>
<path fill="#327CC0" d="M8.623,11.548c0.001,0.761,0.616,1.375,1.377,1.377c0.76-0.001,1.375-0.617,1.376-1.377
	c-0.001-0.759-0.616-1.375-1.376-1.377C9.24,10.173,8.625,10.788,8.623,11.548z"/>
<circle fill="#1BA6CC" cx="10" cy="10" r="10"/>
<path fill="#FFFFFF" d="M9.099,7.97L7.864,3.71h1.468c0.585,0,1.123,0.32,1.402,0.833l1.723,3.427H9.099z M14.796,8.835H6.271
	L4.892,7.457C4.611,7.156,4.14,7.14,3.839,7.42C3.58,7.663,3.527,8.054,3.713,8.356l1.715,3.142h3.806L7.352,16.29h1.63
	c0.574,0.003,1.104-0.306,1.385-0.806l2.441-3.986h3.584v-1.065c0.002-0.881-0.712-1.597-1.594-1.598
	C14.798,8.835,14.797,8.835,14.796,8.835z"/>
</svg>
