<?xml version="1.0" encoding="utf-8"?>
<!-- Generator: Adobe Illustrator 16.0.0, SVG Export Plug-In . SVG Version: 6.00 Build 0)  -->
<!DOCTYPE svg PUBLIC "-//W3C//DTD SVG 1.1//EN" "http://www.w3.org/Graphics/SVG/1.1/DTD/svg11.dtd">
<svg version="1.1" id="Layer_1" xmlns="http://www.w3.org/2000/svg" xmlns:xlink="http://www.w3.org/1999/xlink" x="0px" y="0px"
	 width="20px" height="20px" viewBox="0 0 20 20" enable-background="new 0 0 20 20" xml:space="preserve">
<circle fill="#A84CA1" cx="10" cy="10" r="10"/>
<path fill="#FFFFFF" d="M9.551,8.216h3.516V4.394c0-0.282-0.229-0.51-0.51-0.51l0,0H5.421c-0.282,0-0.51,0.229-0.51,0.51v3.823
	h3.823"/>
<path fill="#FFFFFF" d="M15.958,5.477l-1.313-1.313c-0.204-0.194-0.527-0.186-0.721,0.019c-0.187,0.197-0.187,0.505,0,0.702
	l1.164,1.164v5.79c0,0.133-0.106,0.241-0.238,0.241c-0.001,0-0.002,0-0.002,0H14.66c-0.133,0-0.24-0.107-0.24-0.24c0,0,0,0,0-0.001
	v-1.641c0-0.695-0.566-1.26-1.26-1.26h-0.096V8.046H4.911v5.526c-0.306,0.229-0.558,0.525-0.734,0.869l-0.02,0.039
	c-0.033,0.067-0.064,0.137-0.092,0.207l-0.026,0.073c-0.022,0.063-0.042,0.126-0.059,0.189c-0.008,0.028-0.016,0.057-0.022,0.086
	c-0.015,0.065-0.026,0.131-0.036,0.196c-0.004,0.029-0.01,0.058-0.013,0.084c-0.012,0.096-0.018,0.191-0.018,0.287
	c0,0.281,0.229,0.511,0.51,0.511h9.174c0.281,0,0.51-0.229,0.51-0.511l0,0c0-0.124-0.01-0.248-0.03-0.371
	c-0.01-0.065-0.021-0.131-0.037-0.196c-0.006-0.029-0.014-0.058-0.021-0.086c-0.018-0.063-0.037-0.127-0.06-0.189l-0.026-0.073
	c-0.033-0.084-0.071-0.166-0.112-0.246c-0.176-0.342-0.428-0.639-0.734-0.869V9.957h0.097c0.132,0,0.239,0.107,0.239,0.24v1.641
	c0,0.695,0.564,1.26,1.261,1.26h0.188c0.692,0,1.26-0.563,1.26-1.26v-6C16.108,5.703,16.055,5.573,15.958,5.477z"/>
<path fill="#A84CA1" d="M9.551,8.216h2.155V5.753c0-0.281-0.228-0.509-0.509-0.51H6.78c-0.281,0-0.51,0.228-0.51,0.51l0,0v2.463
	h2.464"/>
</svg>
