<?xml version="1.0" encoding="utf-8"?>
<!-- Generator: Adobe Illustrator 16.0.0, SVG Export Plug-In . SVG Version: 6.00 Build 0)  -->
<!DOCTYPE svg PUBLIC "-//W3C//DTD SVG 1.1//EN" "http://www.w3.org/Graphics/SVG/1.1/DTD/svg11.dtd">
<svg version="1.1" id="Layer_1" xmlns="http://www.w3.org/2000/svg" xmlns:xlink="http://www.w3.org/1999/xlink" x="0px" y="0px"
	 width="20px" height="20px" viewBox="0 0 20 20" enable-background="new 0 0 20 20" xml:space="preserve">
<circle fill="#EFA500" cx="10" cy="10" r="10"/>
<path fill="#FFFFFF" d="M16.512,9.17c0.617,0,0.875-0.791,0.373-1.153L14.238,6.1L11.4,4.044c-0.836-0.605-1.964-0.605-2.799,0
	l-2.84,2.055L3.115,8.017C2.614,8.379,2.871,9.17,3.489,9.17h0.794v5.115c0,0.877,0.709,1.586,1.584,1.586h8.264
	c0.876,0,1.585-0.709,1.585-1.586V9.17H16.512z"/>
<path fill="#EFA500" d="M11.964,15.871H8.036v-3.813c0-1.086,0.879-1.965,1.964-1.965c1.084,0,1.964,0.879,1.964,1.965V15.871z"/>
</svg>
