<?xml version="1.0" encoding="utf-8"?>
<!-- Generator: Adobe Illustrator 16.0.0, SVG Export Plug-In . SVG Version: 6.00 Build 0)  -->
<!DOCTYPE svg PUBLIC "-//W3C//DTD SVG 1.1//EN" "http://www.w3.org/Graphics/SVG/1.1/DTD/svg11.dtd">
<svg version="1.1" id="Layer_1" xmlns="http://www.w3.org/2000/svg" xmlns:xlink="http://www.w3.org/1999/xlink" x="0px" y="0px"
	 width="20px" height="20px" viewBox="0 0 20 20" enable-background="new 0 0 20 20" xml:space="preserve">
<circle fill="#4EA0F2" cx="10" cy="10" r="10"/>
<g>
	<path fill="#FFFFFF" d="M2.608,9.691C2.575,9.706,2.575,9.736,2.604,9.757l2.747,1.813l0.787-3.702L2.608,9.691z M17.389,7.867
		h-4.841L11.76,11.57h4.84c0.037,0,0.043-0.016,0.014-0.034l-2.754-1.814l3.537-1.824C17.427,7.881,17.424,7.867,17.389,7.867z"/>
	<path fill="#FFFFFF" d="M17.174,5.442H5.779c-0.636,0-1.083,0.401-1.187,0.895c-0.057,0.257,0.043,0.524,0.255,0.68l4.094,2.702
		l0.001-0.002l0.001,0.002l8.239-4.245C17.213,5.457,17.21,5.442,17.174,5.442z M15.366,13.961L8.945,9.719L8.943,9.72L8.942,9.719
		l-5.245,2.703c-0.28,0.166-0.485,0.407-0.542,0.682c-0.105,0.492,0.169,0.893,0.805,0.893h11.397
		C15.393,13.995,15.396,13.979,15.366,13.961z"/>
</g>
</svg>
