<?xml version="1.0" encoding="utf-8"?>
<!-- Generator: Adobe Illustrator 16.0.0, SVG Export Plug-In . SVG Version: 6.00 Build 0)  -->
<!DOCTYPE svg PUBLIC "-//W3C//DTD SVG 1.1//EN" "http://www.w3.org/Graphics/SVG/1.1/DTD/svg11.dtd">
<svg version="1.1" id="Layer_1" xmlns="http://www.w3.org/2000/svg" xmlns:xlink="http://www.w3.org/1999/xlink" x="0px" y="0px"
	 width="20px" height="20px" viewBox="0 0 20 20" enable-background="new 0 0 20 20" xml:space="preserve">
<circle fill="#A84CA1" cx="10" cy="10" r="10"/>
<path fill="#FFFFFF" d="M6.286,14.975v-9.95h3.547c1.345,0,1.825,0.055,2.231,0.164c0.629,0.164,1.153,0.521,1.576,1.072
	c0.424,0.549,0.637,1.261,0.637,2.132c0,0.672-0.123,1.239-0.367,1.696c-0.22,0.429-0.539,0.799-0.93,1.079
	c-0.377,0.262-0.76,0.436-1.146,0.52c-0.527,0.104-0.896,0.156-1.896,0.156H8.496v3.131H6.286z M8.496,6.96V10h1.211
	c0.871,0,1.089-0.022,1.383-0.137c0.279-0.104,0.521-0.292,0.689-0.538c0.168-0.244,0.252-0.527,0.252-0.852
	c0-0.398-0.117-0.727-0.352-0.985c-0.232-0.258-0.545-0.429-0.888-0.486c-0.267-0.05-0.431-0.042-1.229-0.042H8.496z"/>
</svg>
