<?xml version="1.0" encoding="utf-8"?>
<!-- Generator: Adobe Illustrator 16.0.0, SVG Export Plug-In . SVG Version: 6.00 Build 0)  -->
<!DOCTYPE svg PUBLIC "-//W3C//DTD SVG 1.1//EN" "http://www.w3.org/Graphics/SVG/1.1/DTD/svg11.dtd">
<svg version="1.1" id="Layer_1" xmlns="http://www.w3.org/2000/svg" xmlns:xlink="http://www.w3.org/1999/xlink" x="0px" y="0px"
	 width="20px" height="20px" viewBox="0 0 20 20" enable-background="new 0 0 20 20" xml:space="preserve">
<circle fill="#DD4040" cx="10" cy="10" r="10"/>
<path fill="#FFFFFF" d="M15.12,7.734h-2.854V4.88c0-0.417-0.338-0.755-0.754-0.755c-0.001,0-0.002,0-0.002,0H8.489
	c-0.416,0-0.754,0.336-0.755,0.753c0,0.001,0,0.001,0,0.002v2.854H4.88c-0.417,0-0.754,0.336-0.755,0.753c0,0.001,0,0.001,0,0.002
	v3.021c0,0.42,0.338,0.756,0.755,0.756h2.854v2.854c0,0.416,0.339,0.755,0.755,0.755h3.021c0.418,0,0.756-0.338,0.756-0.755v-2.854
	h2.854c0.417,0,0.755-0.338,0.755-0.755V11.51V8.489C15.875,8.072,15.537,7.734,15.12,7.734L15.12,7.734z"/>
</svg>
