<?xml version="1.0" encoding="utf-8"?>
<!-- Generator: Adobe Illustrator 16.0.0, SVG Export Plug-In . SVG Version: 6.00 Build 0)  -->
<!DOCTYPE svg PUBLIC "-//W3C//DTD SVG 1.1//EN" "http://www.w3.org/Graphics/SVG/1.1/DTD/svg11.dtd">
<svg version="1.1" id="Layer_1" xmlns="http://www.w3.org/2000/svg" xmlns:xlink="http://www.w3.org/1999/xlink" x="0px" y="0px"
	 width="20px" height="20px" viewBox="0 0 20 20" enable-background="new 0 0 20 20" xml:space="preserve">
<circle fill="#EFA500" cx="10" cy="10" r="10"/>
<path fill="#FFFFFF" d="M11.68,9.305v-5.08c0-0.494-0.4-0.895-0.896-0.895H5.372c-0.495,0-0.896,0.4-0.896,0.895v11.548
	c0,0.494,0.401,0.896,0.896,0.896h9.704c0.494,0,0.896-0.401,0.896-0.896v-5.178c0-0.495-0.4-0.895-0.896-0.895h-3
	c-0.219,0.001-0.396-0.175-0.396-0.393C11.68,9.307,11.68,9.306,11.68,9.305z"/>
<g>
	<path fill="#EFA500" d="M9.797,10.089H6.37c-0.316-0.019-0.558-0.29-0.539-0.607C5.848,9.192,6.08,8.96,6.37,8.943h3.427
		c0.316,0.019,0.558,0.291,0.539,0.607C10.319,9.84,10.087,10.072,9.797,10.089z M9.797,7.999H6.37
		C6.053,7.986,5.807,7.718,5.82,7.401c0.013-0.298,0.251-0.537,0.55-0.549h3.427c0.317,0,0.574,0.257,0.574,0.573
		C10.371,7.742,10.114,7.999,9.797,7.999z M9.797,5.935H6.37c-0.316,0-0.573-0.256-0.573-0.573c0-0.316,0.256-0.573,0.573-0.573
		c0,0,0,0,0,0h3.427c0.316,0.019,0.558,0.291,0.539,0.607C10.319,5.686,10.087,5.918,9.797,5.935z"/>
</g>
<path fill="#EFA500" d="M14.271,14.285h-1.5c-0.316,0-0.572-0.257-0.572-0.573s0.256-0.573,0.572-0.573h1.5
	c0.316,0,0.572,0.258,0.572,0.574C14.844,14.028,14.588,14.285,14.271,14.285z M14.271,12.223h-1.5
	c-0.316,0-0.572-0.256-0.572-0.572s0.256-0.573,0.572-0.573h1.5c0.316,0,0.572,0.257,0.572,0.573S14.588,12.223,14.271,12.223z
	 M9.66,16.67H6.507v-3.568c0-0.87,0.706-1.576,1.577-1.576s1.577,0.706,1.577,1.576V16.67z"/>
</svg>
