<?xml version="1.0" encoding="UTF-8"?>
<svg xmlns="http://www.w3.org/2000/svg" version="1.1" id="ic_objectaddress_12" width="20px" height="20px" viewBox="0 0 20 20">
  <defs>
    <style>
      .cls-1 {
        fill: #315fd3;
      }
    </style>
  </defs>
  <!-- Generator: Adobe Illustrator 28.7.2, SVG Export Plug-In . SVG Version: 1.2.0 Build 154)  -->
  <g>
    <g id="ic_objectaddress_12">
      <g id="ic_objectaddress_12">
        <g id="uuid-9628cb5c-fd2f-47a4-88ac-799d94d3ae68">
          <g>
            <g>
              <path class="cls-1" d="M6.6,12.7h-.2l-.2-.2-.8-.3-2,1.5c-.2.1-.3.4-.3.6v1.5c0,.4.3.8.8.8s.8-.3.8-.8v-1.1l.4-.3,2.2-1.6h-.6l-.1-.1Z"/>
              <path class="cls-1" d="M15.3,14.6v1.1c0,.4.3.8.8.8s.8-.3.8-.8v-1.5c0-.2-.1-.5-.3-.6l-2-1.5-.8.3h-.2l-.2.2h-.6l2.2,1.6.4.3h0l-.1.1Z"/>
            </g>
            <g>
              <path class="cls-1" d="M1,8.9c0,.3.3.6.6.6h1.2v-1.2h-1.2c-.3,0-.6.3-.6.6Z"/>
              <path class="cls-1" d="M18.4,3.5h-5.4c-.3,0-.6.3-.6.6s.3.6.6.6h3v3.6h-1.2v-.6c0-.3-.3-.6-.6-.6H5.8c-.3,0-.6.3-.6.6v.6h-1.2v-3.6h3c.3,0,.6-.3.6-.6s-.3-.6-.6-.6H1.6c-.3,0-.6.3-.6.6s.3.6.6.6h1.2v5.4c0,.3.3.6.6.6s.6-.3.6-.6v-.6h1.2v.8l2.5,1h4.6l2.5-1v-.8h1.2v.6c0,.3.3.6.6.6h0c.3,0,.6-.3.6-.6v-.6h1.2c.3,0,.6-.3.6-.6s-.3-.6-.6-.6h-1.2v-3.6h1.2c.3,0,.6-.3.6-.6s-.3-.6-.6-.6h0Z"/>
            </g>
          </g>
        </g>
      </g>
    </g>
  </g>
</svg>