<?xml version="1.0" encoding="UTF-8"?>
<svg xmlns="http://www.w3.org/2000/svg" version="1.1" id="ic_objectaddress_circle_21" width="20px" height="20px" viewBox="0 0 20 20">
  <!-- Generator: Adobe Illustrator 29.0.0, SVG Export Plug-In . SVG Version: 2.1.0 Build 186)  -->
  <defs>
    <style>
      .st0 {
        fill: #fff;
      }

      .st1 {
        fill: #315fd3;
      }
    </style>
  </defs>
  <g id="_x32_1_x5F_민방위대피소">
    <path class="st1" d="M19.5,6.7c2.6,8.1-4.7,15.4-12.8,12.8-2.9-.9-5.2-3.2-6.1-6.1C-2.1,5.3,5.3-2.1,13.3.5c2.9.9,5.2,3.2,6.1,6.1h0Z"/>
    <g>
      <path class="st0" d="M14.6,10.6H5.4v5h3v-1.4c0-1.1.7-2,1.6-2s1.6.9,1.6,2v1.4h3v-5Z"/>
      <g>
        <polygon class="st0" points="13.3 4.2 10.4 9.8 16.5 9.8 13.3 4.2"/>
        <polygon class="st0" points="6.5 4.2 3.5 9.8 5.9 9.8 7.7 6.4 6.5 4.2"/>
        <polygon class="st0" points="9.9 4.2 6.9 9.8 9.4 9.8 11.2 6.4 9.9 4.2"/>
      </g>
    </g>
  </g>
</svg>