<?xml version="1.0" encoding="UTF-8"?>
<svg xmlns="http://www.w3.org/2000/svg" version="1.1" id="ic_objectaddress_circle_13" width="20px" height="20px" viewBox="0 0 20 20">
  <!-- Generator: Adobe Illustrator 29.0.0, SVG Export Plug-In . SVG Version: 2.1.0 Build 186)  -->
  <g id="_x31_3_x5F_주차장">
    <circle cx="10" cy="10" r="10" fill="#315fd3"/>
    <path d="M6.286,14.975V5.025h3.547c1.345,0,1.825.055,2.231.164.629.164,1.154.521,1.576,1.072.424.549.637,1.261.637,2.132,0,.672-.123,1.239-.367,1.696-.244.457-.555.818-.93,1.079-.377.261-.76.435-1.146.52-.527.103-.896.156-1.897.156h-1.441v3.131h-2.21ZM8.496,6.96v3.04h1.211c.871,0,1.089-.022,1.383-.137.293-.115.524-.294.69-.538.168-.244.252-.527.252-.852,0-.398-.117-.727-.352-.985-.234-.259-.529-.421-.887-.486-.266-.05-.431-.042-1.229-.042,0,0-1.068,0-1.068,0Z" fill="#fff"/>
  </g>
</svg>