<?xml version="1.0" encoding="UTF-8"?>
<svg xmlns="http://www.w3.org/2000/svg" version="1.1" id="ic_objectaddress_19" width="20px" height="20px" viewBox="0 0 20 20">
  <defs>
    <style>
      .cls-1 {
        fill: #315fd3;
      }
    </style>
  </defs>
  <!-- Generator: Adobe Illustrator 28.7.2, SVG Export Plug-In . SVG Version: 1.2.0 Build 154)  -->
  <g>
    <g id="ic_objectaddress_19">
      <g id="ic_objectaddress_19">
        <g>
          <path class="cls-1" d="M7.7,2.4H2.5c-.5,0-.9.4-.9.9s.4.9.9.9h1.3v2.2c-1.6.3-2.9,1.8-2.9,3.5v7.9h7.1v-7.9c0-1.7-1.2-3.2-2.9-3.5v-2.2h2.6s.8,0,1.2.4c.3.3.4.7.4,1.3v7.9c0,.5.4.9.9.9s.9-.4.9-.9v-7.9c0-1.1-.3-1.9-1-2.5-1-1-2.4-.9-2.5-.9l.1-.1Z"/>
          <rect class="cls-1" x="12.543" y="5.725" width="5.3" height="1.3" transform="translate(-1.065 9.048) rotate(-32.1)"/>
          <polygon class="cls-1" points="12.6 13.4 17.1 16.2 17.8 15.1 13.4 12.3 12.6 13.4"/>
          <rect class="cls-1" x="13.4" y="9.6" width="5.7" height="1.3"/>
        </g>
      </g>
    </g>
  </g>
</svg>