<?xml version="1.0" encoding="UTF-8"?>
<svg xmlns="http://www.w3.org/2000/svg" version="1.1" id="ic_objectaddress_16" width="20px" height="20px" viewBox="0 0 20.9 12.1">
  <defs>
    <style>
      .cls-1 {
        fill: #315fd3;
      }
    </style>
  </defs>
  <!-- Generator: Adobe Illustrator 28.7.2, SVG Export Plug-In . SVG Version: 1.2.0 Build 154)  -->
  <g>
    <g id="ic_objectaddress_16">
      <g id="_x31_6_x5F_우체통">
        <g>
          <path class="cls-1" d="M.4,6H.4l3.7,2.5,1.1-5L.4,6H.4Z"/>
          <path class="cls-1" d="M20.5,3.6h-6.6l-1.1,5h6.6l-3.7-2.5,4.8-2.5h0Z"/>
          <path class="cls-1" d="M20.2.3H4.7c-.9,0-1.5.5-1.6,1.2,0,.4,0,.7.3.9l5.6,3.7h0L20.2.3h0Z"/>
          <path class="cls-1" d="M17.7,11.8h0l-8.7-5.8h0l-7.1,3.7c-.4.2-.7.6-.7.9-.1.7.2,1.2,1.1,1.2h15.5-.1Z"/>
        </g>
      </g>
    </g>
  </g>
</svg>