<?xml version="1.0" encoding="UTF-8"?>
<svg xmlns="http://www.w3.org/2000/svg" version="1.1" id="ic_objectaddress_09" width="20px" height="20px" viewBox="0 0 20 20">
  <defs>
    <style>
      .cls-1 {
        fill: #315fd3;
      }
    </style>
  </defs>
  <!-- Generator: Adobe Illustrator 28.7.2, SVG Export Plug-In . SVG Version: 1.2.0 Build 154)  -->
  <g>
    <g id="_아이콘">
      <g id="ic_objectaddress_09">
        <path class="cls-1" d="M17,8.4v-1.4h0c-.5-2.4-2.1-4.4-4.5-5.1h0c-.7-.2-1.5-.4-2.3-.4s-1.3,0-2,.3h-.2c-.2,0-.4.1-.5.2h0c-2.1.9-3.6,2.7-4,4.9v2.3s0,.2.1.2h0l3.8,6.1v2.5c0,.2.2.4.4.4h5.2c.2,0,.4-.2.4-.4v-2.5l3.7-6.1h0s0-.1.1-.2v-.8h-.2ZM12.4,15h-1l1.1-5.5c.4-.7,1.1-1.1,1.8-1.1s1.1.3,1.5.8l-3.5,5.9.1-.1ZM4.1,9.1c.4-.5,1-.8,1.6-.8s1.4.4,1.8,1.1l1.1,5.5h-1l-3.5-5.9v.1ZM9.4,15l-1.1-5.7c.4-.6,1-1,1.7-1s1.3.4,1.7,1l-1.1,5.7h-1.2Z"/>
      </g>
    </g>
  </g>
</svg>