<?xml version="1.0" encoding="UTF-8"?>
<svg xmlns="http://www.w3.org/2000/svg" version="1.1" id="ic_objectaddress_15" width="20px" height="20px" viewBox="0 0 20 20">
  <defs>
    <style>
      .cls-1 {
        fill: #315fd3;
      }
    </style>
  </defs>
  <!-- Generator: Adobe Illustrator 28.7.2, SVG Export Plug-In . SVG Version: 1.2.0 Build 154)  -->
  <g>
    <g id="ic_objectaddress_15">
      <g id="_x31_5_x5F_공중전화">
        <path class="cls-1" d="M14.2,17.1h-.2c-2.5-1-4.7-2.6-6.7-4.6s-3.4-4.1-4.4-6.3h0c-.1-.2,0-.5.1-.7h0c1.4-1.3,2.6-2.2,2.7-2.3,0-.1.2-.2.4-.2s.4,0,.5.3l2,3.3c0,.1.1.3,0,.5,0,.2-.2.3-.3.4l-1,.4c.6.9,1.3,1.7,2.1,2.6.9.9,1.8,1.6,2.8,2.3l.5-1c0-.1.2-.3.4-.3h.5l3.3,2c.2.1.3.3.3.5s0,.3-.2.4c-.2.2-1.5,1.7-2.5,2.8-.1.1-.3.2-.4.2h0v-.2l.1-.1Z"/>
      </g>
    </g>
  </g>
</svg>