<?xml version="1.0" encoding="UTF-8"?>
<svg xmlns="http://www.w3.org/2000/svg" version="1.1" id="ic_objectaddress_17" width="20px" height="20px" viewBox="0 0 20 20">
  <defs>
    <style>
      .cls-1 {
        fill: #315fd3;
      }
    </style>
  </defs>
  <!-- Generator: Adobe Illustrator 28.7.2, SVG Export Plug-In . SVG Version: 1.2.0 Build 154)  -->
  <g>
    <g id="ic_objectaddress_17">
      <g id="_x31_7_x5F_전동휠체어급속충전기">
        <path class="cls-1" d="M15.8,4.8l.5-4-4.4,5.1h2.7l-.5,4,4.2-5.1h-2.6.1Z"/>
        <g>
          <path class="cls-1" d="M6.4,16.8c-2,0-3.8-1.7-3.8-3.8s1.7-3.8,3.8-3.8v-1.5c-2.8,0-5.2,2.4-5.2,5.2s2.4,5.2,5.2,5.2,5.2-2.3,5.2-5.2h-1.5c0,2.1-1.7,3.8-3.8,3.8l.1.1Z"/>
          <path class="cls-1" d="M16.4,14.2l-3.4-3.4c-.1-.1-.3-.2-.5-.2h-3.5v-1.5h2.6v-1.5h-2.6v-.7c1.1-.3,1.9-1.3,1.9-2.6s-1.2-2.7-2.7-2.7-2.7,1.2-2.7,2.7.8,2.2,1.9,2.6v4.4c0,.4.3.7.7.7h3.9l3.4,3.4c.1.1.3.2.5.2h2.3v-1.5h-2l.2.1Z"/>
        </g>
      </g>
    </g>
  </g>
</svg>