<?xml version="1.0" encoding="UTF-8"?>
<svg xmlns="http://www.w3.org/2000/svg" version="1.1" id="ic_objectaddress_23" width="20px" height="20px" viewBox="0 0 20 20">
  <defs>
    <style>
      .cls-1 {
        display: none;
      }

      .cls-1, .cls-2 {
        fill: #315fd3;
      }
    </style>
  </defs>
  <!-- Generator: Adobe Illustrator 28.7.2, SVG Export Plug-In . SVG Version: 1.2.0 Build 154)  -->
  <g>
    <g id="ic_objectaddress_23">
      <g id="ic_objectaddress_23">
        <path class="cls-1" d="M18.259,3.441h-9.967c-.239,0-.433.194-.433.433v2.167h-3.576c-.148,0-.286.075-.365.202l-2.491,3.922c-.044.069-.068.151-.068.233v3.878c0,.239.194.433.433.433h1.344c.202.988,1.076,1.733,2.123,1.733s1.921-.746,2.123-1.733h5.287c.202.988,1.076,1.733,2.123,1.733s1.921-.746,2.123-1.733h1.344c.239,0,.433-.194.433-.433V3.875c0-.239-.194-.433-.433-.433h0ZM5.258,15.574c-.716,0-1.3-.584-1.3-1.3s.584-1.3,1.3-1.3,1.3.584,1.3,1.3-.584,1.3-1.3,1.3ZM5.258,12.108c-1.047,0-1.921.746-2.123,1.733h-.91v-3.033h2.167v-.867h-1.798l1.927-3.033h3.338v6.933h-.477c-.202-.988-1.076-1.733-2.123-1.733h0ZM14.793,15.574c-.716,0-1.3-.584-1.3-1.3s.584-1.3,1.3-1.3,1.3.584,1.3,1.3-.584,1.3-1.3,1.3Z"/>
        <path class="cls-2" d="M17.781,3.197h-9.583c-.359,0-.65.291-.65.65v1.178h-3.267c-.21,0-.408.102-.529.273l-2.492,3.499c-.079.11-.121.242-.121.377v2.681c0,.359.291.65.65.65h1.213c-.425.498-.692,1.135-.692,1.84,0,1.573,1.28,2.853,2.852,2.853s2.853-1.28,2.853-2.853c0-.704-.266-1.342-.692-1.84h5.468c-.425.498-.692,1.135-.692,1.84,0,1.573,1.28,2.853,2.853,2.853s2.853-1.28,2.853-2.853c0-.704-.266-1.342-.692-1.84h.667c.359,0,.65-.291.65-.65V3.847c0-.359-.291-.65-.65-.65h.001ZM5.162,15.897c-.856,0-1.552-.697-1.552-1.553s.696-1.551,1.552-1.551,1.553.696,1.553,1.551-.696,1.553-1.553,1.553ZM14.953,15.897c-.856,0-1.553-.697-1.553-1.553s.697-1.551,1.553-1.551,1.553.696,1.553,1.551-.697,1.553-1.553,1.553ZM2.439,9.381l2.177-3.056h2.932v4.88H2.439v-1.824Z"/>
      </g>
    </g>
  </g>
</svg>