<?xml version="1.0" encoding="UTF-8"?>
<svg xmlns="http://www.w3.org/2000/svg" version="1.1" id="ic_objectaddress_13" width="20px" height="20px" viewBox="0 0 20 20">
  <defs>
    <style>
      .cls-1 {
        fill: #315fd3;
      }
    </style>
  </defs>
  <!-- Generator: Adobe Illustrator 28.7.2, SVG Export Plug-In . SVG Version: 1.2.0 Build 154)  -->
  <g>
    <g id="ic_objectaddress_13">
      <g id="_x31_3_x5F_주차장">
        <path class="cls-1" d="M4.7,17V3h5c1.9,0,2.6,0,3.1.2.9.2,1.6.7,2.2,1.5.6.8.9,1.8.9,3s-.2,1.7-.5,2.4c-.3.6-.8,1.2-1.3,1.5-.5.4-1.1.6-1.6.7-.7.1-1.3.2-2.7.2h-2v4.4h-3.1v.1ZM7.8,5.7v4.3h1.7c1.2,0,1.5,0,1.9-.2s.7-.4,1-.8c.2-.3.4-.7.4-1.2s-.2-1-.5-1.4-.7-.6-1.2-.7h-3.3Z"/>
      </g>
    </g>
  </g>
</svg>