<?xml version="1.0" encoding="UTF-8"?>
<svg xmlns="http://www.w3.org/2000/svg" version="1.1" id="ic_objectaddress_03" width="20px" height="20px" viewBox="0 0 20 20">
  <defs>
    <style>
      .cls-1 {
        fill: #315fd3;
      }
    </style>
  </defs>
  <!-- Generator: Adobe Illustrator 28.7.2, SVG Export Plug-In . SVG Version: 1.2.0 Build 154)  -->
  <g>
    <g id="ic_objectaddress_03">
      <path class="cls-1" d="M9.845,2.073c0,1.14-.933,2.073-2.073,2.073s-2.073-.933-2.073-2.073.933-2.073,2.073-2.073,2.073.933,2.073,2.073Z"/>
      <path class="cls-1" d="M17.202,13.472h-3.834l-1.347-3.42-1.14-3.834h2.694l1.554,2.28c.207.311.622.311.933,0,.311-.207.415-.622.311-.933l-1.865-2.694h-5.907c-.415,0-.622.104-.725.311,0,0-.207,0-.207.207l-1.658,2.28h-3.316c-.311,0-.622.311-.622.725s.311.725.622.725h4.041s.207,0,.207-.207l1.244-1.762,1.14,3.316-2.798,3.42c-.207.207-.518.933-.518.933l-1.451,4.663c0,.415.311.518.311.518h1.658c.311,0,.415-.622.518-.829,0-.207.104-.518.207-.725.104-.518.725-2.176.933-2.694v-.415l2.383-2.694,1.036,2.694c0,.207.207.311.415.415.104.104.311.207.415.207h4.663c.518,0,.829-.518.829-1.036,0-.622-.415-1.036-.829-1.036,0,0,.104-.415.104-.415Z"/>
    </g>
  </g>
</svg>