<?xml version="1.0" encoding="UTF-8"?>
<svg xmlns="http://www.w3.org/2000/svg" version="1.1" id="ic_objectaddress_18" width="20px" height="20px" viewBox="0 0 20 20">
  <defs>
    <style>
      .cls-1 {
        fill: #315fd3;
      }
    </style>
  </defs>
  <!-- Generator: Adobe Illustrator 28.7.2, SVG Export Plug-In . SVG Version: 1.2.0 Build 154)  -->
  <g>
    <g id="ic_objectaddress_18">
      <g id="_x31_8_x5F_자전거거치대">
        <path class="cls-1" d="M1.3,10.9V2h3.2c1.2,0,1.6,0,2,.1.6.1,1,.5,1.4,1s.6,1.1.6,1.9-.1,1.1-.3,1.5-.5.7-.8,1c-.3.2-.7.4-1,.5-.5,0-.8.1-1.7.1h-1.3v2.8H1.3ZM3.3,3.7v2.7h1.1c.8,0,1,0,1.2-.1.3-.1.5-.3.6-.5.2-.2.2-.5.2-.8s-.1-.7-.3-.9c-.2-.2-.5-.4-.8-.4h-2.1.1Z"/>
        <path class="cls-1" d="M15.6,11.3l-1.3-5.1c0-.4-.4-.6-.8-.6h-2.6v1.6h2l.5,1.9h-6.1c-.3,0-.7.2-.8.5l-.5,1.6c-1.8,0-3.3,1.5-3.3,3.3s1.5,3.4,3.4,3.4,3.4-1.5,3.4-3.4-.7-2.4-1.8-3l.3-.9h6l.2.8c-1.2.5-2,1.7-2,3s1.5,3.4,3.4,3.4,3.4-1.5,3.4-3.4-1.4-3.2-3.1-3.3l-.3.2ZM5.9,16.4c-.9,0-1.7-.8-1.7-1.7s.8-1.7,1.7-1.7,1.7.8,1.7,1.7-.8,1.7-1.7,1.7ZM15.4,16.4c-.9,0-1.7-.8-1.7-1.7s.8-1.7,1.7-1.7,1.7.8,1.7,1.7-.8,1.7-1.7,1.7Z"/>
      </g>
    </g>
  </g>
</svg>