<?xml version="1.0" encoding="UTF-8"?>
<svg xmlns="http://www.w3.org/2000/svg" version="1.1" id="ic_objectaddress_11" width="20px" height="20px" viewBox="0 0 20 20">
  <defs>
    <style>
      .cls-1 {
        fill: #315fd3;
      }
    </style>
  </defs>
  <!-- Generator: Adobe Illustrator 28.7.2, SVG Export Plug-In . SVG Version: 1.2.0 Build 154)  -->
  <g>
    <g id="ic_objectaddress_11">
      <g id="ic_objectaddress_11">
        <g id="_모서리가_둥근_직사각형_1_복사_x28_병합_x29_">
          <path class="cls-1" d="M16.4,7.2h-3.6v-3.6c0-.5-.4-.9-.9-.9h-3.8c-.5,0-.9.4-.9.9v3.6h-3.6c-.5,0-.9.4-.9.9v3.8c0,.5.4.9.9.9h3.6v3.6c0,.5.4.9.9.9h3.8c.5,0,.9-.4.9-.9v-3.6h3.6c.5,0,.9-.4.9-.9v-3.8c0-.5-.4-.9-.9-.9Z"/>
        </g>
      </g>
    </g>
  </g>
</svg>