<?xml version="1.0" encoding="UTF-8"?>
<svg xmlns="http://www.w3.org/2000/svg" version="1.1" id="ic_objectaddress_circle_09" width="20px" height="20px" viewBox="0 0 20 20">
  <!-- Generator: Adobe Illustrator 29.0.0, SVG Export Plug-In . SVG Version: 2.1.0 Build 186)  -->
  <defs>
    <style>
      .st0 {
        fill: #fff;
      }

      .st1 {
        fill: #315fd3;
      }
    </style>
  </defs>
  <g id="_x30_9_x5F_어린이공원">
    <path class="st1" d="M19.5,6.7c2.6,8.1-4.7,15.4-12.8,12.8-2.9-.9-5.2-3.2-6.1-6.1C-2.1,5.3,5.3-2.1,13.3.5c2.9.9,5.2,3.2,6.1,6.1h0Z"/>
    <path class="st0" d="M15.2,8.8c0-.2,0-.3,0-.5,0,0,0,0,0,0,0-.2,0-.3,0-.5h0c-.3-1.8-1.6-3.3-3.4-3.8h0c-.5-.2-1.1-.3-1.7-.3s-1,0-1.5.2h0s0,0,0,0c0,0,0,0-.1,0-.1,0-.3,0-.4.1,0,0,0,0,0,0-1.6.6-2.7,2-3,3.7,0,0,0,0,0,0,0,.1,0,.3,0,.4,0,0,0,0,0,.1,0,.2,0,.3,0,.5s0,.4,0,.6c0,0,0,.1,0,.2h0l2.8,4.6v1.8c0,.2.1.3.3.3h3.9c.2,0,.3-.1.3-.3v-1.8l2.8-4.6h0c0,0,0-.1,0-.2,0-.2,0-.4,0-.6h0ZM11.8,13.7h-.7l.8-4.1c.3-.5.8-.8,1.3-.8s.8.2,1.2.6l-2.6,4.4h0ZM5.6,9.4c.3-.4.7-.6,1.2-.6s1,.3,1.3.8l.8,4.1h-.7l-2.6-4.4h0ZM9.6,13.7l-.9-4.2c.3-.5.8-.7,1.3-.7s1,.3,1.3.7l-.9,4.2h-.8Z"/>
  </g>
</svg>