<?xml version="1.0" encoding="UTF-8"?>
<svg xmlns="http://www.w3.org/2000/svg" version="1.1" id="ic_objectaddress_circle_22" width="20px" height="20px" viewBox="0 0 20 20">
  <!-- Generator: Adobe Illustrator 29.0.0, SVG Export Plug-In . SVG Version: 2.1.0 Build 186)  -->
  <defs>
    <style>
      .st0 {
        fill: #fff;
      }

      .st1 {
        fill: #315fd3;
      }
    </style>
  </defs>
  <g id="_x32_2_x5F_어린이놀이시설">
    <circle class="st1" cx="10" cy="10" r="10"/>
    <g>
      <path class="st0" d="M6.7,10.5c.1.5-.3,1-.3,1.5,0,.5.2.9.5,1.3.6.8,1.5,1.4,2.4,1.7.6.2,1.3.3,1.9.3,2.7,0,4.8-1.7,4.8-3.7v-.4s0-.6-.6-.5h-5.3"/>
      <path class="st0" d="M5.4,7.9l-1.4.3c-.2,0-.5.4-.2.7l2.1.8"/>
      <path class="st0" d="M10.7,10.4c.7-.6,1.2-1.5,1.2-2.5,0-1.8-1.5-3.3-3.3-3.3s-3.3,1.5-3.3,3.3,1.5,3.3,3.3,3.3.1,0,.2,0c0,0,1.9-.7,1.9-.7Z"/>
      <path class="st1" d="M7,7.7c0,.5.4,1,1,1s1-.4,1-1-.4-1-1-1-1,.4-1,1Z"/>
    </g>
  </g>
</svg>