<?xml version="1.0" encoding="UTF-8"?>
<svg xmlns="http://www.w3.org/2000/svg" id="ic_objectaddress_02" width="20px" height="20px" version="1.1" viewBox="0 0 20 20">
  <defs>
    <style>
      .cls-1 {
        fill: #315fd3;
      }
    </style>
  </defs>
  <!-- Generator: Adobe Illustrator 28.7.2, SVG Export Plug-In . SVG Version: 1.2.0 Build 154)  -->
  <g>
    <g id="ic_objectaddress_02">
      <g id="ic_objectaddress_02-2" data-name="ic_objectaddress_02">
        <path class="cls-1" d="M19.937,19.25l-2.125-3.5-4.75-8.625-3.375,6.375-1.875-4-3.375,6.25-2.25,3.625v.375c0,.125.25.25.375.25h16.875c.125,0,.375,0,.375-.25v-.375h0s.125-.125.125-.125Z"/>
        <path class="cls-1" d="M.062,12.75V0h4c1.5,0,2,0,2.5.125.75.125,1.25.625,1.75,1.25s.75,1.375.75,2.375-.125,1.375-.375,1.875-.625.875-1,1.25c-.375.25-.875.5-1.25.625-.625,0-1,.125-2.125.125h-1.625v5.125H.062ZM2.562,2.125v3.375h1.375c1,0,1.25,0,1.5-.125.375-.125.625-.375.75-.625.25-.25.25-.625.25-1s-.125-.875-.375-1.125c-.25-.25-.625-.5-1-.5h-2.625s.125,0,.125,0Z"/>
      </g>
    </g>
  </g>
</svg>