<?xml version="1.0" encoding="UTF-8"?>
<svg xmlns="http://www.w3.org/2000/svg" version="1.1" id="ic_objectaddress_22" width="20px" height="20px" viewBox="0 0 20 20">
  <defs>
    <style>
      .cls-1 {
        fill: #315fd3;
      }
    </style>
  </defs>
  <!-- Generator: Adobe Illustrator 28.7.2, SVG Export Plug-In . SVG Version: 1.2.0 Build 154)  -->
  <g>
    <g id="ic_objectaddress_22">
      <g id="ic_objectaddress_22">
        <path class="cls-1" d="M17.7,11h-7.5l.8-.3c1-.8,1.7-2.1,1.7-3.5,0-2.5-2.1-4.6-4.6-4.6S3.6,4.6,3.6,7.1l-1.9.5c-.3,0-.7.5-.3,1l3,1.1h0c.3.4.7.8,1.1,1.1h0c.1.7-.4,1.4-.4,2.1s.3,1.3.7,1.9c.8,1.1,2.1,2,3.4,2.4.8.3,1.8.4,2.7.4,3.8,0,6.8-2.4,6.8-5.3v-.6s0-.8-.9-.7h-.1ZM7.1,5.4c.7,0,1.3.6,1.3,1.3s-.6,1.4-1.3,1.4-1.3-.6-1.3-1.4.6-1.3,1.3-1.3Z"/>
      </g>
    </g>
  </g>
</svg>