<?xml version="1.0" encoding="UTF-8"?>
<svg xmlns="http://www.w3.org/2000/svg" version="1.1" id="ic_objectaddress_08" width="20px" height="20px" viewBox="0 0 20 20">
  <defs>
    <style>
      .cls-1 {
        fill: #fff;
      }

      .cls-2 {
        fill: none;
        stroke: #fff;
        stroke-miterlimit: 10;
        stroke-width: 1.6px;
      }

      .cls-3 {
        display: none;
      }

      .cls-4 {
        fill: #315fd3;
      }
    </style>
  </defs>
  <!-- Generator: Adobe Illustrator 28.7.2, SVG Export Plug-In . SVG Version: 1.2.0 Build 154)  -->
  <g>
    <g id="_아이콘">
      <g id="ic_objectaddress_08" class="cls-3">
        <circle class="cls-4" cx="10" cy="10" r="10"/>
        <g>
          <line class="cls-2" x1="10" y1="5.5" x2="10" y2="16.2"/>
          <path class="cls-1" d="M12.7,7.3v-.7c0-1.6-1.3-2.8-2.8-2.8s-2.8,1.3-2.8,2.8,0,.9.3,1.2c-1.2.3-2,1.3-2,2.6s1.2,2.6,2.7,2.6h3.4c1.7,0,3-1.3,3-3s-.7-2.3-1.8-2.8h0v.1Z"/>
        </g>
      </g>
      <path class="cls-4" d="M13.9,6.1c0-.3.1-.7.1-1,0-2.2-1.8-4.1-4.1-4.1s-4.1,1.8-4.1,4.1.2,1.3.4,1.8c-1.7.4-2.9,1.9-2.9,3.7s1.7,3.8,3.8,3.8h1.6v4.6h2.3v-4.6h1.1c2.4,0,4.3-1.9,4.3-4.3,0-1.8-1.1-3.3-2.6-4h.1Z"/>
    </g>
  </g>
</svg>