<?xml version="1.0" encoding="UTF-8"?>
<svg xmlns="http://www.w3.org/2000/svg" version="1.1" id="ic_objectaddress_circle_05" width="20px" height="20px" viewBox="0 0 20 20">
  <!-- Generator: Adobe Illustrator 29.0.0, SVG Export Plug-In . SVG Version: 2.1.0 Build 186)  -->
  <g id="_x30_5_x5F_택시승강장">
    <circle cx="10" cy="10" r="10" fill="#315fd3"/>
    <path d="M11.009,8.042v6.846c0,.13-.105.235-.235.235h-1.55c-.13,0-.235-.105-.235-.235v-6.846c0-.13-.105-.235-.235-.235h-2.323c-.13,0-.235-.105-.235-.235v-1.393c0-.13.105-.235.235-.235h7.135c.13,0,.235.105.235.235v1.393c0,.13-.105.235-.235.235h-2.323c-.129,0-.235.105-.235.235h0Z" fill="#fff"/>
  </g>
</svg>