<?xml version="1.0" encoding="UTF-8"?>
<svg xmlns="http://www.w3.org/2000/svg" version="1.1" id="ic_objectaddress_20" width="20px" height="20px" viewBox="0 0 20 20">
  <defs>
    <style>
      .cls-1 {
        fill: #315fd3;
      }
    </style>
  </defs>
  <!-- Generator: Adobe Illustrator 28.7.2, SVG Export Plug-In . SVG Version: 1.2.0 Build 154)  -->
  <g>
    <g id="ic_objectaddress_20">
      <g id="ic_objectaddress_20">
        <path class="cls-1" d="M18.7,8.8c0-.2-.3-.3-.5-.3h-5.9c-.1-.1-.3-.3-.6-.5l1.2-3h0c.3-1.2-.2-2.4-1.2-3.2-.9-.7-2.1-.9-3.1-.4-.2,0-.3.3-.3.5v5.9c-.1.1-.3.3-.5.6l-3-1.2h0c-1.2-.3-2.4.2-3.2,1.2-.7.9-.9,2.1-.4,3.1,0,.2.3.3.5.3h5.9c.1.1.3.3.6.5l-1.2,3h0c-.3,1.2.2,2.4,1.2,3.2.6.5,1.3.7,1.9.7s.8,0,1.2-.3c.2,0,.3-.3.3-.5v-5.9c.1-.1.3-.3.5-.6l3,1.2h.7c1,0,1.9-.4,2.5-1.3.7-.9.9-2.1.4-3.1v.1ZM10,12.1c-1.2,0-2.1-.9-2.1-2.1s.9-2.1,2.1-2.1,2.1.9,2.1,2.1-.9,2.1-2.1,2.1Z"/>
      </g>
    </g>
  </g>
</svg>