<?xml version="1.0" encoding="UTF-8"?>
<svg xmlns="http://www.w3.org/2000/svg" version="1.1" id="ic_objectaddress_circle_11" width="20px" height="20px" viewBox="0 0 20 20">
  <!-- Generator: Adobe Illustrator 29.0.0, SVG Export Plug-In . SVG Version: 2.1.0 Build 186)  -->
  <g id="_x31_1_x5F_인명구조함">
    <circle cx="10" cy="10" r="10" fill="#315fd3"/>
    <g id="_모서리가_둥근_직사각형_1_복사_x28_병합_x29_">
      <path d="M15.12,7.734h-2.854v-2.854c0-.417-.338-.755-.756-.755h-3.021c-.417,0-.755.337-.755.755v2.854h-2.854c-.417,0-.755.337-.755.755v3.021c0,.419.338.756.755.756h2.854v2.854c0,.416.339.755.755.755h3.021c.418,0,.756-.339.756-.755v-2.854h2.854c.416,0,.755-.337.755-.756v-3.021c0-.418-.339-.755-.755-.755Z" fill="#fff"/>
    </g>
  </g>
</svg>