<?xml version="1.0" encoding="UTF-8"?>
<svg xmlns="http://www.w3.org/2000/svg" version="1.1" id="ic_objectaddress_circle_15" width="20px" height="20px" viewBox="0 0 20 20">
  <!-- Generator: Adobe Illustrator 29.0.0, SVG Export Plug-In . SVG Version: 2.1.0 Build 186)  -->
  <g id="_x31_5_x5F_공중전화">
    <circle cx="10" cy="10" r="10" fill="#315fd3"/>
    <path d="M13.514,16c-.062,0-.125-.012-.184-.037-2.02-.838-3.968-2.161-5.634-3.827-1.585-1.585-2.867-3.436-3.707-5.354l-.007-.011c-.092-.185-.056-.409.09-.556.007-.007.015-.015.023-.022,0,0,.019-.017.02-.017,1.238-1.086,2.139-1.886,2.269-2.011.079-.091.191-.15.315-.162.179-.018.357.068.454.222l1.744,2.762c.075.119.094.264.053.398-.041.134-.138.244-.266.3l-.834.368c.529.761,1.129,1.478,1.79,2.139.729.729,1.519,1.38,2.354,1.94l.391-.885c.057-.128.166-.225.3-.266.135-.041.279-.021.398.053l2.762,1.744c.154.097.24.274.222.455-.012.124-.072.236-.162.315-.16.164-1.32,1.48-2.028,2.288-.093.107-.226.164-.362.164h0Z" fill="#fff"/>
  </g>
</svg>