<?xml version="1.0" encoding="UTF-8"?>
<svg xmlns="http://www.w3.org/2000/svg" version="1.1" id="ic_objectaddress_06" width="20px" height="20px" viewBox="0 0 20 20">
  <defs>
    <style>
      .cls-1 {
        fill: #fff;
      }

      .cls-2 {
        fill: #315fd3;
      }
    </style>
  </defs>
  <!-- Generator: Adobe Illustrator 28.7.2, SVG Export Plug-In . SVG Version: 1.2.0 Build 154)  -->
  <g>
    <g id="_아이콘">
      <g id="ic_objectaddress_06">
        <g>
          <path class="cls-2" d="M3.7,2h12.6c.9,0,1.7.8,1.7,1.7v12.6c0,.9-.8,1.7-1.7,1.7H3.7c-.9,0-1.7-.8-1.7-1.7V3.7c0-.9.8-1.7,1.7-1.7Z"/>
          <path class="cls-1" d="M6.8,15.4V4.6h3.3c1.2,0,1.7,0,2,.2.6.2,1.1.5,1.4,1,.4.5.6,1.2.6,2s-.1,1.1-.3,1.6c-.2.4-.5.8-.9,1-.3.2-.7.4-1.1.5-.5,0-.8.1-1.7.1h-1.3v4.6h-2v-.2ZM8.8,6.3v2.8h1.1c.8,0,1,0,1.3-.1s.5-.3.6-.5c.2-.2.2-.5.2-.8s-.1-.7-.3-.9c-.2-.2-.5-.4-.8-.4h-2.1v-.1Z"/>
        </g>
      </g>
    </g>
  </g>
</svg>