<?xml version="1.0" encoding="UTF-8"?>
<svg xmlns="http://www.w3.org/2000/svg" version="1.1" id="ic_objectaddress_05" width="20px" height="20px" viewBox="0 0 20 20">
  <defs>
    <style>
      .cls-1 {
        fill: #315fd3;
      }
    </style>
  </defs>
  <!-- Generator: Adobe Illustrator 28.7.2, SVG Export Plug-In . SVG Version: 1.2.0 Build 154)  -->
  <g>
    <g id="ic_objectaddress_05">
      <g id="ic_objectaddress_05">
        <path class="cls-1" d="M11.5,6.8v10.5c0,.2-.2.3-.3.3h-2.4c-.2,0-.3-.2-.3-.3V6.8c0-.2-.2-.3-.3-.3h-3.6c-.2,0-.3-.2-.3-.3v-2.2c0-.2.2-.3.3-.3h11c.2,0,.3.2.3.3v2.2c0,.2-.2.3-.3.3h-3.6c-.2,0-.3.2-.3.3h-.2Z"/>
      </g>
    </g>
  </g>
</svg>