<?xml version="1.0" encoding="UTF-8"?>
<svg xmlns="http://www.w3.org/2000/svg" version="1.1" id="ic_objectaddress_circle_01" width="20px" height="20px" viewBox="0 0 20 20">
  <!-- Generator: Adobe Illustrator 29.0.0, SVG Export Plug-In . SVG Version: 2.1.0 Build 186)  -->
  <g id="ic_objectaddress_circle_01">
    <circle cx="10" cy="10" r="10" fill="#315fd3"/>
    <g>
      <path d="M10.728,15h-6c-.276,0-.5-.224-.5-.5V5.5c0-.276.224-.5.5-.5h6c.276,0,.5.224.5.5v9c0,.276-.224.5-.5.5ZM5.228,14h5V6h-5s0,8,0,8Z" fill="#fff"/>
      <g>
        <g>
          <g>
            <polyline points="16.361 6.565 14.474 4.678 12.583 6.569" display="none" fill="none" stroke="#fff" stroke-linecap="square" stroke-linejoin="round"/>
            <line x1="14.474" y1="4.678" x2="14.474" y2="8.919" fill="none" stroke="#fff" stroke-linecap="square" stroke-linejoin="round"/>
          </g>
          <g>
            <line x1="14.474" y1="11.081" x2="14.474" y2="15.322" fill="none" stroke="#fff" stroke-linecap="square" stroke-linejoin="round"/>
            <path d="M12.524,13.891l1.748,2.331c.101.135.303.135.405,0l1.748-2.331c.125-.167.006-.405-.202-.405h-3.496c-.208,0-.327.238-.202.405h0Z" fill="#fff"/>
          </g>
        </g>
        <path d="M16.423,6.109l-1.748-2.331c-.101-.135-.303-.135-.405,0l-1.748,2.331c-.125.167-.006.405.202.405h3.496c.208,0,.327-.238.202-.405h.001Z" fill="#fff"/>
      </g>
    </g>
  </g>
</svg>